STARTFONT 2.3
FONT -FontForge-Pacifico-Book-R-Normal--14-140-72-72-P-82-ISO10646-1
SIZE 14 72 72  2
FONTBOUNDINGBOX 33 29 -9 -7
COMMENT "Generated by fontforge, http://fontforge.sourceforge.net"
COMMENT "Copyright 2018 The Pacifico Project Authors (https://github.com/googlefonts/Pacifico)"
STARTPROPERTIES 41
FOUNDRY "FontForge"
FAMILY_NAME "Pacifico"
WEIGHT_NAME "Book"
SLANT "R"
SETWIDTH_NAME "Normal"
ADD_STYLE_NAME ""
PIXEL_SIZE 14
POINT_SIZE 140
RESOLUTION_X 72
RESOLUTION_Y 72
SPACING "P"
AVERAGE_WIDTH 82
CHARSET_REGISTRY "ISO10646"
CHARSET_ENCODING "1"
FONTNAME_REGISTRY ""
CHARSET_COLLECTIONS "ISO8859-2 ISO8859-5 ISO8859-9 ISO8859-4 ISO10646-1"
BITS_PER_PIXEL 2
FONT_NAME "Pacifico-Regular"
FACE_NAME "Pacifico Regular"
COPYRIGHT "Copyright 2018 The Pacifico Project Authors (https://github.com/googlefonts/Pacifico)"
FONT_VERSION "3.001"
FONT_ASCENT 11
FONT_DESCENT 3
UNDERLINE_POSITION -1
UNDERLINE_THICKNESS 1
X_HEIGHT 6
CAP_HEIGHT 12
DEFAULT_CHAR 1
RAW_ASCENT 800
RAW_DESCENT 200
NORM_SPACE 4
RELATIVE_WEIGHT 40
RELATIVE_SETWIDTH 50
SUPERSCRIPT_X 0
SUPERSCRIPT_Y 4
SUPERSCRIPT_SIZE 8
SUBSCRIPT_X 0
SUBSCRIPT_Y 1
SUBSCRIPT_SIZE 8
AVG_LOWERCASE_WIDTH 66
AVG_UPPERCASE_WIDTH 113
ENDPROPERTIES
CHARS 1514
STARTCHAR NULL.dup1
ENCODING 0
SWIDTH 0 0
DWIDTH 0 0
BBX 1 1 0 0
BITMAP
00
ENDCHAR
STARTCHAR nonmarkingreturn
ENCODING 13
SWIDTH 265 0
DWIDTH 4 0
BBX 1 1 0 0
BITMAP
00
ENDCHAR
STARTCHAR space
ENCODING 32
SWIDTH 265 0
DWIDTH 4 0
BBX 1 1 0 0
BITMAP
00
ENDCHAR
STARTCHAR exclam
ENCODING 33
SWIDTH 340 0
DWIDTH 5 0
BBX 5 13 0 0
BITMAP
02C0
03C0
0780
0B40
0B40
0F00
0E00
1D00
1C00
0400
2800
7C00
7800
ENDCHAR
STARTCHAR quotedbl
ENCODING 34
SWIDTH 510 0
DWIDTH 7 0
BBX 6 5 1 8
BITMAP
28B0
3CF0
78E0
79E0
75D0
ENDCHAR
STARTCHAR numbersign
ENCODING 35
SWIDTH 700 0
DWIDTH 10 0
BBX 10 9 0 0
BITMAP
01C340
03C740
2FFFD0
1BAF90
0B1D00
6FAE40
7FFF80
2D3800
183400
ENDCHAR
STARTCHAR dollar
ENCODING 36
SWIDTH 524 0
DWIDTH 7 0
BBX 7 13 0 -2
BITMAP
0040
00C0
0BE0
2EF8
39A8
2E40
0FD0
13F4
7378
7BB4
2FD0
0600
0600
ENDCHAR
STARTCHAR percent
ENCODING 37
SWIDTH 896 0
DWIDTH 13 0
BBX 13 11 0 0
BITMAP
1F80A000
3AD6E000
76FFC000
75EB4000
2F8F0000
052D7D00
0038EB00
00B5C740
01E1C740
02C1EB00
0280B900
ENDCHAR
STARTCHAR ampersand
ENCODING 38
SWIDTH 851 0
DWIDTH 12 0
BBX 12 14 0 -1
BITMAP
00BD00
03EF00
078740
074740
078F00
03FD00
03F400
1FF409
3D7C2D
782EB8
780BE0
3EAFE0
0BF9F4
000074
ENDCHAR
STARTCHAR quotesingle
ENCODING 39
SWIDTH 290 0
DWIDTH 4 0
BBX 3 5 1 8
BITMAP
28
3C
78
78
74
ENDCHAR
STARTCHAR parenleft
ENCODING 40
SWIDTH 613 0
DWIDTH 9 0
BBX 10 16 1 -2
BITMAP
006F80
02FBD0
078040
0F0000
1E0000
2D0000
3C0000
780000
740000
B40000
B40000
B00000
B40000
742800
3EF800
1BD000
ENDCHAR
STARTCHAR parenright
ENCODING 41
SWIDTH 613 0
DWIDTH 9 0
BBX 9 16 -1 -2
BITMAP
01BD00
07EF40
0A0780
0003C0
0003C0
0003C0
000380
000780
000B40
000B40
000F00
001E00
003C00
40B800
FBE000
7F4000
ENDCHAR
STARTCHAR asterisk
ENCODING 42
SWIDTH 520 0
DWIDTH 7 0
BBX 7 6 1 8
BITMAP
2640
2FB4
1FD0
7BE0
0A60
0600
ENDCHAR
STARTCHAR plus
ENCODING 43
SWIDTH 700 0
DWIDTH 10 0
BBX 8 9 1 0
BITMAP
01C0
01C0
02C0
02C0
BFFE
6BE9
0380
0340
0340
ENDCHAR
STARTCHAR comma
ENCODING 44
SWIDTH 257 0
DWIDTH 4 0
BBX 3 5 0 -2
BITMAP
38
78
74
B0
90
ENDCHAR
STARTCHAR hyphen
ENCODING 45
SWIDTH 403 0
DWIDTH 6 0
BBX 4 3 1 3
BITMAP
05
FF
55
ENDCHAR
STARTCHAR period
ENCODING 46
SWIDTH 257 0
DWIDTH 4 0
BBX 3 3 0 0
BITMAP
68
BC
78
ENDCHAR
STARTCHAR slash
ENCODING 47
SWIDTH 509 0
DWIDTH 7 0
BBX 8 14 0 0
BITMAP
000A
001E
002D
0078
00B4
01E0
02D0
0780
0B40
1E00
2D00
7800
B400
A000
ENDCHAR
STARTCHAR zero
ENCODING 48
SWIDTH 543 0
DWIDTH 8 0
BBX 7 9 0 0
BITMAP
0190
0FF4
2D3C
382C
782C
742C
3838
2EF4
0B90
ENDCHAR
STARTCHAR one
ENCODING 49
SWIDTH 376 0
DWIDTH 5 0
BBX 4 9 1 0
BITMAP
6D
FE
6D
2D
2C
3C
3C
38
34
ENDCHAR
STARTCHAR two
ENCODING 50
SWIDTH 560 0
DWIDTH 8 0
BBX 7 9 0 0
BITMAP
07E0
1EB8
2C3C
283C
00B4
01E0
0B80
3FA8
7FFC
ENDCHAR
STARTCHAR three
ENCODING 51
SWIDTH 520 0
DWIDTH 7 0
BBX 7 9 0 0
BITMAP
0BE0
3EB8
3438
10B4
07E0
01B4
7078
7AF4
2FD0
ENDCHAR
STARTCHAR four
ENCODING 52
SWIDTH 577 0
DWIDTH 8 0
BBX 8 9 0 0
BITMAP
0380
0B40
0E28
2D38
3C38
7EB9
3FFE
00B4
0070
ENDCHAR
STARTCHAR five
ENCODING 53
SWIDTH 518 0
DWIDTH 7 0
BBX 7 9 0 0
BITMAP
1AA4
3FFC
1D00
2E40
2FF0
00B8
7478
7EF4
1FD0
ENDCHAR
STARTCHAR six
ENCODING 54
SWIDTH 541 0
DWIDTH 8 0
BBX 7 9 0 0
BITMAP
06F4
1FBC
2C1C
3990
7FF4
7C78
3838
2EF4
0BD0
ENDCHAR
STARTCHAR seven
ENCODING 55
SWIDTH 497 0
DWIDTH 7 0
BBX 7 9 0 0
BITMAP
2AA8
7FFC
00B4
02D0
0780
0F00
0E00
1E00
0D00
ENDCHAR
STARTCHAR eight
ENCODING 56
SWIDTH 512 0
DWIDTH 7 0
BBX 7 9 0 0
BITMAP
0BE0
2EB8
3C38
2DB4
1FE0
39B4
7438
7EF4
1FD0
ENDCHAR
STARTCHAR nine
ENCODING 57
SWIDTH 541 0
DWIDTH 8 0
BBX 7 9 0 0
BITMAP
0BE0
2EB8
3C3C
3C7C
2FFC
067C
7078
7EF0
1F80
ENDCHAR
STARTCHAR colon
ENCODING 58
SWIDTH 257 0
DWIDTH 4 0
BBX 4 7 0 0
BITMAP
28
3D
2C
00
68
BC
78
ENDCHAR
STARTCHAR semicolon
ENCODING 59
SWIDTH 257 0
DWIDTH 4 0
BBX 4 9 0 -2
BITMAP
28
3D
2C
00
38
78
74
B0
90
ENDCHAR
STARTCHAR less
ENCODING 60
SWIDTH 700 0
DWIDTH 10 0
BBX 8 7 1 1
BITMAP
001B
02FE
6F90
BD00
7F90
06FD
002D
ENDCHAR
STARTCHAR equal
ENCODING 61
SWIDTH 700 0
DWIDTH 10 0
BBX 8 5 1 2
BITMAP
7FFF
6AA9
0000
6AA9
FFFD
ENDCHAR
STARTCHAR greater
ENCODING 62
SWIDTH 700 0
DWIDTH 10 0
BBX 8 7 1 1
BITMAP
7800
7F90
06FD
007E
06F9
BF80
E400
ENDCHAR
STARTCHAR question
ENCODING 63
SWIDTH 476 0
DWIDTH 7 0
BBX 7 13 1 0
BITMAP
1F90
7AF0
B0B4
60F0
02E0
0780
1E00
2C00
2400
1000
A400
F400
B400
ENDCHAR
STARTCHAR at
ENCODING 64
SWIDTH 1015 0
DWIDTH 14 0
BBX 14 15 0 -4
BITMAP
001BF900
01FEAF40
07D007C0
0F4001E0
2D0B90E0
3C2EF0E0
7878E0E0
74B4E1D0
74B1D2C0
74BBEB40
782D7D00
3C000000
1F400640
07EABF40
00AFE400
ENDCHAR
STARTCHAR A
ENCODING 65
SWIDTH 786 0
DWIDTH 11 0
BBX 13 13 0 0
BITMAP
001BF900
00BFBE00
03E01000
0B80B400
1E00F000
2D00E000
3C01E000
3C02D000
7C03D000
3C07D040
3D0FD280
1FBAFB40
07E0BD00
ENDCHAR
STARTCHAR B
ENCODING 66
SWIDTH 827 0
DWIDTH 12 0
BBX 12 14 0 -1
BITMAP
01BFE4
2FEAFD
B9001F
52800F
03801F
07807D
0B4FE4
0B4BE0
0F00B4
0F00B8
1E01F4
1FABE0
1FFE40
1D0000
ENDCHAR
STARTCHAR C
ENCODING 67
SWIDTH 686 0
DWIDTH 10 0
BBX 11 13 1 0
BITMAP
01BD00
0BEF40
2E0380
7C0380
B40380
F00000
F00000
F00000
F00000
B40000
7D0064
2FABF0
06FE40
ENDCHAR
STARTCHAR D
ENCODING 68
SWIDTH 836 0
DWIDTH 12 0
BBX 12 13 0 0
BITMAP
06FE40
2FABF0
7800B8
02803C
07802D
07402D
0B402D
0F003D
0F007C
1E00B8
1E02F0
1FAF80
1BF900
ENDCHAR
STARTCHAR E
ENCODING 69
SWIDTH 686 0
DWIDTH 10 0
BBX 12 13 0 0
BITMAP
01BF80
07EBE0
0F40F0
0F00F0
0F0090
07E400
0BF800
2E4000
780000
B80000
7C0019
2FAAFC
06FF90
ENDCHAR
STARTCHAR F
ENCODING 70
SWIDTH 712 0
DWIDTH 10 0
BBX 13 13 0 0
BITMAP
01AFFF80
0BAFAA80
2D1E0000
2C2D0000
2C2D0000
042D0000
01FFF400
00BEA000
003C0000
00780000
D0B40000
BAF00000
2F800000
ENDCHAR
STARTCHAR G
ENCODING 71
SWIDTH 811 0
DWIDTH 11 0
BBX 12 20 1 -7
BITMAP
01BE00
0BEB80
2E02C0
7C02D0
B402C0
F00000
F00000
F00A90
F01FE0
B401D0
7C01DA
2FABFD
06FBE0
000780
001F80
007740
00D700
01CE00
01ED00
00B400
ENDCHAR
STARTCHAR H
ENCODING 72
SWIDTH 873 0
DWIDTH 12 0
BBX 14 14 0 0
BITMAP
00000240
1B800FC0
7BD02DD0
D1D038D0
81D075C0
02D0B680
02D0BF00
1BEAF800
2FFEE000
0780E000
0780E000
0B40F070
0F00BEE0
0A002F40
ENDCHAR
STARTCHAR I
ENCODING 73
SWIDTH 495 0
DWIDTH 7 0
BBX 8 13 0 0
BITMAP
1FFE
1AE9
02D0
02D0
03C0
03C0
0780
0780
0740
0B40
0B40
6FA0
FFF0
ENDCHAR
STARTCHAR J
ENCODING 74
SWIDTH 743 0
DWIDTH 10 0
BBX 10 14 1 -1
BITMAP
0AFF90
7EABE0
F003C0
E00780
B00780
100740
006F40
02FF00
0B8F00
1E1E00
2C2D00
3C3800
2EF400
0B9000
ENDCHAR
STARTCHAR K
ENCODING 75
SWIDTH 937 0
DWIDTH 13 0
BBX 15 13 0 0
BITMAP
06FE01D0
1FAF42D0
3C1E03C0
382D0B80
382D0F00
182D3D00
007EF400
00FFD000
0039F000
0078B804
B0B47D1C
7EF02FB4
1F800BD0
ENDCHAR
STARTCHAR L
ENCODING 76
SWIDTH 673 0
DWIDTH 9 0
BBX 13 13 -1 0
BITMAP
001BE000
007EBC00
00F42D00
01E02D00
02D02C00
02D00000
02D00000
03C00000
03C00000
03C00000
2FE40340
BFFFAE00
7E1BF800
ENDCHAR
STARTCHAR M
ENCODING 77
SWIDTH 1232 0
DWIDTH 17 0
BBX 19 13 0 0
BITMAP
1B82E06E00
7BCBB9EF40
E2D83A4B40
82F43E0B40
02E03D0B40
03D07C0F00
03D0781F00
07C0B81E00
0780B42D00
0780F42D04
0B40F02D1C
0B40F01FB8
0B00E00BD0
ENDCHAR
STARTCHAR N
ENCODING 78
SWIDTH 884 0
DWIDTH 12 0
BBX 14 13 0 0
BITMAP
1B81F800
7BCBBD00
E2DC1E00
82E41E00
02F02D00
03E03D00
03D03C00
07C07800
07807800
0780B400
0B40B870
0B407EE0
0B001F80
ENDCHAR
STARTCHAR O
ENCODING 79
SWIDTH 816 0
DWIDTH 11 0
BBX 10 13 1 0
BITMAP
01BE00
0BEFC0
2E02E0
7C01F0
B400F0
F000F0
F000F0
F000F0
F001E0
F402D0
B80B80
3FBE00
0BE400
ENDCHAR
STARTCHAR P
ENCODING 80
SWIDTH 805 0
DWIDTH 11 0
BBX 12 14 0 -1
BITMAP
006FE0
02FAF8
07803D
0E2C2D
2C3C2D
383C3D
3478B8
75BFF0
76FF80
74B400
74F000
39F000
2FE000
0BC000
ENDCHAR
STARTCHAR Q
ENCODING 81
SWIDTH 816 0
DWIDTH 11 0
BBX 12 18 1 -5
BITMAP
01BE00
0BEFC0
2E02E0
7C01F0
B400F0
F000F0
F000F0
F000F0
F001E0
F403D0
7D0B80
2FFE00
06F400
00B800
003D05
002E1C
000FF8
000290
ENDCHAR
STARTCHAR R
ENCODING 82
SWIDTH 880 0
DWIDTH 12 0
BBX 14 13 0 0
BITMAP
006FE000
02FAF800
0B407D00
1D2C2D00
2C383C00
3878B800
35BAE000
75FF8000
74B7D000
34F1E010
38F0F470
1EE07EE0
0BD02F40
ENDCHAR
STARTCHAR S
ENCODING 83
SWIDTH 693 0
DWIDTH 10 0
BBX 10 13 0 0
BITMAP
01BE40
0BEBD0
1E01E0
1D00E0
1E0090
0FD000
06FD00
006F80
2007C0
7402C0
7403C0
3EAF40
0BF900
ENDCHAR
STARTCHAR T
ENCODING 84
SWIDTH 697 0
DWIDTH 10 0
BBX 13 13 0 0
BITMAP
06BFFF40
2FAFAA40
741E0000
742D0000
742D0000
103C0000
003C0000
00780000
00780000
00B80000
00B40000
00B40000
00B00000
ENDCHAR
STARTCHAR U
ENCODING 85
SWIDTH 890 0
DWIDTH 12 0
BBX 15 13 0 0
BITMAP
1B800D00
7BD01E00
E1E01E00
82D02D00
02D02D00
03C03C00
03C07C00
0780BC00
0B40F800
0B42B810
0B477874
0BFD3FE0
02F41F80
ENDCHAR
STARTCHAR V
ENCODING 86
SWIDTH 763 0
DWIDTH 11 0
BBX 12 13 1 0
BITMAP
2C07D0
3C0EF0
3C1CB0
7C1CB0
781DF0
780EE0
7807F9
7803FE
380740
3C0F00
2D2D00
1FF400
0B9000
ENDCHAR
STARTCHAR W
ENCODING 87
SWIDTH 1217 0
DWIDTH 17 0
BBX 18 13 1 0
BITMAP
2C00D02E00
3C01E0BB40
3C02D0D740
7C03D0D740
7803D0EB40
7807D0BF00
780BD03FA0
780FD02FF0
781ED03800
3C2DD0B400
3D74E1E000
1FE0BF8000
0B807E0000
ENDCHAR
STARTCHAR X
ENCODING 88
SWIDTH 712 0
DWIDTH 10 0
BBX 12 13 0 0
BITMAP
1F8078
7BD0F4
91F2E0
00FB80
00BF00
007D00
00BC00
02FC00
07ED00
1F5E00
3D0F0A
B80BAD
E002E4
ENDCHAR
STARTCHAR Y
ENCODING 89
SWIDTH 851 0
DWIDTH 12 0
BBX 14 18 0 -5
BITMAP
1B800E00
7BD01E00
E1E01E00
82D02D00
02D03D00
03C03C00
03C0BC00
0780FC00
0782B800
03EF7990
01F9BFD0
000BF900
007EB400
00F4B000
01D0E000
02D2D000
01FF4000
00690000
ENDCHAR
STARTCHAR Z
ENCODING 90
SWIDTH 721 0
DWIDTH 10 0
BBX 12 13 0 0
BITMAP
06FFA4
1FAAF8
3801F0
3803D0
380780
140F40
002E00
007C00
00F400
02E001
6FE407
BFFFAD
7D1BE4
ENDCHAR
STARTCHAR bracketleft
ENCODING 91
SWIDTH 405 0
DWIDTH 6 0
BBX 6 15 1 -1
BITMAP
1FE0
1E90
2D00
2C00
3C00
3C00
3800
7800
7800
B400
B400
B000
F000
FA00
BF40
ENDCHAR
STARTCHAR backslash
ENCODING 92
SWIDTH 509 0
DWIDTH 7 0
BBX 6 14 1 0
BITMAP
7000
7400
7800
3C00
2D00
1D00
0E00
0F00
0B40
0780
03C0
02C0
02D0
00D0
ENDCHAR
STARTCHAR bracketright
ENCODING 93
SWIDTH 405 0
DWIDTH 6 0
BBX 7 15 -1 -1
BITMAP
0FF4
0AF4
00B4
00F0
00F0
00E0
01E0
01E0
01D0
02D0
02D0
03C0
03C0
6B80
BF40
ENDCHAR
STARTCHAR asciicircum
ENCODING 94
SWIDTH 700 0
DWIDTH 10 0
BBX 7 8 1 1
BITMAP
01C0
03D0
07E0
0E70
1D34
3838
742C
A01C
ENDCHAR
STARTCHAR underscore
ENCODING 95
SWIDTH 354 0
DWIDTH 5 0
BBX 6 2 -1 -2
BITMAP
2A90
7FD0
ENDCHAR
STARTCHAR grave
ENCODING 96
SWIDTH 600 0
DWIDTH 8 0
BBX 4 5 1 8
BITMAP
10
78
2C
0D
06
ENDCHAR
STARTCHAR a
ENCODING 97
SWIDTH 470 0
DWIDTH 7 0
BBX 9 7 0 0
BITMAP
079000
1FF000
3CB000
74E000
75E240
7BFE00
2E7800
ENDCHAR
STARTCHAR b
ENCODING 98
SWIDTH 473 0
DWIDTH 7 0
BBX 9 14 0 0
BITMAP
02D000
07F000
0E7000
1D6000
2CA000
2DC000
3A4000
3FD000
7DF000
78FA40
787F40
387000
2EE000
0B8000
ENDCHAR
STARTCHAR c
ENCODING 99
SWIDTH 368 0
DWIDTH 5 0
BBX 7 7 0 0
BITMAP
0B80
2EC0
79C0
B404
741C
7EF4
1F90
ENDCHAR
STARTCHAR d
ENCODING 100
SWIDTH 515 0
DWIDTH 7 0
BBX 9 14 0 0
BITMAP
000B00
002F40
003680
007640
007340
00B700
00BA00
07ED00
1EFC00
38F400
74F040
74E1C0
7BFB40
2E2D00
ENDCHAR
STARTCHAR e
ENCODING 101
SWIDTH 393 0
DWIDTH 6 0
BBX 8 7 0 0
BITMAP
0B80
3ED0
75D0
7B80
791D
3EB8
1BD0
ENDCHAR
STARTCHAR f
ENCODING 102
SWIDTH 371 0
DWIDTH 5 0
BBX 7 19 0 -5
BITMAP
00B0
02F4
0774
0B34
0E70
1DA0
2DD0
2E80
3E00
3C00
3BF8
7BA0
7B00
7740
7A40
3A40
3A40
2F00
1E00
ENDCHAR
STARTCHAR g
ENCODING 103
SWIDTH 479 0
DWIDTH 7 0
BBX 9 14 0 -7
BITMAP
079000
1FF000
3CB000
74E000
75E740
7BFE00
2EF400
07C000
1FC000
3B8000
A34000
DB0000
EE0000
780000
ENDCHAR
STARTCHAR h
ENCODING 104
SWIDTH 502 0
DWIDTH 7 0
BBX 9 14 0 0
BITMAP
02D000
07F000
0A7000
1D6000
1C9000
2DC000
3B4000
3EB400
3AF400
7BB400
7E7040
7CB180
7CBB40
347D00
ENDCHAR
STARTCHAR i
ENCODING 105
SWIDTH 246 0
DWIDTH 3 0
BBX 6 10 0 0
BITMAP
1E00
1E00
0000
2C00
3800
3800
7400
74D0
7F80
2E00
ENDCHAR
STARTCHAR j
ENCODING 106
SWIDTH 254 0
DWIDTH 4 0
BBX 8 17 -3 -7
BITMAP
00B4
00F4
0000
00B0
00F0
00E0
00E0
01D7
01FD
01F4
07C0
1F80
3780
A740
DB00
ED00
B800
ENDCHAR
STARTCHAR k
ENCODING 107
SWIDTH 525 0
DWIDTH 7 0
BBX 9 14 0 0
BITMAP
02D000
07F000
0A7000
1D6000
1C9000
2DC000
3B4000
3EB800
3AFC00
7B2C00
7EB840
7DE1C0
78FB80
347E00
ENDCHAR
STARTCHAR l
ENCODING 108
SWIDTH 326 0
DWIDTH 5 0
BBX 7 14 0 0
BITMAP
02D0
07F0
0E70
1D70
2CA0
2CD0
39C0
3A80
3B40
7E00
7C00
3834
2EE0
1F80
ENDCHAR
STARTCHAR m
ENCODING 109
SWIDTH 744 0
DWIDTH 10 0
BBX 13 7 0 0
BITMAP
2CB1E000
3AF7F000
3BBAE000
7DBCE100
7CB9D340
78B5EE00
3460F800
ENDCHAR
STARTCHAR n
ENCODING 110
SWIDTH 496 0
DWIDTH 7 0
BBX 9 7 0 0
BITMAP
2CB400
3AF400
3BB400
7DB040
7CB280
78BB40
347900
ENDCHAR
STARTCHAR o
ENCODING 111
SWIDTH 451 0
DWIDTH 6 0
BBX 8 7 0 0
BITMAP
0B80
3EE0
75FA
74BE
74A0
7ED0
1F40
ENDCHAR
STARTCHAR p
ENCODING 112
SWIDTH 481 0
DWIDTH 7 0
BBX 11 14 -2 -7
BITMAP
02AD00
03EF00
038B40
038B00
079E28
0FBEF0
1FEB80
2B4000
374000
774000
A70000
AA0000
BD0000
780000
ENDCHAR
STARTCHAR q
ENCODING 113
SWIDTH 500 0
DWIDTH 7 0
BBX 9 14 0 -6
BITMAP
001400
07F800
1FF400
3CB000
74E000
75EF80
7BDE40
2EDC00
02CC00
02CC00
02DC00
02D800
02F400
00E000
ENDCHAR
STARTCHAR r
ENCODING 114
SWIDTH 455 0
DWIDTH 6 0
BBX 9 7 0 0
BITMAP
2CB400
3AF400
3BB500
7E7F40
7C3D00
780000
340000
ENDCHAR
STARTCHAR s
ENCODING 115
SWIDTH 427 0
DWIDTH 6 0
BBX 8 7 0 0
BITMAP
0740
0B00
1F40
2BC1
B2DA
DFFD
0BF4
ENDCHAR
STARTCHAR t
ENCODING 116
SWIDTH 393 0
DWIDTH 6 0
BBX 8 13 0 0
BITMAP
01E0
03F0
0B70
0E70
1DD0
1E80
FFF4
BE90
2C00
2C00
2D0D
1FB8
07E0
ENDCHAR
STARTCHAR u
ENCODING 117
SWIDTH 462 0
DWIDTH 6 0
BBX 9 7 0 0
BITMAP
1C7000
38B000
38E000
75E000
7BD340
7EFE00
2CB800
ENDCHAR
STARTCHAR v
ENCODING 118
SWIDTH 449 0
DWIDTH 6 0
BBX 8 7 0 0
BITMAP
74B0
75F0
75FA
76FE
3B80
3F00
2D00
ENDCHAR
STARTCHAR w
ENCODING 119
SWIDTH 700 0
DWIDTH 10 0
BBX 12 7 0 0
BITMAP
74A1D0
74F2E0
75F2EA
76F3FD
3BBB00
3E7E00
2D3800
ENDCHAR
STARTCHAR x
ENCODING 120
SWIDTH 529 0
DWIDTH 7 0
BBX 10 7 0 0
BITMAP
1E6D00
2FFE00
16D400
12C040
B3D1D0
BBFB80
7DBE00
ENDCHAR
STARTCHAR y
ENCODING 121
SWIDTH 479 0
DWIDTH 7 0
BBX 9 14 0 -7
BITMAP
1C7000
38B000
38F000
75E100
7BE740
7FFD00
2DF400
07C000
1FC000
378000
A34000
DB0000
EE0000
B80000
ENDCHAR
STARTCHAR z
ENCODING 122
SWIDTH 445 0
DWIDTH 6 0
BBX 7 7 1 0
BITMAP
FFE0
AFD0
2E00
B404
F02C
FAF4
6F90
ENDCHAR
STARTCHAR braceleft
ENCODING 123
SWIDTH 490 0
DWIDTH 7 0
BBX 7 15 1 -1
BITMAP
01BC
03E8
0780
0B40
0B40
0F00
AE00
FC00
2E00
1E00
1D00
2D00
2D00
1F90
0BD0
ENDCHAR
STARTCHAR bar
ENCODING 124
SWIDTH 326 0
DWIDTH 5 0
BBX 5 19 0 -5
BITMAP
0740
0740
0B40
0B00
0B00
0E00
0E00
1E00
1D00
1D00
2C00
2C00
3C00
3800
7800
7400
7400
B400
1000
ENDCHAR
STARTCHAR braceright
ENCODING 125
SWIDTH 490 0
DWIDTH 7 0
BBX 8 15 -1 -1
BITMAP
0F90
0AF0
00B0
00B0
00F0
00F0
00B9
00BE
01E0
02D0
02D0
02C0
03C0
6F80
7E00
ENDCHAR
STARTCHAR asciitilde
ENCODING 126
SWIDTH 700 0
DWIDTH 10 0
BBX 8 4 1 3
BITMAP
1401
7F4B
B7ED
90B8
ENDCHAR
STARTCHAR uni00A0
ENCODING 160
SWIDTH 265 0
DWIDTH 4 0
BBX 1 1 0 0
BITMAP
00
ENDCHAR
STARTCHAR exclamdown
ENCODING 161
SWIDTH 340 0
DWIDTH 5 0
BBX 6 13 -1 -6
BITMAP
03C0
07D0
0280
0100
0700
0B00
0E00
1E00
1D00
2D00
3C00
7800
6400
ENDCHAR
STARTCHAR cent
ENCODING 162
SWIDTH 466 0
DWIDTH 7 0
BBX 6 11 0 -2
BITMAP
0040
0240
0680
1FF0
3BB0
7750
7620
3FB0
1F80
0600
0900
ENDCHAR
STARTCHAR sterling
ENCODING 163
SWIDTH 525 0
DWIDTH 7 0
BBX 8 9 0 0
BITMAP
01A0
0BFC
1E1D
1D04
7E90
BFD0
2C00
7EA8
BFFC
ENDCHAR
STARTCHAR currency
ENCODING 164
SWIDTH 700 0
DWIDTH 10 0
BBX 7 7 1 1
BITMAP
6298
3FFC
2828
341C
2828
2FF8
769C
ENDCHAR
STARTCHAR yen
ENCODING 165
SWIDTH 497 0
DWIDTH 7 0
BBX 8 9 0 0
BITMAP
701D
782C
2C74
1EE0
0FC0
7FF4
7FF0
0B40
0B00
ENDCHAR
STARTCHAR brokenbar
ENCODING 166
SWIDTH 326 0
DWIDTH 5 0
BBX 5 19 0 -5
BITMAP
0740
0740
0B40
0B00
0B00
0E00
0E00
0D00
0000
0000
1400
2C00
3C00
3800
3800
7400
7400
B400
1000
ENDCHAR
STARTCHAR section
ENCODING 167
SWIDTH 607 0
DWIDTH 9 0
BBX 7 13 1 0
BITMAP
0BE0
1EB8
2C28
2D24
2F80
7AF0
7474
7D74
1FE0
91F0
E0B0
BAE0
6F80
ENDCHAR
STARTCHAR dieresis
ENCODING 168
SWIDTH 600 0
DWIDTH 8 0
BBX 5 2 2 8
BITMAP
F380
E380
ENDCHAR
STARTCHAR copyright
ENCODING 169
SWIDTH 647 0
DWIDTH 9 0
BBX 9 9 1 5
BITMAP
0BE400
2EFD00
67E700
9A3340
9C0240
991340
7BEB00
2FFD00
0BE400
ENDCHAR
STARTCHAR ordfeminine
ENCODING 170
SWIDTH 393 0
DWIDTH 6 0
BBX 5 5 1 7
BITMAP
1F40
7AC0
B380
E780
BB80
ENDCHAR
STARTCHAR guillemotleft
ENCODING 171
SWIDTH 615 0
DWIDTH 9 0
BBX 8 6 0 1
BITMAP
070A
2E7E
B8B4
78B4
2E2D
070A
ENDCHAR
STARTCHAR logicalnot
ENCODING 172
SWIDTH 700 0
DWIDTH 10 0
BBX 8 5 1 0
BITMAP
6AA9
BFFE
000E
000E
000D
ENDCHAR
STARTCHAR uni00AD
ENCODING 173
SWIDTH 403 0
DWIDTH 6 0
BBX 4 3 1 3
BITMAP
05
FF
55
ENDCHAR
STARTCHAR registered
ENCODING 174
SWIDTH 647 0
DWIDTH 9 0
BBX 9 9 1 5
BITMAP
0BE400
2FED00
67E700
937340
93D240
97C340
756B00
2EBD00
0BE400
ENDCHAR
STARTCHAR macron
ENCODING 175
SWIDTH 600 0
DWIDTH 8 0
BBX 5 2 2 8
BITMAP
6A40
FF40
ENDCHAR
STARTCHAR degree
ENCODING 176
SWIDTH 385 0
DWIDTH 5 0
BBX 5 5 1 8
BITMAP
2E00
7B40
A280
7B40
2E00
ENDCHAR
STARTCHAR plusminus
ENCODING 177
SWIDTH 700 0
DWIDTH 10 0
BBX 8 9 1 0
BITMAP
0040
01C0
2BE8
3FFD
0280
0380
0140
6AA4
BFF8
ENDCHAR
STARTCHAR uni00B2
ENCODING 178
SWIDTH 450 0
DWIDTH 6 0
BBX 6 7 1 5
BITMAP
2F40
B6C0
92C0
0380
1E00
BD40
FFD0
ENDCHAR
STARTCHAR uni00B3
ENCODING 179
SWIDTH 450 0
DWIDTH 6 0
BBX 6 7 1 5
BITMAP
2F80
B6D0
52C0
0F40
46C0
E6C0
7F40
ENDCHAR
STARTCHAR acute
ENCODING 180
SWIDTH 600 0
DWIDTH 8 0
BBX 3 5 4 8
BITMAP
14
38
74
E0
80
ENDCHAR
STARTCHAR uni00B5
ENCODING 181
SWIDTH 462 0
DWIDTH 6 0
BBX 9 11 0 -4
BITMAP
2C7000
38B000
38E000
75E000
7BD340
7EFE00
BCB800
B00000
B00000
B00000
700000
ENDCHAR
STARTCHAR paragraph
ENCODING 182
SWIDTH 739 0
DWIDTH 10 0
BBX 9 13 1 0
BITMAP
0BFE40
3FFB80
7FE780
BFD780
7FDB40
1BCB40
03CB00
038F00
078E00
079E00
0B5E00
0B5D00
0B1D00
ENDCHAR
STARTCHAR periodcentered
ENCODING 183
SWIDTH 257 0
DWIDTH 4 0
BBX 4 3 0 2
BITMAP
28
7D
38
ENDCHAR
STARTCHAR cedilla
ENCODING 184
SWIDTH 600 0
DWIDTH 8 0
BBX 4 5 1 -4
BITMAP
24
7E
0A
AE
F8
ENDCHAR
STARTCHAR uni00B9
ENCODING 185
SWIDTH 450 0
DWIDTH 6 0
BBX 5 7 1 5
BITMAP
1B40
7B40
0B00
0B00
0E00
0E00
0D00
ENDCHAR
STARTCHAR ordmasculine
ENCODING 186
SWIDTH 408 0
DWIDTH 6 0
BBX 5 6 1 6
BITMAP
2F40
B780
A2C0
B280
7F40
0400
ENDCHAR
STARTCHAR guillemotright
ENCODING 187
SWIDTH 615 0
DWIDTH 9 0
BBX 8 6 0 1
BITMAP
3474
3D7D
0B5F
0B5F
3E7D
7464
ENDCHAR
STARTCHAR onequarter
ENCODING 188
SWIDTH 955 0
DWIDTH 13 0
BBX 12 12 1 0
BITMAP
1B4140
7B4380
0B0740
0B0E00
0E2D00
0E38B0
0DB0D9
01E2DD
02C39C
0347FF
00016C
000028
ENDCHAR
STARTCHAR onehalf
ENCODING 189
SWIDTH 1024 0
DWIDTH 14 0
BBX 13 12 1 0
BITMAP
1B414000
7B438000
0B074000
0B0E0000
0E2D0000
0E387E00
0DB1D740
01E1C780
02C00B00
03402D00
0001F940
0002FF80
ENDCHAR
STARTCHAR threequarters
ENCODING 190
SWIDTH 1035 0
DWIDTH 14 0
BBX 13 12 1 0
BITMAP
2F801000
B6D0B000
52C1D000
0F43C000
46C74000
E6DE1C00
7F6D3A40
0078B740
00B0E740
0090FFC0
00005B40
00000600
ENDCHAR
STARTCHAR questiondown
ENCODING 191
SWIDTH 476 0
DWIDTH 7 0
BBX 7 13 -1 -6
BITMAP
0074
00B8
0064
0000
00D0
01D0
0780
1F00
3D00
7834
B474
7EF0
2F90
ENDCHAR
STARTCHAR Agrave
ENCODING 192
SWIDTH 786 0
DWIDTH 11 0
BBX 13 17 0 0
BITMAP
00100000
00780000
002F0000
00028000
001BF900
00BFBE00
03E01000
0B80B400
1E00F000
2D00E000
3C01E000
3C02D000
7C03D000
3C07D040
3D0FD280
1FBAFB40
07E0BD00
ENDCHAR
STARTCHAR Aacute
ENCODING 193
SWIDTH 786 0
DWIDTH 11 0
BBX 13 17 0 0
BITMAP
00000500
00001F00
00007D00
0000D000
001BF900
00BFBE00
03E01000
0B80B400
1E00F000
2D00E000
3C01E000
3C02D000
7C03D000
3C07D040
3D0FD280
1FBAFB40
07E0BD00
ENDCHAR
STARTCHAR Acircumflex
ENCODING 194
SWIDTH 786 0
DWIDTH 11 0
BBX 13 17 0 0
BITMAP
0001E000
0003F400
000B7800
000E2800
001BF900
00BFBE00
03E01000
0B80B400
1E00F000
2D00E000
3C01E000
3C02D000
7C03D000
3C07D040
3D0FD280
1FBAFB40
07E0BD00
ENDCHAR
STARTCHAR Atilde
ENCODING 195
SWIDTH 786 0
DWIDTH 11 0
BBX 13 16 0 0
BITMAP
000B4A00
001FED00
00187800
001BF900
00BFBE00
03E01000
0B80B400
1E00F000
2D00E000
3C01E000
3C02D000
7C03D000
3C07D040
3D0FD280
1FBAFB40
07E0BD00
ENDCHAR
STARTCHAR Adieresis
ENCODING 196
SWIDTH 786 0
DWIDTH 11 0
BBX 13 15 0 0
BITMAP
000B3C00
000B2800
001BF900
00BFBE00
03E01000
0B80B400
1E00F000
2D00E000
3C01E000
3C02D000
7C03D000
3C07D040
3D0FD280
1FBAFB40
07E0BD00
ENDCHAR
STARTCHAR Aring
ENCODING 197
SWIDTH 786 0
DWIDTH 11 0
BBX 13 18 0 0
BITMAP
00009000
0003F400
00077400
0003B400
0002E000
001BF900
00BFBE00
03E01000
0B80B400
1E00F000
2D00E000
3C01E000
3C02D000
7C03D000
3C07D040
3D0FD280
1FBAFB40
07E0BD00
ENDCHAR
STARTCHAR AE
ENCODING 198
SWIDTH 1015 0
DWIDTH 14 0
BBX 16 13 0 0
BITMAP
001B5FFC
01FF7EA4
07E07800
0B80B400
1F00F400
2D00F000
3C01FFF0
3C02FAA0
7C03E000
3C07E000
3D0FF006
1FBCBEBE
07E42FE4
ENDCHAR
STARTCHAR Ccedilla
ENCODING 199
SWIDTH 686 0
DWIDTH 10 0
BBX 11 17 1 -4
BITMAP
01BD00
0BEF40
2E0380
7C0380
B40380
F00000
F00000
F00000
F00000
F40000
7D0064
2FABF0
07FE40
02E000
00B000
0AE000
0F8000
ENDCHAR
STARTCHAR Egrave
ENCODING 200
SWIDTH 686 0
DWIDTH 10 0
BBX 12 17 0 0
BITMAP
010000
03D000
01F400
002C00
01BF80
07EBE0
0F40F0
0F00F0
0F0090
07E400
0BF800
2E4000
780000
B80000
7C0019
2FAAFC
06FF90
ENDCHAR
STARTCHAR Eacute
ENCODING 201
SWIDTH 686 0
DWIDTH 10 0
BBX 12 17 0 0
BITMAP
000010
0000F4
0007D0
000A00
01BF80
07EBE0
0F40F0
0F00F0
0F0090
07E400
0BF800
2E4000
780000
B80000
7C0019
2FAAFC
06FF90
ENDCHAR
STARTCHAR Ecircumflex
ENCODING 202
SWIDTH 686 0
DWIDTH 10 0
BBX 12 17 0 0
BITMAP
000B00
002F80
0076C0
00A1C0
01BF80
07EBE0
0F40F0
0F00F0
0F0090
07E400
0BF800
2E4000
780000
B80000
7C0019
2FAAFC
06FF90
ENDCHAR
STARTCHAR Edieresis
ENCODING 203
SWIDTH 686 0
DWIDTH 10 0
BBX 12 15 0 0
BITMAP
00B6D0
00B6C0
01BF80
07EBE0
0F40F0
0F00F0
0F0090
07E400
0BF800
2E4000
780000
B80000
7C0019
2FAAFC
06FF90
ENDCHAR
STARTCHAR Igrave
ENCODING 204
SWIDTH 495 0
DWIDTH 7 0
BBX 8 17 0 0
BITMAP
1400
3D00
1F40
01C0
1FFE
1AE9
02D0
02D0
03C0
03C0
0780
0780
0740
0B40
0B40
6FA0
FFF0
ENDCHAR
STARTCHAR Iacute
ENCODING 205
SWIDTH 495 0
DWIDTH 7 0
BBX 9 17 0 0
BITMAP
000100
000B40
002E00
00A400
1FFE00
1AE900
02D000
02D000
03C000
03C000
078000
078000
074000
0B4000
0B4000
6FA000
FFF000
ENDCHAR
STARTCHAR Icircumflex
ENCODING 206
SWIDTH 495 0
DWIDTH 7 0
BBX 8 17 0 0
BITMAP
00B4
02F8
07AC
071C
1FFE
1AE9
02D0
02D0
03C0
03C0
0780
0780
0740
0B40
0B40
6FA0
FFF0
ENDCHAR
STARTCHAR Idieresis
ENCODING 207
SWIDTH 495 0
DWIDTH 7 0
BBX 8 15 0 0
BITMAP
075D
075D
1FFE
1AE9
02D0
02D0
03C0
03C0
0780
0780
0740
0B40
0B40
6FA0
FFF0
ENDCHAR
STARTCHAR Eth
ENCODING 208
SWIDTH 821 0
DWIDTH 12 0
BBX 12 13 0 0
BITMAP
01FE40
02EBE0
03C0F8
07807C
0B403C
6FA43D
BFFC3C
1E003C
1E0078
2D00F4
2D02E0
2EAF80
1FF900
ENDCHAR
STARTCHAR Ntilde
ENCODING 209
SWIDTH 884 0
DWIDTH 12 0
BBX 14 16 0 0
BITMAP
001E1C00
002FE800
0034B400
1B81F800
7BCBBD00
E2DC1E00
82E41E00
02F02D00
03E03D00
03D03C00
07C07800
07807800
0780B400
0B40B870
0B407EE0
0B001F80
ENDCHAR
STARTCHAR Ograve
ENCODING 210
SWIDTH 816 0
DWIDTH 11 0
BBX 10 17 1 0
BITMAP
050000
0F4000
07D000
007000
01BE00
0BEFC0
2E02E0
7C01F0
B400F0
F000F0
F000F0
F000F0
F001E0
F402D0
B80B80
3FBE00
0BE400
ENDCHAR
STARTCHAR Oacute
ENCODING 211
SWIDTH 816 0
DWIDTH 11 0
BBX 10 17 1 0
BITMAP
000040
0002D0
000B80
002900
01BE00
0BEFC0
2E02E0
7C01F0
B400F0
F000F0
F000F0
F000F0
F001E0
F402D0
B80B80
3FBE00
0BE400
ENDCHAR
STARTCHAR Ocircumflex
ENCODING 212
SWIDTH 816 0
DWIDTH 11 0
BBX 10 17 1 0
BITMAP
002D00
00BE00
01EB00
01C700
01BE00
0BEFC0
2E02E0
7C01F0
B400F0
F000F0
F000F0
F000F0
F001E0
F402D0
B80B80
3FBE00
0BE400
ENDCHAR
STARTCHAR Otilde
ENCODING 213
SWIDTH 816 0
DWIDTH 11 0
BBX 10 16 1 0
BITMAP
01E1C0
02FEC0
034B40
01BE00
0BEFC0
2E02E0
7C01F0
B400F0
F000F0
F000F0
F000F0
F001E0
F402D0
B80B80
3FBE00
0BE400
ENDCHAR
STARTCHAR Odieresis
ENCODING 214
SWIDTH 816 0
DWIDTH 11 0
BBX 10 15 1 0
BITMAP
01E740
01D740
01BE00
0BEFC0
2E02E0
7C01F0
B400F0
F000F0
F000F0
F000F0
F001E0
F402D0
B80B80
3FBE00
0BE400
ENDCHAR
STARTCHAR multiply
ENCODING 215
SWIDTH 700 0
DWIDTH 10 0
BBX 8 7 1 1
BITMAP
280D
2E3D
0FF4
07D0
1FE0
3DB8
7428
ENDCHAR
STARTCHAR Oslash
ENCODING 216
SWIDTH 816 0
DWIDTH 11 0
BBX 10 16 1 -2
BITMAP
000D00
01BE00
0BFFC0
2E2AE0
7C35F0
B474F0
F470F0
F0A0F0
F0E0F0
F1D1E0
F5C2D0
BACB80
3FEE00
0BE400
070000
010000
ENDCHAR
STARTCHAR Ugrave
ENCODING 217
SWIDTH 890 0
DWIDTH 12 0
BBX 15 17 0 0
BITMAP
00400000
01F40000
007D0000
000A0000
1B800D00
7BD01E00
E1E01E00
82D02D00
02D02D00
03C03C00
03C07C00
0780BC00
0B40F800
0B42B810
0B477874
0BFD3FE0
02F41F80
ENDCHAR
STARTCHAR Uacute
ENCODING 218
SWIDTH 890 0
DWIDTH 12 0
BBX 15 17 0 0
BITMAP
00000400
00007C00
0001F400
00028000
1B800D00
7BD01E00
E1E01E00
82D02D00
02D02D00
03C03C00
03C07C00
0780BC00
0B40F800
0B42B810
0B477874
0BFD3FE0
02F41F80
ENDCHAR
STARTCHAR Ucircumflex
ENCODING 219
SWIDTH 890 0
DWIDTH 12 0
BBX 15 17 0 0
BITMAP
0002C000
000BD000
001DA000
00286000
1B800D00
7BD01E00
E1E01E00
82D02D00
02D02D00
03C03C00
03C07C00
0780BC00
0B40F800
0B42B810
0B477874
0BFD3FE0
02F41F80
ENDCHAR
STARTCHAR Udieresis
ENCODING 220
SWIDTH 890 0
DWIDTH 12 0
BBX 15 15 0 0
BITMAP
002DB000
002CB000
1B800D00
7BD01E00
E1E01E00
82D02D00
02D02D00
03C03C00
03C07C00
0780BC00
0B40F800
0B42B810
0B477874
0BFD3FE0
02F41F80
ENDCHAR
STARTCHAR Yacute
ENCODING 221
SWIDTH 851 0
DWIDTH 12 0
BBX 14 22 0 -5
BITMAP
00000400
00002D00
0000F800
00028000
1B800E00
7BD01E00
E1E01E00
82D02D00
02D03D00
03C03C00
03C0BC00
0780FC00
0782B800
03EF7990
01F9BFD0
000BF900
007EB400
00F4B000
01D0E000
02D2D000
01FF4000
00690000
ENDCHAR
STARTCHAR Thorn
ENCODING 222
SWIDTH 776 0
DWIDTH 11 0
BBX 11 16 0 -2
BITMAP
002C00
003C00
003C00
007F90
03FEF4
0FB8B8
1DB47C
38B478
34F0B4
76FBE0
77FE40
75E000
75D000
3AD000
2FC000
0A4000
ENDCHAR
STARTCHAR germandbls
ENCODING 223
SWIDTH 596 0
DWIDTH 8 0
BBX 10 15 0 -3
BITMAP
01F900
0BAE00
0E0B00
2D0E00
3C7C00
38F000
39E000
78FA40
75EFF0
778B00
77EF00
75F900
740000
740000
740000
ENDCHAR
STARTCHAR agrave
ENCODING 224
SWIDTH 470 0
DWIDTH 7 0
BBX 9 13 0 0
BITMAP
040000
0E0000
0B0000
034000
018000
000000
079000
1FF000
3CB000
74E000
75E240
7BFE00
2E7800
ENDCHAR
STARTCHAR aacute
ENCODING 225
SWIDTH 470 0
DWIDTH 7 0
BBX 9 13 0 0
BITMAP
001400
003C00
007400
00A000
00C000
000000
079000
1FF000
3CB000
74E000
75E240
7BFE00
2E7800
ENDCHAR
STARTCHAR acircumflex
ENCODING 226
SWIDTH 470 0
DWIDTH 7 0
BBX 9 13 0 0
BITMAP
00A000
02F000
077400
0B3800
0D2400
000000
079000
1FF000
3CB000
74E000
75E240
7BFE00
2E7800
ENDCHAR
STARTCHAR atilde
ENCODING 227
SWIDTH 470 0
DWIDTH 7 0
BBX 9 11 0 0
BITMAP
050500
0FDD00
18B800
000000
079000
1FF000
3CB000
74E000
75E240
7BFE00
2E7800
ENDCHAR
STARTCHAR adieresis
ENCODING 228
SWIDTH 470 0
DWIDTH 7 0
BBX 9 10 0 0
BITMAP
0F3C00
0A3800
000000
079000
1FF000
3CB000
74E000
75E240
7BFE00
2E7800
ENDCHAR
STARTCHAR aring
ENCODING 229
SWIDTH 470 0
DWIDTH 7 0
BBX 9 13 0 0
BITMAP
019000
03F400
073400
07B400
02E000
000000
079000
1FF000
3CB000
74E000
75E240
7BFE00
2E7800
ENDCHAR
STARTCHAR ae
ENCODING 230
SWIDTH 653 0
DWIDTH 9 0
BBX 11 7 0 0
BITMAP
06EF40
1FBFC0
38B2C0
74FB44
75F92C
7BFEF4
2E2F90
ENDCHAR
STARTCHAR ccedilla
ENCODING 231
SWIDTH 368 0
DWIDTH 5 0
BBX 7 11 0 -4
BITMAP
0B80
2EC0
79C0
7440
B408
7878
2FE0
1B80
0280
2B80
3E00
ENDCHAR
STARTCHAR egrave
ENCODING 232
SWIDTH 393 0
DWIDTH 6 0
BBX 8 13 0 0
BITMAP
1400
2C00
1D00
0B00
0200
0000
0B80
3ED0
75D0
7B80
791D
3EB8
1BD0
ENDCHAR
STARTCHAR eacute
ENCODING 233
SWIDTH 393 0
DWIDTH 6 0
BBX 8 13 0 0
BITMAP
0010
00B4
00E0
01C0
0240
0000
0B80
3ED0
75D0
7B80
791D
3EB8
1BD0
ENDCHAR
STARTCHAR ecircumflex
ENCODING 234
SWIDTH 393 0
DWIDTH 6 0
BBX 8 13 0 0
BITMAP
02C0
07D0
0AA0
1DB0
2870
0000
0B80
3ED0
75D0
7B80
791D
3EB8
1BD0
ENDCHAR
STARTCHAR edieresis
ENCODING 235
SWIDTH 393 0
DWIDTH 6 0
BBX 8 10 0 0
BITMAP
1DB4
1D70
0000
0B80
3ED0
75D0
7B80
791D
3EB8
1BD0
ENDCHAR
STARTCHAR igrave
ENCODING 236
SWIDTH 246 0
DWIDTH 3 0
BBX 6 13 0 0
BITMAP
4000
E000
B000
3800
1800
0000
2C00
3800
3800
7400
74D0
7F80
2E00
ENDCHAR
STARTCHAR iacute
ENCODING 237
SWIDTH 246 0
DWIDTH 3 0
BBX 6 13 0 0
BITMAP
0140
03C0
0740
0A00
0C00
0000
2C00
3800
3800
7400
74D0
7F80
2E00
ENDCHAR
STARTCHAR icircumflex
ENCODING 238
SWIDTH 246 0
DWIDTH 3 0
BBX 6 13 0 0
BITMAP
0A00
2F00
3740
B380
D280
0000
2C00
3800
3800
7400
74D0
7F80
2E00
ENDCHAR
STARTCHAR idieresis
ENCODING 239
SWIDTH 246 0
DWIDTH 3 0
BBX 6 10 0 0
BITMAP
F3C0
A280
0000
2C00
3800
3800
7400
74D0
7F80
2E00
ENDCHAR
STARTCHAR eth
ENCODING 240
SWIDTH 451 0
DWIDTH 6 0
BBX 8 14 0 0
BITMAP
0A00
075D
02F8
0BE0
0EE0
00B0
0074
0BF4
3EF4
7474
74B0
74E0
7ED0
1F40
ENDCHAR
STARTCHAR ntilde
ENCODING 241
SWIDTH 496 0
DWIDTH 7 0
BBX 9 11 0 0
BITMAP
010500
0FDD00
1C7800
000000
2CB400
3AF400
3BB400
7DB040
7CB280
78BB40
347900
ENDCHAR
STARTCHAR ograve
ENCODING 242
SWIDTH 451 0
DWIDTH 6 0
BBX 8 13 0 0
BITMAP
1400
2C00
1D00
0B00
0200
0000
0B80
3EE0
75FA
74BE
74A0
7ED0
1F40
ENDCHAR
STARTCHAR oacute
ENCODING 243
SWIDTH 451 0
DWIDTH 6 0
BBX 8 13 0 0
BITMAP
0010
00B4
00E0
01C0
0240
0000
0B80
3EE0
75FA
74BE
74A0
7ED0
1F40
ENDCHAR
STARTCHAR ocircumflex
ENCODING 244
SWIDTH 451 0
DWIDTH 6 0
BBX 8 13 0 0
BITMAP
02C0
07D0
0AA0
1DB0
2870
0000
0B80
3EE0
75FA
74BE
74A0
7ED0
1F40
ENDCHAR
STARTCHAR otilde
ENCODING 245
SWIDTH 451 0
DWIDTH 6 0
BBX 8 11 0 0
BITMAP
0504
2FA8
35B0
0000
0B80
3EE0
75FA
74BE
74A0
7ED0
1F40
ENDCHAR
STARTCHAR odieresis
ENCODING 246
SWIDTH 451 0
DWIDTH 6 0
BBX 8 10 0 0
BITMAP
2DB4
1DB0
0000
0B80
3EE0
75FA
74BE
74A0
7ED0
1F40
ENDCHAR
STARTCHAR divide
ENCODING 247
SWIDTH 700 0
DWIDTH 10 0
BBX 8 8 1 0
BITMAP
02D0
02C0
0000
BFFE
6AA9
0000
0780
0740
ENDCHAR
STARTCHAR oslash
ENCODING 248
SWIDTH 459 0
DWIDTH 6 0
BBX 9 11 0 -2
BITMAP
018000
018000
0BD000
3FF000
77B600
777F40
7AB400
7FE000
1F8000
090000
0C0000
ENDCHAR
STARTCHAR ugrave
ENCODING 249
SWIDTH 462 0
DWIDTH 6 0
BBX 9 13 0 0
BITMAP
040000
1D0000
0F0000
074000
018000
000000
1C7000
38B000
38E000
75E000
7BD340
7EFE00
2CB800
ENDCHAR
STARTCHAR uacute
ENCODING 250
SWIDTH 462 0
DWIDTH 6 0
BBX 9 13 0 0
BITMAP
001400
003800
00B400
00D000
018000
000000
1C7000
38B000
38E000
75E000
7BD340
7EFE00
2CB800
ENDCHAR
STARTCHAR ucircumflex
ENCODING 251
SWIDTH 462 0
DWIDTH 6 0
BBX 9 13 0 0
BITMAP
01E000
02F000
077000
0E7400
0D3400
000000
1C7000
38B000
38E000
75E000
7BD340
7EFE00
2CB800
ENDCHAR
STARTCHAR udieresis
ENCODING 252
SWIDTH 462 0
DWIDTH 6 0
BBX 9 10 0 0
BITMAP
0E3800
0E3400
000000
1C7000
38B000
38E000
75E000
7BD340
7EFE00
2CB800
ENDCHAR
STARTCHAR yacute
ENCODING 253
SWIDTH 479 0
DWIDTH 7 0
BBX 9 20 0 -7
BITMAP
001400
003800
00B400
00D000
018000
000000
1C7000
38B000
38F000
75E100
7BE740
7FFD00
2DF400
07C000
1FC000
378000
A34000
DB0000
EE0000
B80000
ENDCHAR
STARTCHAR thorn
ENCODING 254
SWIDTH 508 0
DWIDTH 7 0
BBX 9 17 0 -5
BITMAP
0E0000
1E0000
1D0000
2C0000
2C0000
39F000
3BB800
7D7800
7C7440
78B1C0
7AFB40
BEBD00
B00000
B00000
B00000
B00000
B00000
ENDCHAR
STARTCHAR ydieresis
ENCODING 255
SWIDTH 479 0
DWIDTH 7 0
BBX 9 17 0 -7
BITMAP
0E3800
0E3400
000000
1C7000
38B000
38F000
75E100
7BE740
7FFD00
2DF400
07C000
1FC000
378000
A34000
DB0000
EE0000
B80000
ENDCHAR
STARTCHAR Amacron
ENCODING 256
SWIDTH 786 0
DWIDTH 11 0
BBX 13 15 0 0
BITMAP
0006A400
000BF400
001BF900
00BFBE00
03E01000
0B80B400
1E00F000
2D00E000
3C01E000
3C02D000
7C03D000
3C07D040
3D0FD280
1FBAFB40
07E0BD00
ENDCHAR
STARTCHAR amacron
ENCODING 257
SWIDTH 470 0
DWIDTH 7 0
BBX 9 10 0 0
BITMAP
06A400
0BF400
000000
079000
1FF000
3CB000
74E000
75E240
7BFE00
2E7800
ENDCHAR
STARTCHAR Abreve
ENCODING 258
SWIDTH 786 0
DWIDTH 11 0
BBX 13 16 0 0
BITMAP
001D0900
000FBD00
0007E400
001BF900
00BFBE00
03E01000
0B80B400
1E00F000
2D00E000
3C01E000
3C02D000
7C03D000
3C07D040
3D0FD280
1FBAFB40
07E0BD00
ENDCHAR
STARTCHAR abreve
ENCODING 259
SWIDTH 470 0
DWIDTH 7 0
BBX 9 12 0 0
BITMAP
040400
1D1D00
0FBC00
07E400
000000
079000
1FF000
3CB000
74E000
75E240
7BFE00
2E7800
ENDCHAR
STARTCHAR Aogonek
ENCODING 260
SWIDTH 786 0
DWIDTH 11 0
BBX 13 17 0 -4
BITMAP
001BF900
00BEAE00
03E05000
0B40B400
1E00F000
2D01E000
3C01E000
3C02D000
7C03D000
3C07D040
3D0FD180
1FBAFB40
07E0B800
0000A000
0000E000
0000BE00
00001400
ENDCHAR
STARTCHAR aogonek
ENCODING 261
SWIDTH 470 0
DWIDTH 7 0
BBX 9 11 0 -4
BITMAP
079000
1FF000
3CB000
74E000
75E240
7BFE00
2EB800
01D000
01D000
01FC00
001000
ENDCHAR
STARTCHAR Cacute
ENCODING 262
SWIDTH 686 0
DWIDTH 10 0
BBX 11 17 1 0
BITMAP
000040
0002D0
000F80
002900
01BD00
0BEF40
2E0380
7C0380
B40380
F00000
F00000
F00000
F00000
B40000
7D0064
2FABF0
06FE40
ENDCHAR
STARTCHAR cacute
ENCODING 263
SWIDTH 368 0
DWIDTH 5 0
BBX 7 13 0 0
BITMAP
0010
00B4
00E0
01C0
0240
0000
0B80
2EC0
79C0
B404
741C
7EF4
1F90
ENDCHAR
STARTCHAR Ccircumflex
ENCODING 264
SWIDTH 686 0
DWIDTH 10 0
BBX 11 17 1 0
BITMAP
002D00
00BE00
01EB00
01C700
01BD00
0BEF40
2E0380
7C0380
B40380
F00000
F00000
F00000
F00000
B40000
7D0064
2FABF0
06FE40
ENDCHAR
STARTCHAR ccircumflex
ENCODING 265
SWIDTH 368 0
DWIDTH 5 0
BBX 7 13 0 0
BITMAP
02C0
07D0
0AA0
1DB0
2860
0000
0B80
2EC0
79C0
B404
741C
7EF4
1F90
ENDCHAR
STARTCHAR Cdotaccent
ENCODING 266
SWIDTH 686 0
DWIDTH 10 0
BBX 11 15 1 0
BITMAP
003C00
003800
01BD00
0BEF40
2E0380
7C0380
B40380
F00000
F00000
F00000
F00000
B40000
7D0064
2FABF0
06FE40
ENDCHAR
STARTCHAR cdotaccent
ENCODING 267
SWIDTH 368 0
DWIDTH 5 0
BBX 7 10 0 0
BITMAP
07C0
0780
0000
0B80
2EC0
79C0
B404
741C
7EF4
1F90
ENDCHAR
STARTCHAR Ccaron
ENCODING 268
SWIDTH 686 0
DWIDTH 10 0
BBX 11 17 1 0
BITMAP
004140
00D740
00BE00
003800
01BD00
0BEF40
2E0380
7C0380
B40380
F00000
F00000
F00000
F00000
B40000
7D0064
2FABF0
06FE40
ENDCHAR
STARTCHAR ccaron
ENCODING 269
SWIDTH 368 0
DWIDTH 5 0
BBX 7 13 0 0
BITMAP
0D28
0E74
0AA0
0BD0
0780
0000
0B80
2EC0
79C0
B404
741C
7EF4
1F90
ENDCHAR
STARTCHAR Dcaron
ENCODING 270
SWIDTH 836 0
DWIDTH 12 0
BBX 12 17 0 0
BITMAP
005040
00B280
003B40
002D00
06FE40
2FABF0
7800B8
02803C
07802D
07402D
0B402D
0F003D
0F007C
1E00B8
1E02F0
1FAF80
1BF900
ENDCHAR
STARTCHAR dcaron
ENCODING 271
SWIDTH 470 0
DWIDTH 7 0
BBX 10 13 0 0
BITMAP
001DD0
002DC0
003D80
003800
003800
007400
07F400
1FF000
3CB000
74E000
75E240
7BFE00
2E7800
ENDCHAR
STARTCHAR Dcroat
ENCODING 272
SWIDTH 821 0
DWIDTH 12 0
BBX 12 13 0 0
BITMAP
01FE40
02EBE0
03C0F8
07807C
0B403C
6FA43D
BFFC3C
1E003C
1E0078
2D00F4
2D02E0
2EAF80
1FF900
ENDCHAR
STARTCHAR dcroat
ENCODING 273
SWIDTH 470 0
DWIDTH 7 0
BBX 9 13 0 0
BITMAP
001C00
002C00
003C00
0BFE00
06B800
007400
07F400
1FF000
3CB000
74E000
75E240
7BFE00
2E7800
ENDCHAR
STARTCHAR Emacron
ENCODING 274
SWIDTH 686 0
DWIDTH 10 0
BBX 12 15 0 0
BITMAP
006A40
007F80
01BF80
07EBE0
0F40F0
0F00F0
0F0090
07E400
0BF800
2E4000
780000
B80000
7C0019
2FAAFC
06FF90
ENDCHAR
STARTCHAR emacron
ENCODING 275
SWIDTH 393 0
DWIDTH 6 0
BBX 8 10 0 0
BITMAP
0A90
1FE0
0000
0B80
3ED0
75D0
7B80
791D
3EB8
1BD0
ENDCHAR
STARTCHAR Ebreve
ENCODING 276
SWIDTH 686 0
DWIDTH 10 0
BBX 12 16 0 0
BITMAP
00D0A0
00FAD0
006F40
01BF80
07EBE0
0F40F0
0F00F0
0F0090
07E400
0BF800
2E4000
780000
B80000
7C0019
2FAAFC
06FF90
ENDCHAR
STARTCHAR ebreve
ENCODING 277
SWIDTH 393 0
DWIDTH 6 0
BBX 8 12 0 0
BITMAP
1004
3828
2EB4
0BD0
0000
0B80
3ED0
75D0
7B80
791D
3EB8
1BD0
ENDCHAR
STARTCHAR Edotaccent
ENCODING 278
SWIDTH 686 0
DWIDTH 10 0
BBX 12 15 0 0
BITMAP
001F00
001E00
01BF80
07EBE0
0F40F0
0F00F0
0F0090
07E400
0BF800
2E4000
780000
B80000
7C0019
2FAAFC
06FF90
ENDCHAR
STARTCHAR edotaccent
ENCODING 279
SWIDTH 393 0
DWIDTH 6 0
BBX 8 10 0 0
BITMAP
07C0
0780
0000
0B80
3ED0
75D0
7B80
791D
3EB8
1BD0
ENDCHAR
STARTCHAR Eogonek
ENCODING 280
SWIDTH 686 0
DWIDTH 10 0
BBX 12 17 0 -4
BITMAP
01BF80
07EBE0
0F40F0
0F00F0
0F0090
07E400
0BF800
2E4000
780000
B80000
7C0019
2FAAFD
06FFA0
003800
007400
007A40
002F40
ENDCHAR
STARTCHAR eogonek
ENCODING 281
SWIDTH 393 0
DWIDTH 6 0
BBX 8 12 0 -5
BITMAP
0B80
2ED0
74D0
76C0
7E09
786C
2FF4
0B40
0A00
0A00
07E0
0040
ENDCHAR
STARTCHAR Ecaron
ENCODING 282
SWIDTH 686 0
DWIDTH 10 0
BBX 12 17 0 0
BITMAP
001040
0075D0
002B40
001E00
01BF80
07EBE0
0F40F0
0F00F0
0F0090
07E400
0BF800
2E4000
780000
B80000
7C0019
2FAAFC
06FF90
ENDCHAR
STARTCHAR ecaron
ENCODING 283
SWIDTH 393 0
DWIDTH 6 0
BBX 8 13 0 0
BITMAP
0928
0E74
0AA0
07D0
0380
0000
0B80
3ED0
75D0
7B80
791D
3EB8
1BD0
ENDCHAR
STARTCHAR Gcircumflex
ENCODING 284
SWIDTH 811 0
DWIDTH 11 0
BBX 12 24 1 -7
BITMAP
002D00
007F00
00E740
01D340
01BE00
0BEB80
2E02C0
7C02D0
B402C0
F00000
F00000
F00A90
F01FE0
B401D0
7C01DA
2FABFD
06FBE0
000780
001F80
007740
00D700
01CE00
01ED00
00B400
ENDCHAR
STARTCHAR gcircumflex
ENCODING 285
SWIDTH 479 0
DWIDTH 7 0
BBX 9 20 0 -7
BITMAP
00A000
02F000
077400
0B3800
0D2400
000000
079000
1FF000
3CB000
74E000
75E740
7BFE00
2EF400
07C000
1FC000
3B8000
A34000
DB0000
EE0000
780000
ENDCHAR
STARTCHAR Gbreve
ENCODING 286
SWIDTH 811 0
DWIDTH 11 0
BBX 12 23 1 -7
BITMAP
0281C0
01EBC0
00BE00
01BE00
0BEB80
2E02C0
7C02D0
B402C0
F00000
F00000
F00A90
F01FE0
B401D0
7C01DA
2FABFD
06FBE0
000780
001F80
007740
00D700
01CE00
01ED00
00B400
ENDCHAR
STARTCHAR gbreve
ENCODING 287
SWIDTH 479 0
DWIDTH 7 0
BBX 9 19 0 -7
BITMAP
040400
1D1D00
0FBC00
07E400
000000
079000
1FF000
3CB000
74E000
75E740
7BFE00
2EF400
07C000
1FC000
3B8000
A34000
DB0000
EE0000
780000
ENDCHAR
STARTCHAR Gdotaccent
ENCODING 288
SWIDTH 811 0
DWIDTH 11 0
BBX 12 22 1 -7
BITMAP
003D00
003D00
01BE00
0BEB80
2E02C0
7C02D0
B402C0
F00000
F00000
F00A90
F01FE0
B401D0
7C01DA
2FABFD
06FBE0
000780
001F80
007740
00D700
01CE00
01ED00
00B400
ENDCHAR
STARTCHAR gdotaccent
ENCODING 289
SWIDTH 479 0
DWIDTH 7 0
BBX 9 17 0 -7
BITMAP
02E000
02D000
000000
079000
1FF000
3CB000
74E000
75E740
7BFE00
2EF400
07C000
1FC000
3B8000
A34000
DB0000
EE0000
780000
ENDCHAR
STARTCHAR uni0122
ENCODING 290
SWIDTH 811 0
DWIDTH 11 0
BBX 12 20 1 -7
BITMAP
01BE00
0BEB80
2E02C0
7C02D0
B402C0
F00000
F00000
F00A90
F01FE0
B401D0
7C01DA
2FABFD
06FBE0
000780
0D1F80
0D7740
0CD700
01CE00
01ED00
00B400
ENDCHAR
STARTCHAR uni0123
ENCODING 291
SWIDTH 479 0
DWIDTH 7 0
BBX 9 19 0 -7
BITMAP
00D000
00E000
00D000
00C000
000000
079000
1FF000
3CB000
74E000
75E740
7BFE00
2EF400
07C000
1FC000
3B8000
A34000
DB0000
EE0000
780000
ENDCHAR
STARTCHAR Hcircumflex
ENCODING 292
SWIDTH 873 0
DWIDTH 12 0
BBX 14 17 0 0
BITMAP
00078000
000FD000
001DE000
0028A240
1B800FC0
7BD02DD0
D1D038D0
81D075C0
02D0B680
02D0BF00
1BEAF800
2FFEE000
0780E000
0780E000
0B40F070
0F00BEE0
0A002F40
ENDCHAR
STARTCHAR hcircumflex
ENCODING 293
SWIDTH 502 0
DWIDTH 7 0
BBX 9 19 0 0
BITMAP
00B000
02F800
076C00
0A1C00
000000
02D000
07F000
0A7000
1D6000
1C9000
2DC000
3B4000
3EB400
3AF400
7BB400
7E7040
7CB180
7CBB40
347D00
ENDCHAR
STARTCHAR Hbar
ENCODING 294
SWIDTH 856 0
DWIDTH 12 0
BBX 11 13 1 0
BITMAP
0E00B0
1E00B4
6FAAF8
BFFFFC
2D00E0
2D01E0
FFFFF8
BEABE4
7802D0
7803C0
7803C0
B40780
740380
ENDCHAR
STARTCHAR hbar
ENCODING 295
SWIDTH 502 0
DWIDTH 7 0
BBX 9 13 0 0
BITMAP
070000
0B0000
0F0000
3FF000
2E9000
2D0000
2CB400
39F400
3BB400
3E7040
7CB180
7CBB40
347D00
ENDCHAR
STARTCHAR Itilde
ENCODING 296
SWIDTH 495 0
DWIDTH 7 0
BBX 8 16 0 0
BITMAP
0787
0BFA
0D2D
1FFE
1AE9
02D0
02D0
03C0
03C0
0780
0780
0740
0B40
0B40
6FA0
FFF0
ENDCHAR
STARTCHAR itilde
ENCODING 297
SWIDTH 246 0
DWIDTH 3 0
BBX 7 11 -1 0
BITMAP
0414
3F74
61E0
0000
0B00
0E00
0E00
1D00
1D34
1FE0
0B80
ENDCHAR
STARTCHAR Imacron
ENCODING 298
SWIDTH 495 0
DWIDTH 7 0
BBX 8 15 0 0
BITMAP
02A8
07FC
1FFE
1AE9
02D0
02D0
03C0
03C0
0780
0780
0740
0B40
0B40
6FA0
FFF0
ENDCHAR
STARTCHAR imacron
ENCODING 299
SWIDTH 246 0
DWIDTH 3 0
BBX 6 10 0 0
BITMAP
6A40
BF40
0000
2C00
3800
3800
7400
74D0
7F80
2E00
ENDCHAR
STARTCHAR Ibreve
ENCODING 300
SWIDTH 495 0
DWIDTH 7 0
BBX 8 16 0 0
BITMAP
0A06
0BAE
02F8
1FFE
1AE9
02D0
02D0
03C0
03C0
0780
0780
0740
0B40
0B40
6FA0
FFF0
ENDCHAR
STARTCHAR ibreve
ENCODING 301
SWIDTH 246 0
DWIDTH 3 0
BBX 7 12 -1 0
BITMAP
1010
7474
3EF0
1B90
0000
0B00
0E00
0E00
1D00
1D34
1FE0
0B80
ENDCHAR
STARTCHAR Iogonek
ENCODING 302
SWIDTH 495 0
DWIDTH 7 0
BBX 8 17 0 -4
BITMAP
1FFE
1AE9
02D0
02D0
03C0
03C0
0780
0780
0740
0B40
0B40
6FA0
FFF0
1D00
2C00
1E80
0B80
ENDCHAR
STARTCHAR iogonek
ENCODING 303
SWIDTH 246 0
DWIDTH 3 0
BBX 5 14 0 -4
BITMAP
2E00
2D00
0000
2C00
3800
3800
7440
75C0
3F40
3D00
7000
B000
7F00
0400
ENDCHAR
STARTCHAR Idotaccent
ENCODING 304
SWIDTH 495 0
DWIDTH 7 0
BBX 8 15 0 0
BITMAP
00F0
00F0
1FFE
1AE9
02D0
02D0
03C0
03C0
0780
0780
0740
0B40
0B40
6FA0
FFF0
ENDCHAR
STARTCHAR dotlessi
ENCODING 305
SWIDTH 246 0
DWIDTH 3 0
BBX 6 7 0 0
BITMAP
2C00
3800
3800
7400
74D0
7F80
2E00
ENDCHAR
STARTCHAR Jcircumflex
ENCODING 308
SWIDTH 743 0
DWIDTH 10 0
BBX 10 18 1 -1
BITMAP
007800
00FC00
02DD00
034A00
0AFF90
7EABE0
F003C0
E00780
B00780
100740
006F40
02FF00
0B8F00
1E1E00
2C2D00
3C3800
2EF400
0B9000
ENDCHAR
STARTCHAR jcircumflex
ENCODING 309
SWIDTH 254 0
DWIDTH 4 0
BBX 8 20 -3 -7
BITMAP
0028
00BC
00DD
02CE
034A
0000
00B0
00F0
00E0
00E0
01D7
01FD
01F4
07C0
1F80
3780
A740
DB00
ED00
B800
ENDCHAR
STARTCHAR uni0136
ENCODING 310
SWIDTH 937 0
DWIDTH 13 0
BBX 15 17 0 -4
BITMAP
06FE01D0
1FAF42D0
3C1E03C0
382D0B80
382D0F00
182D3D00
007EF400
00FFD000
0039F000
0078B804
B0B47D1C
7EF02FB4
1F800BD0
00000000
000A0000
000E0000
00090000
ENDCHAR
STARTCHAR uni0137
ENCODING 311
SWIDTH 525 0
DWIDTH 7 0
BBX 9 19 0 -5
BITMAP
02D000
07F000
0A7000
1D6000
1C9000
2DC000
3B4000
3EB800
3AFC00
7B2C00
7EB840
7DE1C0
78FB80
347E00
000000
070000
0B0000
0A0000
090000
ENDCHAR
STARTCHAR kgreenlandic
ENCODING 312
SWIDTH 465 0
DWIDTH 7 0
BBX 9 7 0 0
BITMAP
2CB800
3AEC00
3B5C00
7F4000
7F4340
7BEE00
35B800
ENDCHAR
STARTCHAR Lacute
ENCODING 313
SWIDTH 673 0
DWIDTH 9 0
BBX 13 17 -1 0
BITMAP
00000500
00002E00
0000B900
0001D000
001BE000
007EBC00
00F42D00
01E02D00
02D02C00
02D00000
02D00000
03C00000
03C00000
03C00000
2FE40340
BFFFAE00
7E1BF800
ENDCHAR
STARTCHAR lacute
ENCODING 314
SWIDTH 326 0
DWIDTH 5 0
BBX 9 19 0 0
BITMAP
000100
000F40
007E00
00A000
000000
02D000
07F000
0E7000
1D7000
2CA000
2CD000
39C000
3A8000
3B4000
7E0000
7C0000
383400
2EE000
1F8000
ENDCHAR
STARTCHAR uni013B
ENCODING 315
SWIDTH 673 0
DWIDTH 9 0
BBX 13 17 -1 -4
BITMAP
001BE000
007EBC00
00F42D00
01E02D00
02D02C00
02D00000
02D00000
03C00000
03C00000
03C00000
2FE40340
BFFFAE00
7E1BF800
00000000
00700000
00700000
00600000
ENDCHAR
STARTCHAR uni013C
ENCODING 316
SWIDTH 326 0
DWIDTH 5 0
BBX 7 19 0 -5
BITMAP
02D0
07F0
0E70
1D70
2CA0
2CD0
39C0
3A80
3B40
7E00
7C00
3834
2EE0
1F80
0000
1C00
1D00
1C00
1800
ENDCHAR
STARTCHAR Lcaron
ENCODING 317
SWIDTH 673 0
DWIDTH 9 0
BBX 14 13 -1 0
BITMAP
001BE000
007EBC00
00F42DD0
01E02DD0
02D02D80
02D00000
02D00000
03C00000
03C00000
03C00000
2FE40340
BFFFAE00
7E1BF800
ENDCHAR
STARTCHAR lcaron
ENCODING 318
SWIDTH 237 0
DWIDTH 3 0
BBX 6 13 0 0
BITMAP
0BB0
0FB0
1E90
1D00
2D00
2C00
3C00
3800
7800
7440
75C0
7B80
2E00
ENDCHAR
STARTCHAR Ldot
ENCODING 319
SWIDTH 673 0
DWIDTH 9 0
BBX 13 13 -1 0
BITMAP
001BE000
007EBC00
00F42D00
01E02D00
02D02C00
02D00000
02D7C000
03C78000
03C00000
03C00000
2FE40340
BFFFAE00
7E1BF800
ENDCHAR
STARTCHAR ldot
ENCODING 320
SWIDTH 363 0
DWIDTH 5 0
BBX 7 14 0 0
BITMAP
0740
0B40
0F00
0E00
1E00
2D00
2DD0
3EE0
3840
7800
7804
781C
3EB4
1B90
ENDCHAR
STARTCHAR Lslash
ENCODING 321
SWIDTH 673 0
DWIDTH 9 0
BBX 13 15 -1 0
BITMAP
001BFD00
007AA900
001BE000
007EBC00
00F42D00
01E02D00
02D02C00
02D00000
02D00000
03C00000
03C00000
03C00000
2FE40340
BFFFAE00
7E1BF800
ENDCHAR
STARTCHAR lslash
ENCODING 322
SWIDTH 326 0
DWIDTH 5 0
BBX 8 15 0 0
BITMAP
06BE
0FAA
02D0
0BF0
0E70
1D70
2CA0
38D0
39C0
7B40
7E00
3C00
3834
2EE0
0F80
ENDCHAR
STARTCHAR Nacute
ENCODING 323
SWIDTH 884 0
DWIDTH 12 0
BBX 14 17 0 0
BITMAP
00000400
00002D00
0000F800
00029000
1B81F800
7BCBBD00
E2DC1E00
82E41E00
02F02D00
03E03D00
03D03C00
07C07800
07807800
0780B400
0B40B870
0B407EE0
0B001F80
ENDCHAR
STARTCHAR nacute
ENCODING 324
SWIDTH 496 0
DWIDTH 7 0
BBX 9 13 0 0
BITMAP
001400
003C00
007400
00A000
00C000
000000
2CB400
3AF400
3BB400
7DB040
7CB280
78BB40
347900
ENDCHAR
STARTCHAR uni0145
ENCODING 325
SWIDTH 884 0
DWIDTH 12 0
BBX 14 17 0 -4
BITMAP
1B81F800
7BCBBD00
E2DC1E00
82E41E00
02F02D00
03E03D00
03D03C00
07C07800
07807800
0780B400
0B40B870
0B407EE0
0B001F80
00000000
00280000
00380000
00340000
ENDCHAR
STARTCHAR uni0146
ENCODING 326
SWIDTH 496 0
DWIDTH 7 0
BBX 9 12 0 -5
BITMAP
2CB400
3AF400
3BB400
7DB040
7CB280
78BB40
347900
000000
070000
0B0000
0A0000
090000
ENDCHAR
STARTCHAR Ncaron
ENCODING 327
SWIDTH 884 0
DWIDTH 12 0
BBX 14 17 0 0
BITMAP
00041400
000D7400
000BE000
00038000
1B81F800
7BCBBD00
E2DC1E00
82E41E00
02F02D00
03E03D00
03D03C00
07C07800
07807800
0780B400
0B40B870
0B407EE0
0B001F80
ENDCHAR
STARTCHAR ncaron
ENCODING 328
SWIDTH 496 0
DWIDTH 7 0
BBX 9 13 0 0
BITMAP
070D00
076C00
037400
02F000
01D000
000000
2CB400
3AF400
3BB400
7DB040
7CB280
78BB40
347900
ENDCHAR
STARTCHAR napostrophe
ENCODING 329
SWIDTH 496 0
DWIDTH 7 0
BBX 9 12 0 0
BITMAP
A00000
E00000
D00000
C00000
000000
2CB400
3AF400
3BB400
7DB040
7CB280
78BB40
347900
ENDCHAR
STARTCHAR Eng
ENCODING 330
SWIDTH 884 0
DWIDTH 12 0
BBX 14 18 0 -5
BITMAP
1B81F800
7BCBBD00
E2DC2E00
82E42D00
02F02D00
03E03C00
03D03C00
07C07800
07807800
0780B400
0B40F030
0B40FEE0
0701FF80
0002D000
0002C000
06078000
07EF0000
01F80000
ENDCHAR
STARTCHAR eng
ENCODING 331
SWIDTH 495 0
DWIDTH 7 0
BBX 9 12 0 -5
BITMAP
2CB400
3AF400
3BB400
7DB040
7CB280
78FB40
34F900
01C000
02C000
538000
B70000
7D0000
ENDCHAR
STARTCHAR Omacron
ENCODING 332
SWIDTH 816 0
DWIDTH 11 0
BBX 10 15 1 0
BITMAP
00AA00
01FF00
01BE00
0BEFC0
2E02E0
7C01F0
B400F0
F000F0
F000F0
F000F0
F001E0
F402D0
B80B80
3FBE00
0BE400
ENDCHAR
STARTCHAR omacron
ENCODING 333
SWIDTH 451 0
DWIDTH 6 0
BBX 8 10 0 0
BITMAP
1A90
1FE0
0000
0B80
3EE0
75FA
74BE
74A0
7ED0
1F40
ENDCHAR
STARTCHAR Obreve
ENCODING 334
SWIDTH 816 0
DWIDTH 11 0
BBX 10 16 1 0
BITMAP
028180
02EB80
00BE00
01BE00
0BEFC0
2E02E0
7C01F0
B400F0
F000F0
F000F0
F000F0
F001E0
F402D0
B80B80
3FBE00
0BE400
ENDCHAR
STARTCHAR obreve
ENCODING 335
SWIDTH 451 0
DWIDTH 6 0
BBX 8 12 0 0
BITMAP
1014
3838
2EB4
0BD0
0000
0B80
3EE0
75FA
74BE
74A0
7ED0
1F40
ENDCHAR
STARTCHAR Ohungarumlaut
ENCODING 336
SWIDTH 816 0
DWIDTH 11 0
BBX 10 17 1 0
BITMAP
001140
007780
00A740
009600
01BE00
0BEFC0
2E02E0
7C01F0
B400F0
F000F0
F000F0
F000F0
F001E0
F402D0
B80B80
3FBE00
0BE400
ENDCHAR
STARTCHAR ohungarumlaut
ENCODING 337
SWIDTH 451 0
DWIDTH 6 0
BBX 8 13 0 0
BITMAP
0104
07AC
0B78
0A70
0C60
0000
0B80
3EE0
75FA
74BE
74A0
7ED0
1F40
ENDCHAR
STARTCHAR OE
ENCODING 338
SWIDTH 1124 0
DWIDTH 16 0
BBX 17 13 1 0
BITMAP
01BE0BFE00
0BEFEEA900
2E02FC0000
7C01FC0000
B400F80000
F400F80000
F000FFF800
F000FAA400
F001F00000
F402F00000
B80BF40140
3FBE7EAF40
0BF41BF900
ENDCHAR
STARTCHAR oe
ENCODING 339
SWIDTH 668 0
DWIDTH 9 0
BBX 11 7 0 0
BITMAP
0B8B80
3EFED0
74B5C0
74BB84
74F91C
7EFEF8
1F5F90
ENDCHAR
STARTCHAR Racute
ENCODING 340
SWIDTH 880 0
DWIDTH 12 0
BBX 14 17 0 0
BITMAP
00001400
00007C00
0002F400
00034000
006FE000
02FAF800
0B407D00
1D2C2D00
2C383C00
3878B800
35BAE000
75FF8000
74B7D000
34F1E010
38F0F470
1EE07EE0
0BD02F40
ENDCHAR
STARTCHAR racute
ENCODING 341
SWIDTH 455 0
DWIDTH 6 0
BBX 9 13 0 0
BITMAP
001400
007800
00B400
00D000
018000
000000
2CB400
3AF400
3BB500
7E7F40
7C3D00
780000
340000
ENDCHAR
STARTCHAR uni0156
ENCODING 342
SWIDTH 880 0
DWIDTH 12 0
BBX 14 17 0 -4
BITMAP
006FE000
02FAF800
0B407D00
1D2C2D00
2C383C00
3878B800
35BAE000
75FF8000
74B7D000
34F1E010
38F0F470
1EE07EE0
0BD02F40
00000000
000A0000
000E0000
000D0000
ENDCHAR
STARTCHAR uni0157
ENCODING 343
SWIDTH 455 0
DWIDTH 6 0
BBX 9 12 0 -5
BITMAP
2CB400
3AF400
3BB500
7E7F40
7C3D00
780000
340000
000000
740000
740000
700000
600000
ENDCHAR
STARTCHAR Rcaron
ENCODING 344
SWIDTH 880 0
DWIDTH 12 0
BBX 14 17 0 0
BITMAP
00141000
002CA000
000EC000
000B4000
006FE000
02FAF800
0B407D00
1D2C2D00
2C383C00
3878B800
35BAE000
75FF8000
74B7D000
34F1E010
38F0F470
1EE07EE0
0BD02F40
ENDCHAR
STARTCHAR rcaron
ENCODING 345
SWIDTH 455 0
DWIDTH 6 0
BBX 9 13 0 0
BITMAP
061C00
0B3800
077400
03E000
02C000
000000
2CB400
3AF400
3BB500
7E7F40
7C3D00
780000
340000
ENDCHAR
STARTCHAR Sacute
ENCODING 346
SWIDTH 693 0
DWIDTH 10 0
BBX 10 17 0 0
BITMAP
000050
0002E0
000B80
001900
01BE40
0BEBD0
1E01E0
1D00E0
1E0090
0FD000
06FD00
006F80
2007C0
7402C0
7403C0
3EAF40
0BF900
ENDCHAR
STARTCHAR sacute
ENCODING 347
SWIDTH 427 0
DWIDTH 6 0
BBX 8 13 0 0
BITMAP
0010
00B4
00E0
01C0
0240
0000
0740
0B00
1F40
2BC1
B2DA
DFFD
0BF4
ENDCHAR
STARTCHAR Scircumflex
ENCODING 348
SWIDTH 693 0
DWIDTH 10 0
BBX 10 17 0 0
BITMAP
002D00
007F00
00E740
01D340
01BE40
0BEBD0
1E01E0
1D00E0
1E0090
0FD000
06FD00
006F80
2007C0
7402C0
7403C0
3EAF40
0BF900
ENDCHAR
STARTCHAR scircumflex
ENCODING 349
SWIDTH 427 0
DWIDTH 6 0
BBX 8 13 0 0
BITMAP
02C0
07D0
0AA0
1DB0
2870
0000
0740
0B00
1F40
2BC1
B2DA
DFFD
0BF4
ENDCHAR
STARTCHAR Scedilla
ENCODING 350
SWIDTH 693 0
DWIDTH 10 0
BBX 10 17 0 -4
BITMAP
01BE40
0BEBD0
1E01E0
1D00E0
1F0090
0FE000
06FE00
006F80
2007C0
7402C0
7403C0
2EAF40
07F400
007000
007000
0BE000
064000
ENDCHAR
STARTCHAR scedilla
ENCODING 351
SWIDTH 427 0
DWIDTH 6 0
BBX 8 12 0 -5
BITMAP
0740
0B00
1F00
2F80
77D6
E2ED
4FF4
1F80
0280
0680
3F40
1400
ENDCHAR
STARTCHAR Scaron
ENCODING 352
SWIDTH 693 0
DWIDTH 10 0
BBX 10 17 0 0
BITMAP
004140
00A380
007B00
002D00
01BE40
0BEBD0
1E01E0
1D00E0
1E0090
0FD000
06FD00
006F80
2007C0
7402C0
7403C0
3EAF40
0BF900
ENDCHAR
STARTCHAR scaron
ENCODING 353
SWIDTH 427 0
DWIDTH 6 0
BBX 8 13 0 0
BITMAP
0D28
0E74
0AA0
07D0
0380
0000
0740
0B00
1F40
2BC1
B2DA
DFFD
0BF4
ENDCHAR
STARTCHAR uni0162
ENCODING 354
SWIDTH 697 0
DWIDTH 10 0
BBX 13 17 0 -4
BITMAP
06BFFF40
2FAFAA40
741E0000
742D0000
342D0000
003C0000
003C0000
00780000
00780000
00B40000
00B40000
01F00000
01F40000
00280000
00380000
07F40000
02900000
ENDCHAR
STARTCHAR uni0163
ENCODING 355
SWIDTH 393 0
DWIDTH 6 0
BBX 8 17 0 -4
BITMAP
01E0
03F0
0B70
0E70
1DD0
1E80
FFF4
BE90
2C00
2C00
2D0D
1EBC
0FE0
0B80
01C0
2B80
3E00
ENDCHAR
STARTCHAR Tcaron
ENCODING 356
SWIDTH 697 0
DWIDTH 10 0
BBX 13 17 0 0
BITMAP
00141000
0028E000
001EC000
000B4000
06BFFF40
2FAFAA40
741E0000
742D0000
742D0000
103C0000
003C0000
00780000
00780000
00B80000
00B40000
00B40000
00B00000
ENDCHAR
STARTCHAR tcaron
ENCODING 357
SWIDTH 343 0
DWIDTH 5 0
BBX 7 13 0 0
BITMAP
0034
0574
0B70
0E00
1E00
6E90
BFD0
2C00
3C00
3804
3C28
2EF0
0B80
ENDCHAR
STARTCHAR Tbar
ENCODING 358
SWIDTH 697 0
DWIDTH 10 0
BBX 13 13 0 0
BITMAP
06BFFF40
2FAFAA40
781E0000
742D0000
742D0000
203C0000
07FFD000
06BE8000
00780000
00780000
00B40000
00B40000
00B00000
ENDCHAR
STARTCHAR tbar
ENCODING 359
SWIDTH 343 0
DWIDTH 5 0
BBX 7 12 0 0
BITMAP
0500
0B00
0E00
1E00
6E90
BFD0
2C00
FFC0
BE40
3828
2EB0
1B80
ENDCHAR
STARTCHAR Utilde
ENCODING 360
SWIDTH 890 0
DWIDTH 12 0
BBX 15 16 0 0
BITMAP
001E1800
003FB800
0071E000
1B800D00
7BD01E00
E1E01E00
82D02D00
02D02D00
03C03C00
03C07C00
0780BC00
0B40F800
0B42B810
0B477874
0BFD3FE0
02F41F80
ENDCHAR
STARTCHAR utilde
ENCODING 361
SWIDTH 462 0
DWIDTH 6 0
BBX 9 11 0 0
BITMAP
050400
1F9D00
28B400
000000
1C7000
38B000
38E000
75E000
7BD340
7EFE00
2CB800
ENDCHAR
STARTCHAR Umacron
ENCODING 362
SWIDTH 890 0
DWIDTH 12 0
BBX 15 15 0 0
BITMAP
001A9000
002FE000
1B800D00
7BD01E00
E1E01E00
82D02D00
02D02D00
03C03C00
03C07C00
0780BC00
0B40F800
0B42B810
0B477874
0BFD3FE0
02F41F80
ENDCHAR
STARTCHAR umacron
ENCODING 363
SWIDTH 462 0
DWIDTH 6 0
BBX 9 10 0 0
BITMAP
0AA000
0FF400
000000
1C7000
38B000
38E000
75E000
7BD340
7EFE00
2CB800
ENDCHAR
STARTCHAR Ubreve
ENCODING 364
SWIDTH 890 0
DWIDTH 12 0
BBX 15 16 0 0
BITMAP
00342800
003EB400
001BD000
1B800D00
7BD01E00
E1E01E00
82D02D00
02D02D00
03C03C00
03C07C00
0780BC00
0B40F800
0B42B810
0B477874
0BFD3FE0
02F41F80
ENDCHAR
STARTCHAR ubreve
ENCODING 365
SWIDTH 462 0
DWIDTH 6 0
BBX 9 12 0 0
BITMAP
040400
2C1C00
1FB800
07E000
000000
1C7000
38B000
38E000
75E000
7BD340
7EFE00
2CB800
ENDCHAR
STARTCHAR Uring
ENCODING 366
SWIDTH 890 0
DWIDTH 12 0
BBX 15 18 0 0
BITMAP
00024000
000BD000
000DA000
000EE000
00078000
1B800D00
7BD01E00
E1E01E00
82D02D00
02D02D00
03C03C00
03C07C00
0780BC00
0B40F800
0B42B810
0B477874
0BFD3FE0
02F41F80
ENDCHAR
STARTCHAR uring
ENCODING 367
SWIDTH 462 0
DWIDTH 6 0
BBX 9 13 0 0
BITMAP
019000
07F000
077400
07B000
02D000
000000
1C7000
38B000
38E000
75E000
7BD340
7EFE00
2CB800
ENDCHAR
STARTCHAR Uhungarumlaut
ENCODING 368
SWIDTH 890 0
DWIDTH 12 0
BBX 15 17 0 0
BITMAP
00011000
000B3400
000E7000
000C9000
1B800D00
7BD01E00
E1E01E00
82D02D00
02D02D00
03C03C00
03C07C00
0780BC00
0B40F800
0B42B810
0B477874
0BFD3FE0
02F41F80
ENDCHAR
STARTCHAR uhungarumlaut
ENCODING 369
SWIDTH 462 0
DWIDTH 6 0
BBX 9 13 0 0
BITMAP
014400
02DD00
03AC00
073800
093000
000000
1C7000
38B000
38E000
75E000
7BD340
7EFE00
2CB800
ENDCHAR
STARTCHAR Uogonek
ENCODING 370
SWIDTH 890 0
DWIDTH 12 0
BBX 15 17 0 -4
BITMAP
1B800D00
7BD01E00
A1E01E00
82D02D00
02D02D00
03C03C00
03C07C00
0780BC00
0B80F800
0B41B800
0B477834
0BED7EE0
02F42F40
00000D00
00001D00
00000FD0
00000140
ENDCHAR
STARTCHAR uogonek
ENCODING 371
SWIDTH 462 0
DWIDTH 6 0
BBX 9 11 0 -4
BITMAP
1C7000
38B000
38E000
75E000
7BD340
7EFE00
2CB400
01C000
02C000
01FC00
001000
ENDCHAR
STARTCHAR Wcircumflex
ENCODING 372
SWIDTH 1217 0
DWIDTH 17 0
BBX 18 17 1 0
BITMAP
0000B40000
0001F80000
00039C0000
00070D0000
2C00D02E00
3C01E0BB40
3C02D0D740
7C03D0D740
7803D0EB40
7807D0BF00
780BD03FA0
780FD02FF0
781ED03800
3C2DD0B400
3D74E1E000
1FE0BF8000
0B807E0000
ENDCHAR
STARTCHAR wcircumflex
ENCODING 373
SWIDTH 700 0
DWIDTH 10 0
BBX 12 13 0 0
BITMAP
002800
00BC00
01DD00
02CE00
034900
000000
74A1D0
74F2E0
75F2EA
76F3FD
3BBB00
3E7E00
2D3800
ENDCHAR
STARTCHAR Ycircumflex
ENCODING 374
SWIDTH 851 0
DWIDTH 12 0
BBX 14 22 0 -5
BITMAP
0002D000
000BE000
001DB000
00287000
1B800E00
7BD01E00
E1E01E00
82D02D00
02D03D00
03C03C00
03C0BC00
0780FC00
0782B800
03EF7990
01F9BFD0
000BF900
007EB400
00F4B000
01D0E000
02D2D000
01FF4000
00690000
ENDCHAR
STARTCHAR ycircumflex
ENCODING 375
SWIDTH 479 0
DWIDTH 7 0
BBX 9 20 0 -7
BITMAP
01E000
02F000
077000
0E7400
0D3400
000000
1C7000
38B000
38F000
75E100
7BE740
7FFD00
2DF400
07C000
1FC000
378000
A34000
DB0000
EE0000
B80000
ENDCHAR
STARTCHAR Ydieresis
ENCODING 376
SWIDTH 851 0
DWIDTH 12 0
BBX 14 20 0 -5
BITMAP
001DB400
001D7400
1B800E00
7BD01E00
E1E01E00
82D02D00
02D03D00
03C03C00
03C0BC00
0780FC00
0782B800
03EF7990
01F9BFD0
000BF900
007EB400
00F4B000
01D0E000
02D2D000
01FF4000
00690000
ENDCHAR
STARTCHAR Zacute
ENCODING 377
SWIDTH 721 0
DWIDTH 10 0
BBX 12 17 0 0
BITMAP
000050
0001F0
0007D0
000D00
06FFA4
1FAAF8
3801F0
3803D0
380780
140F40
002E00
007C00
00F400
02E001
6FE407
BFFFAD
7D1BE4
ENDCHAR
STARTCHAR zacute
ENCODING 378
SWIDTH 445 0
DWIDTH 6 0
BBX 7 13 1 0
BITMAP
0040
01E0
02C0
0340
0600
0000
FFE0
AFD0
2E00
B404
F02C
FAF4
6F90
ENDCHAR
STARTCHAR Zdotaccent
ENCODING 379
SWIDTH 721 0
DWIDTH 10 0
BBX 12 15 0 0
BITMAP
002E00
002D00
06FFA4
1FAAF8
3801F0
3803D0
380780
140F40
002E00
007C00
00F400
02E001
6FE407
BFFFAD
7D1BE4
ENDCHAR
STARTCHAR zdotaccent
ENCODING 380
SWIDTH 445 0
DWIDTH 6 0
BBX 7 10 1 0
BITMAP
0F40
0F00
0000
FFE0
AFD0
2E00
B404
F02C
FAF4
6F90
ENDCHAR
STARTCHAR Zcaron
ENCODING 381
SWIDTH 721 0
DWIDTH 10 0
BBX 12 17 0 0
BITMAP
005040
0072C0
003B40
001D00
06FFA4
1FAAF8
3801F0
3803D0
380780
140F40
002E00
007C00
00F400
02E001
6FE407
BFFFAD
7D1BE4
ENDCHAR
STARTCHAR zcaron
ENCODING 382
SWIDTH 445 0
DWIDTH 6 0
BBX 7 13 1 0
BITMAP
2870
2CE0
1DC0
0F80
0A00
0000
FFE0
AFD0
2E00
B404
F02C
FAF4
6F90
ENDCHAR
STARTCHAR uni018F
ENCODING 399
SWIDTH 792 0
DWIDTH 11 0
BBX 10 13 1 0
BITMAP
06F900
2FAF80
3807D0
1002E0
0001E0
0001E0
6AAAE0
FFFFE0
F002D0
F003C0
B80B40
3EBE00
0BE400
ENDCHAR
STARTCHAR florin
ENCODING 402
SWIDTH 478 0
DWIDTH 7 0
BBX 9 16 -1 -4
BITMAP
001A00
007F40
00F400
00E000
01E000
1FFF00
1AE900
02D000
02C000
02C000
03C000
038000
038000
078000
6F4000
BD0000
ENDCHAR
STARTCHAR Ohorn
ENCODING 416
SWIDTH 816 0
DWIDTH 11 0
BBX 11 15 1 0
BITMAP
00001C
00003C
01BFF4
0BEFE0
2E02E0
7C01F0
B400F0
F000F0
F000F0
F000F0
F001E0
F402D0
B80B80
3FBE00
0BE400
ENDCHAR
STARTCHAR ohorn
ENCODING 417
SWIDTH 451 0
DWIDTH 6 0
BBX 8 9 0 0
BITMAP
001C
002C
0BF4
3EE0
75FA
74BE
74A0
7ED0
1F40
ENDCHAR
STARTCHAR Uhorn
ENCODING 431
SWIDTH 890 0
DWIDTH 12 0
BBX 15 15 0 0
BITMAP
000000A0
000001E0
1B800FD0
7BD01F80
E1E01E00
82D02D00
02D02D00
03C03C00
03C07C00
0780BC00
0B40F800
0B42B810
0B477874
0BFD3FE0
02F41F80
ENDCHAR
STARTCHAR uhorn
ENCODING 432
SWIDTH 512 0
DWIDTH 7 0
BBX 9 9 0 0
BITMAP
000600
000A00
1C7D00
38B400
38E000
75E040
7BD1C0
7EFB40
2CB900
ENDCHAR
STARTCHAR uni01C4
ENCODING 452
SWIDTH 1531 0
DWIDTH 21 0
BBX 23 17 1 0
BITMAP
000000010400
000000035D00
00000002B800
00000000E000
0BF9002BFE40
2EAF81FAAFC0
0007D2D00F40
1D01E2C02E00
2D00F2C03C00
3C00F040B800
3C00F001F000
7801F003D000
7802E00B8000
B403D01F4000
B41F82FF4034
BABE07FFFAE0
BFA403E1BF80
ENDCHAR
STARTCHAR uni01C5
ENCODING 453
SWIDTH 1191 0
DWIDTH 17 0
BBX 17 13 1 0
BITMAP
0BF900D280
2EAF80E740
0007D0AA00
1D01E07D00
2D00F03800
3C00F00000
3C00F7FF00
7801F2BE00
7802E0B400
B403D2D000
B41F8B4000
BABE0FA900
BFA40FFF00
ENDCHAR
STARTCHAR uni01C6
ENCODING 454
SWIDTH 895 0
DWIDTH 13 0
BBX 15 13 0 0
BITMAP
001C71D0
002C76C0
003C3B40
00383E00
00381D00
00740000
07F6FF80
1FF2AF80
3CB07900
74E1E010
75E3D074
7FFFFBE0
2E78BE40
ENDCHAR
STARTCHAR uni01C7
ENCODING 455
SWIDTH 1276 0
DWIDTH 18 0
BBX 19 15 -1 -2
BITMAP
001BD01BE8
007EF4BAFC
00F479D0B4
01E07AC0B4
02D075D0B0
02D00080F0
02D00001F0
03C0001FE0
03C000B9D0
03C001D2D0
2FE40383C0
BFFFAF4740
7E1BFF8F00
000003FD00
000001A000
ENDCHAR
STARTCHAR uni01C8
ENCODING 456
SWIDTH 927 0
DWIDTH 13 0
BBX 16 20 -1 -7
BITMAP
001BE000
007EB800
00F42D00
01E02EE0
02D02EE0
02D00400
02D001D0
03C001D0
03C002C0
03C002C0
2FE403CD
BFFFAFF8
7E1BFBD0
00000B40
00002F40
0000AB00
0001CE00
00029D00
0002FC00
0001F400
ENDCHAR
STARTCHAR uni01C9
ENCODING 457
SWIDTH 610 0
DWIDTH 9 0
BBX 10 21 0 -7
BITMAP
02D000
07F000
0E7000
1D7000
2CAB40
2CDF40
39C000
3A8A00
3B4E00
7E0E00
7C1E10
383DB0
2EFFD0
1FAE00
007C00
01F800
037800
0A7400
0DB000
0ED000
0B8000
ENDCHAR
STARTCHAR uni01CA
ENCODING 458
SWIDTH 1497 0
DWIDTH 21 0
BBX 21 15 0 -2
BITMAP
1B81F806FF80
7BCBBD2FAB80
E2DC1E780B40
42E41E740B40
02F02D740B40
03E03D100F00
03D03C002F00
07C07801FE00
0780780B9D00
0780B41D2D00
0B40B8782C00
0B407EF47800
0B001FB8B000
0000003FD000
0000000A4000
ENDCHAR
STARTCHAR uni01CB
ENCODING 459
SWIDTH 1138 0
DWIDTH 16 0
BBX 18 20 0 -7
BITMAP
0B81F80000
3BC7BD0000
A2DC1E0000
C2E41E1E00
02E02D2E00
03E03D0000
03D03C1D00
07C0782D00
0780782C00
0780B42C00
0B40B839D0
0B407EFF80
0B001FBD00
000000B400
000002F400
00000AB000
00001CE000
000029D000
00002F8000
00001E0000
ENDCHAR
STARTCHAR uni01CC
ENCODING 460
SWIDTH 750 0
DWIDTH 11 0
BBX 12 17 0 -7
BITMAP
0000B4
0000F4
000000
2CB4A0
3AF4E0
3BB4E0
7DB1E1
7CB2DB
78BBFD
347AE0
0007C0
001F80
007740
00A740
00DB00
01ED00
00B800
ENDCHAR
STARTCHAR Gcaron
ENCODING 486
SWIDTH 811 0
DWIDTH 11 0
BBX 12 24 1 -7
BITMAP
004140
00A380
007B00
002D00
01BE00
0BEB80
2E02C0
7C02D0
B402C0
F00000
F00000
F00A90
F01FE0
B401D0
7C01DA
2FABFD
06FBE0
000780
001F80
007740
00D700
01CE00
01ED00
00B400
ENDCHAR
STARTCHAR gcaron
ENCODING 487
SWIDTH 479 0
DWIDTH 7 0
BBX 9 20 0 -7
BITMAP
070D00
076C00
037400
03F000
01D000
000000
079000
1FF000
3CB000
74E000
75E740
7BFE00
2EF400
07C000
1FC000
3B8000
A34000
DB0000
EE0000
780000
ENDCHAR
STARTCHAR uni01EA
ENCODING 490
SWIDTH 816 0
DWIDTH 11 0
BBX 10 17 1 -4
BITMAP
01BE00
0BEFC0
2E02E0
7800F0
B400F0
F000F0
F000F0
F001F0
F002E0
B407C0
7D5F40
2FFD00
06E000
01C000
02D000
01FC00
001000
ENDCHAR
STARTCHAR uni01EB
ENCODING 491
SWIDTH 451 0
DWIDTH 6 0
BBX 8 11 0 -4
BITMAP
0B80
3EE0
75F1
74FF
74B9
39D0
1F80
0D00
1D00
0FD0
0140
ENDCHAR
STARTCHAR Aringacute
ENCODING 506
SWIDTH 786 0
DWIDTH 11 0
BBX 14 20 0 0
BITMAP
00000040
000001E0
0001E780
0003B400
00073400
0003F400
00019000
001BF900
00BFBE00
03E01000
0B80B400
1E00F000
2D00E000
3C01E000
3C02D000
7C03D000
3C07D040
3D0FD280
1FBAFB40
07E0BD00
ENDCHAR
STARTCHAR aringacute
ENCODING 507
SWIDTH 470 0
DWIDTH 7 0
BBX 9 14 0 0
BITMAP
000040
0192C0
03F500
073400
07B400
02E000
000000
079000
1FF000
3CB000
74E000
75E240
7BFE00
2E7800
ENDCHAR
STARTCHAR AEacute
ENCODING 508
SWIDTH 1015 0
DWIDTH 14 0
BBX 16 17 0 0
BITMAP
00000040
000002E0
00000B80
00001900
001B5FFC
01FF7EA4
07E07800
0B80B400
1F00F400
2D00F000
3C01FFF0
3C02FAA0
7C03E000
3C07E000
3D0FF006
1FBCBEBE
07E42FE4
ENDCHAR
STARTCHAR aeacute
ENCODING 509
SWIDTH 653 0
DWIDTH 9 0
BBX 11 13 0 0
BITMAP
000140
000780
000B40
000D00
001800
000000
06EF40
1FBFC0
38B2C0
74FB44
75F92C
7BFEF4
2E2F90
ENDCHAR
STARTCHAR Oslashacute
ENCODING 510
SWIDTH 816 0
DWIDTH 11 0
BBX 10 19 1 -2
BITMAP
000100
001F40
007D00
00AD00
01BE00
0BFFC0
2E2AE0
7C35F0
B474F0
F470F0
F0A0F0
F0E0F0
F1D1E0
F5C2D0
BACB80
3FEE00
0BE400
070000
010000
ENDCHAR
STARTCHAR oslashacute
ENCODING 511
SWIDTH 459 0
DWIDTH 6 0
BBX 9 15 0 -2
BITMAP
014000
03C000
078000
0A0000
0D8000
018000
0BD000
3FF000
77B600
777F40
7AB400
7FE000
1F8000
090000
0C0000
ENDCHAR
STARTCHAR uni0200
ENCODING 512
SWIDTH 786 0
DWIDTH 11 0
BBX 13 17 0 0
BITMAP
00045000
001DE000
000DB000
00063000
001BF900
00BFBE00
03E01000
0B80B400
1E00F000
2D00E000
3C01E000
3C02D000
7C03D000
3C07D040
3D0FD280
1FBAFB40
07E0BD00
ENDCHAR
STARTCHAR uni0201
ENCODING 513
SWIDTH 470 0
DWIDTH 7 0
BBX 9 13 0 0
BITMAP
144000
39D000
2DE000
0DB000
053000
000000
079000
1FF000
3CB000
74E000
75E240
7BFE00
2E7800
ENDCHAR
STARTCHAR uni0202
ENCODING 514
SWIDTH 786 0
DWIDTH 11 0
BBX 13 16 0 0
BITMAP
00019000
000BFC00
001E1D00
001FFD00
00BFBE00
03E01000
0B80B400
1E00F000
2D00E000
3C01E000
3C02D000
7C03D000
3C07D040
3D0FD280
1FBAFB40
07E0BD00
ENDCHAR
STARTCHAR uni0203
ENCODING 515
SWIDTH 470 0
DWIDTH 7 0
BBX 9 12 0 0
BITMAP
019000
0BF800
1E2D00
1C0D00
000000
079000
1FF000
3CB000
74E000
75E240
7BFE00
2E7800
ENDCHAR
STARTCHAR uni0204
ENCODING 516
SWIDTH 686 0
DWIDTH 10 0
BBX 12 17 0 0
BITMAP
004500
01DB00
00A740
006240
01BF80
07EBE0
0F40F0
0F00F0
0F0090
07E400
0BF800
2E4000
780000
B80000
7C0019
2FAAFC
06FF90
ENDCHAR
STARTCHAR uni0205
ENCODING 517
SWIDTH 393 0
DWIDTH 6 0
BBX 8 13 0 0
BITMAP
1100
B780
76C0
28D0
0C90
0000
0B80
3ED0
75D0
7B80
791D
3EB8
1BD0
ENDCHAR
STARTCHAR uni0206
ENCODING 518
SWIDTH 686 0
DWIDTH 10 0
BBX 12 16 0 0
BITMAP
001A40
007FD0
00E1E0
01FF90
07EBE0
0F40F0
0F00F0
0F0090
07E400
0BF800
2E4000
780000
B80000
7C0019
2FAAFC
06FF90
ENDCHAR
STARTCHAR uni0207
ENCODING 519
SWIDTH 393 0
DWIDTH 6 0
BBX 8 12 0 0
BITMAP
0690
1FF4
2C78
2428
0000
0B80
3ED0
75D0
7B80
791D
3EB8
1BD0
ENDCHAR
STARTCHAR uni0208
ENCODING 520
SWIDTH 495 0
DWIDTH 7 0
BBX 8 17 0 0
BITMAP
0410
0E74
0B34
0318
1FFE
1AE9
02D0
02D0
03C0
03C0
0780
0780
0740
0B40
0B40
6FA0
FFF0
ENDCHAR
STARTCHAR uni0209
ENCODING 521
SWIDTH 246 0
DWIDTH 3 0
BBX 7 13 -1 0
BITMAP
5100
E740
B780
35C0
18C0
0000
0B00
0E00
0E00
1D00
1D34
1FE0
0B80
ENDCHAR
STARTCHAR uni020A
ENCODING 522
SWIDTH 495 0
DWIDTH 7 0
BBX 8 16 0 0
BITMAP
00A4
07FE
0B0B
1FFF
1AE9
02D0
02D0
03C0
03C0
0780
0780
0740
0B40
0B40
6FA0
FFF0
ENDCHAR
STARTCHAR uni020B
ENCODING 523
SWIDTH 246 0
DWIDTH 3 0
BBX 7 12 -1 0
BITMAP
0640
2FE0
78B4
7034
0000
0B00
0E00
0E00
1D00
1D34
1FE0
0B80
ENDCHAR
STARTCHAR uni020C
ENCODING 524
SWIDTH 816 0
DWIDTH 11 0
BBX 10 17 1 0
BITMAP
010400
039D00
02CD00
00C600
01BE00
0BEFC0
2E02E0
7C01F0
B400F0
F000F0
F000F0
F000F0
F001E0
F402D0
B80B80
3FBE00
0BE400
ENDCHAR
STARTCHAR uni020D
ENCODING 525
SWIDTH 451 0
DWIDTH 6 0
BBX 8 13 0 0
BITMAP
1100
B780
76C0
29D0
0890
0000
0B80
3EE0
75FA
74BE
74A0
7ED0
1F40
ENDCHAR
STARTCHAR uni020E
ENCODING 526
SWIDTH 816 0
DWIDTH 11 0
BBX 10 16 1 0
BITMAP
002900
01FF80
02D2C0
02FE40
0BEFC0
2E02E0
7C01F0
B400F0
F000F0
F000F0
F000F0
F001E0
F402D0
B80B80
3FBE00
0BE400
ENDCHAR
STARTCHAR uni020F
ENCODING 527
SWIDTH 451 0
DWIDTH 6 0
BBX 8 12 0 0
BITMAP
0690
1FF4
3C78
3428
0000
0B80
3EE0
75FA
74BE
74A0
7ED0
1F40
ENDCHAR
STARTCHAR uni0210
ENCODING 528
SWIDTH 880 0
DWIDTH 12 0
BBX 14 17 0 0
BITMAP
00110000
00B38000
0076C000
0024C000
006FE000
02FAF800
0B407D00
1D2C2D00
2C383C00
3878B800
35BAE000
75FF8000
74B7D000
34F1E010
38F0F470
1EE07EE0
0BD02F40
ENDCHAR
STARTCHAR uni0211
ENCODING 529
SWIDTH 455 0
DWIDTH 6 0
BBX 9 13 0 0
BITMAP
114000
7AC000
3DD000
1CA000
096000
000000
2CB400
3AF400
3BB500
7E7F40
7C3D00
780000
340000
ENDCHAR
STARTCHAR uni0212
ENCODING 530
SWIDTH 880 0
DWIDTH 12 0
BBX 14 16 0 0
BITMAP
00064000
002FF000
00747400
007FF000
02FAF800
0B407D00
1D2C2D00
2C383C00
3878B800
35BAE000
75FF8000
74B7D000
34F1E010
38F0F470
1EE07EE0
0BD02F40
ENDCHAR
STARTCHAR uni0213
ENCODING 531
SWIDTH 455 0
DWIDTH 6 0
BBX 9 12 0 0
BITMAP
019000
0BF800
1D2C00
181C00
000000
2CB400
3AF400
3BB500
7E7F40
7C3D00
780000
340000
ENDCHAR
STARTCHAR uni0214
ENCODING 532
SWIDTH 890 0
DWIDTH 12 0
BBX 15 17 0 0
BITMAP
00114000
0076C000
0039D000
00189000
1B800D00
7BD01E00
E1E01E00
82D02D00
02D02D00
03C03C00
03C07C00
0780BC00
0B40F800
0B42B810
0B477874
0BFD3FE0
02F41F80
ENDCHAR
STARTCHAR uni0215
ENCODING 533
SWIDTH 462 0
DWIDTH 6 0
BBX 9 13 0 0
BITMAP
114000
7AC000
2DD000
1CA000
096000
000000
1C7000
38B000
38E000
75E000
7BD340
7EFE00
2CB800
ENDCHAR
STARTCHAR uni0216
ENCODING 534
SWIDTH 890 0
DWIDTH 12 0
BBX 15 16 0 0
BITMAP
00069000
002FF400
00387800
1B901D00
7BD01E00
E1E01E00
82D02D00
02D02D00
03C03C00
03C07C00
0780BC00
0B40F800
0B42B810
0B477874
0BFD3FE0
02F41F80
ENDCHAR
STARTCHAR uni0217
ENCODING 535
SWIDTH 462 0
DWIDTH 6 0
BBX 9 12 0 0
BITMAP
019000
0BF800
1D2C00
181C00
000000
1C7000
38B000
38E000
75E000
7BD340
7EFE00
2CB800
ENDCHAR
STARTCHAR uni0218
ENCODING 536
SWIDTH 693 0
DWIDTH 10 0
BBX 10 17 0 -4
BITMAP
01BE40
0BEBD0
1E01E0
1D00E0
1E0090
0FD000
06FD00
006F80
2007C0
7402C0
7403C0
3EAF40
0BF900
000000
01C000
01C000
018000
ENDCHAR
STARTCHAR uni0219
ENCODING 537
SWIDTH 427 0
DWIDTH 6 0
BBX 8 12 0 -5
BITMAP
0740
0B00
1F40
2BC1
B2DA
DFFD
0BF4
0000
0A00
0B00
0A00
0900
ENDCHAR
STARTCHAR uni021A
ENCODING 538
SWIDTH 697 0
DWIDTH 10 0
BBX 13 17 0 -4
BITMAP
06BFFF40
2FAFAA40
741E0000
742D0000
742D0000
103C0000
003C0000
00780000
00780000
00B80000
00B40000
00B40000
00B00000
00000000
00A00000
00E00000
00900000
ENDCHAR
STARTCHAR uni021B
ENCODING 539
SWIDTH 393 0
DWIDTH 6 0
BBX 8 18 0 -5
BITMAP
01E0
03F0
0B70
0E70
1DD0
1E80
FFF4
BE90
2C00
2C00
2D0D
1FB8
07E0
0000
0700
0B00
0A00
0900
ENDCHAR
STARTCHAR uni022A
ENCODING 554
SWIDTH 816 0
DWIDTH 11 0
BBX 10 19 1 0
BITMAP
006A40
00FF40
000000
000000
01E740
01D740
01BE00
0BEFC0
2E02E0
7C01F0
B400F0
F000F0
F000F0
F000F0
F001E0
F402D0
B80B80
3FBE00
0BE400
ENDCHAR
STARTCHAR uni022B
ENCODING 555
SWIDTH 451 0
DWIDTH 6 0
BBX 8 13 0 0
BITMAP
0AA0
0FF4
0000
2DB4
1DB0
0000
0B80
3EE0
75FA
74BE
74A0
7ED0
1F40
ENDCHAR
STARTCHAR uni022C
ENCODING 556
SWIDTH 816 0
DWIDTH 11 0
BBX 10 19 1 0
BITMAP
006A40
00BF40
000000
01E1C0
02FEC0
034B40
01BE00
0BEFC0
2E02E0
7C01F0
B400F0
F000F0
F000F0
F000F0
F001E0
F402D0
B80B80
3FBE00
0BE400
ENDCHAR
STARTCHAR uni022D
ENCODING 557
SWIDTH 451 0
DWIDTH 6 0
BBX 8 14 0 0
BITMAP
06A0
0FF4
0000
0504
2FA8
35B0
0000
0B80
3EE0
75FA
74BE
74A0
7ED0
1F40
ENDCHAR
STARTCHAR uni0230
ENCODING 560
SWIDTH 816 0
DWIDTH 11 0
BBX 10 19 1 0
BITMAP
006A40
00FF40
000000
000000
003C00
003C00
01BE00
0BEFC0
2E02E0
7C01F0
B400F0
F000F0
F000F0
F000F0
F001E0
F402D0
B80B80
3FBE00
0BE400
ENDCHAR
STARTCHAR uni0231
ENCODING 561
SWIDTH 451 0
DWIDTH 6 0
BBX 8 13 0 0
BITMAP
0AA0
0FF4
0000
07C0
0780
0000
0B80
3EE0
75FA
74BE
74A0
7ED0
1F40
ENDCHAR
STARTCHAR uni0232
ENCODING 562
SWIDTH 851 0
DWIDTH 12 0
BBX 14 20 0 -5
BITMAP
000AA000
001FE000
1B800E00
7BD01E00
E1E01E00
82D02D00
02D03D00
03C03C00
03C0BC00
0780FC00
0782B800
03EF7990
01F9BFD0
000BF900
007EB400
00F4B000
01D0E000
02D2D000
01FF4000
00690000
ENDCHAR
STARTCHAR uni0233
ENCODING 563
SWIDTH 479 0
DWIDTH 7 0
BBX 9 17 0 -7
BITMAP
0AA000
0FF400
000000
1C7000
38B000
38F000
75E100
7BE740
7FFD00
2DF400
07C000
1FC000
378000
A34000
DB0000
EE0000
B80000
ENDCHAR
STARTCHAR uni0237
ENCODING 567
SWIDTH 254 0
DWIDTH 4 0
BBX 8 14 -3 -7
BITMAP
00B0
00F0
00E0
00E0
01D7
01FD
01F4
07C0
1F80
3780
A740
DB00
ED00
B800
ENDCHAR
STARTCHAR uni0259
ENCODING 601
SWIDTH 458 0
DWIDTH 6 0
BBX 6 7 0 0
BITMAP
2F80
2AE0
00B0
7FF0
7AF0
7AE0
1F80
ENDCHAR
STARTCHAR uni02BC
ENCODING 700
SWIDTH 600 0
DWIDTH 8 0
BBX 3 4 3 8
BITMAP
34
74
70
60
ENDCHAR
STARTCHAR circumflex
ENCODING 710
SWIDTH 600 0
DWIDTH 8 0
BBX 5 5 2 8
BITMAP
0E00
2F00
7740
A340
D240
ENDCHAR
STARTCHAR caron
ENCODING 711
SWIDTH 600 0
DWIDTH 8 0
BBX 5 5 2 8
BITMAP
71C0
7280
3740
3E00
2D00
ENDCHAR
STARTCHAR uni02C9
ENCODING 713
SWIDTH 600 0
DWIDTH 8 0
BBX 5 2 2 8
BITMAP
6A40
FF40
ENDCHAR
STARTCHAR breve
ENCODING 728
SWIDTH 600 0
DWIDTH 8 0
BBX 7 4 1 8
BITMAP
1010
7474
7EF0
1F80
ENDCHAR
STARTCHAR dotaccent
ENCODING 729
SWIDTH 600 0
DWIDTH 8 0
BBX 3 2 3 8
BITMAP
B4
B4
ENDCHAR
STARTCHAR ring
ENCODING 730
SWIDTH 600 0
DWIDTH 8 0
BBX 5 5 2 8
BITMAP
1900
3F00
7340
7B40
2D00
ENDCHAR
STARTCHAR ogonek
ENCODING 731
SWIDTH 600 0
DWIDTH 8 0
BBX 4 5 2 -4
BITMAP
20
A0
D0
F9
7D
ENDCHAR
STARTCHAR tilde
ENCODING 732
SWIDTH 600 0
DWIDTH 8 0
BBX 7 3 1 8
BITMAP
1410
7F74
A2E0
ENDCHAR
STARTCHAR hungarumlaut
ENCODING 733
SWIDTH 600 0
DWIDTH 8 0
BBX 6 5 2 8
BITMAP
0440
2DE0
39D0
7280
6300
ENDCHAR
STARTCHAR gravecomb
ENCODING 768
SWIDTH 0 0
DWIDTH 0 0
BBX 4 5 -7 8
BITMAP
50
B0
78
2C
09
ENDCHAR
STARTCHAR acutecomb
ENCODING 769
SWIDTH 0 0
DWIDTH 0 0
BBX 4 5 -5 8
BITMAP
04
1D
3C
74
90
ENDCHAR
STARTCHAR uni0302
ENCODING 770
SWIDTH 0 0
DWIDTH 0 0
BBX 5 5 -7 8
BITMAP
0740
0F80
2E80
75C0
61C0
ENDCHAR
STARTCHAR tildecomb
ENCODING 771
SWIDTH 0 0
DWIDTH 0 0
BBX 6 3 -7 8
BITMAP
1410
BEB0
D6D0
ENDCHAR
STARTCHAR uni0304
ENCODING 772
SWIDTH 0 0
DWIDTH 0 0
BBX 5 2 -7 8
BITMAP
2A80
7FC0
ENDCHAR
STARTCHAR uni0306
ENCODING 774
SWIDTH 0 0
DWIDTH 0 0
BBX 6 4 -7 8
BITMAP
5010
A0B0
BAD0
2F80
ENDCHAR
STARTCHAR uni0307
ENCODING 775
SWIDTH 0 0
DWIDTH 0 0
BBX 2 2 -5 8
BITMAP
F0
E0
ENDCHAR
STARTCHAR uni0308
ENCODING 776
SWIDTH 0 0
DWIDTH 0 0
BBX 6 2 -7 8
BITMAP
75D0
75D0
ENDCHAR
STARTCHAR hookabovecomb
ENCODING 777
SWIDTH 0 0
DWIDTH 0 0
BBX 4 5 -6 8
BITMAP
28
7E
07
1E
2C
ENDCHAR
STARTCHAR uni030A
ENCODING 778
SWIDTH 0 0
DWIDTH 0 0
BBX 4 5 -6 8
BITMAP
18
7E
A7
BE
7D
ENDCHAR
STARTCHAR uni030B
ENCODING 779
SWIDTH 0 0
DWIDTH 0 0
BBX 6 5 -6 8
BITMAP
1440
3AD0
7780
A340
9600
ENDCHAR
STARTCHAR uni030C
ENCODING 780
SWIDTH 0 0
DWIDTH 0 0
BBX 5 5 -6 8
BITMAP
9280
A340
AB00
7D00
3800
ENDCHAR
STARTCHAR uni030F
ENCODING 783
SWIDTH 0 0
DWIDTH 0 0
BBX 6 5 -8 8
BITMAP
1140
7780
3AC0
2CD0
0C60
ENDCHAR
STARTCHAR uni0311
ENCODING 785
SWIDTH 0 0
DWIDTH 0 0
BBX 6 4 -7 8
BITMAP
0A40
7FD0
B5E0
90A0
ENDCHAR
STARTCHAR uni0312
ENCODING 786
SWIDTH 0 0
DWIDTH 0 0
BBX 2 4 -5 8
BITMAP
70
B0
A0
90
ENDCHAR
STARTCHAR uni031B
ENCODING 795
SWIDTH 0 0
DWIDTH 0 0
BBX 3 4 -5 5
BITMAP
04
1C
78
60
ENDCHAR
STARTCHAR dotbelowcomb
ENCODING 803
SWIDTH 0 0
DWIDTH 0 0
BBX 3 2 -7 -3
BITMAP
78
78
ENDCHAR
STARTCHAR uni0324
ENCODING 804
SWIDTH 0 0
DWIDTH 0 0
BBX 5 2 -8 -3
BITMAP
B2C0
B2C0
ENDCHAR
STARTCHAR uni0326
ENCODING 806
SWIDTH 0 0
DWIDTH 0 0
BBX 2 4 -6 -5
BITMAP
D0
D0
D0
C0
ENDCHAR
STARTCHAR uni0327
ENCODING 807
SWIDTH 0 0
DWIDTH 0 0
BBX 5 5 -8 -4
BITMAP
1900
2F40
0340
6B40
7D00
ENDCHAR
STARTCHAR uni0328
ENCODING 808
SWIDTH 0 0
DWIDTH 0 0
BBX 4 5 -7 -4
BITMAP
18
34
70
7A
2E
ENDCHAR
STARTCHAR uni032E
ENCODING 814
SWIDTH 0 0
DWIDTH 0 0
BBX 7 4 -9 -4
BITMAP
1010
7474
3EF0
1B90
ENDCHAR
STARTCHAR uni0331
ENCODING 817
SWIDTH 0 0
DWIDTH 0 0
BBX 5 2 -8 -2
BITMAP
2A40
7F80
ENDCHAR
STARTCHAR uni0394
ENCODING 916
SWIDTH 700 0
DWIDTH 10 0
BBX 9 12 0 0
BITMAP
002800
007C00
00BC00
01ED00
02CD00
038E00
0B0B00
0E0B00
1D0740
3C0740
7EAB80
7FFF80
ENDCHAR
STARTCHAR uni03A9
ENCODING 937
SWIDTH 816 0
DWIDTH 11 0
BBX 12 12 -1 0
BITMAP
001BE0
00BEFC
02E02E
07800F
0B400F
0F000F
0F000F
0F001E
0F002D
0B8078
2BD1FA
7FE2FF
ENDCHAR
STARTCHAR uni03BC
ENCODING 956
SWIDTH 462 0
DWIDTH 6 0
BBX 9 11 0 -4
BITMAP
041000
2CB000
38F000
75E000
76D240
7EEE00
7CB800
B00000
B00000
B00000
700000
ENDCHAR
STARTCHAR pi
ENCODING 960
SWIDTH 496 0
DWIDTH 7 0
BBX 9 7 0 0
BITMAP
BFFE00
7DB800
38B400
78B000
74B180
74BB40
707D00
ENDCHAR
STARTCHAR uni0400
ENCODING 1024
SWIDTH 686 0
DWIDTH 10 0
BBX 12 17 0 0
BITMAP
010000
03D000
01F400
002C00
01BF80
07EBE0
0F40F0
0F00F0
0F0090
07E400
0BF800
2E4000
780000
B80000
7C0019
2FAAFC
06FF90
ENDCHAR
STARTCHAR uni0401
ENCODING 1025
SWIDTH 686 0
DWIDTH 10 0
BBX 12 15 0 0
BITMAP
00B6D0
00B6C0
01BF80
07EBE0
0F40F0
0F00F0
0F0090
07E400
0BF800
2E4000
780000
B80000
7C0019
2FAAFC
06FF90
ENDCHAR
STARTCHAR uni0402
ENCODING 1026
SWIDTH 974 0
DWIDTH 14 0
BBX 15 20 0 -7
BITMAP
06BFFF40
2FAFAA40
781E0000
742D0000
742D0000
243C0000
003CBE00
007FEF80
007E0780
00B80788
00B407BC
00B40BF4
00B00B80
00002F00
0000BF00
0002EE00
00039D00
00072C00
0007B400
0002D000
ENDCHAR
STARTCHAR uni0403
ENCODING 1027
SWIDTH 635 0
DWIDTH 9 0
BBX 12 17 0 0
BITMAP
000040
0002D0
000B80
002900
06FFFF
2FFAA5
78B400
74F000
74F000
11E000
01E000
01E000
02D000
02D000
03C000
03C000
028000
ENDCHAR
STARTCHAR uni0404
ENCODING 1028
SWIDTH 687 0
DWIDTH 10 0
BBX 11 13 1 0
BITMAP
01BE00
0BEB40
2E0380
7C0380
B80240
F40000
FFF400
FAA400
F00000
B40000
7D0064
2FABF4
06FE40
ENDCHAR
STARTCHAR uni0405
ENCODING 1029
SWIDTH 693 0
DWIDTH 10 0
BBX 10 13 0 0
BITMAP
01BE40
0BEBD0
1E01E0
1D00E0
1E0090
0FD000
06FD00
006F80
2007C0
7402C0
7403C0
3EAF40
0BF900
ENDCHAR
STARTCHAR uni0406
ENCODING 1030
SWIDTH 495 0
DWIDTH 7 0
BBX 8 13 0 0
BITMAP
1FFE
1AE9
02D0
02D0
03C0
03C0
0780
0780
0740
0B40
0B40
6FA0
FFF0
ENDCHAR
STARTCHAR uni0407
ENCODING 1031
SWIDTH 495 0
DWIDTH 7 0
BBX 8 15 0 0
BITMAP
075D
075D
1FFE
1AE9
02D0
02D0
03C0
03C0
0780
0780
0740
0B40
0B40
6FA0
FFF0
ENDCHAR
STARTCHAR uni0408
ENCODING 1032
SWIDTH 743 0
DWIDTH 10 0
BBX 10 14 1 -1
BITMAP
0AFF90
7EABE0
F003C0
E00780
B00780
100740
006F40
02FF00
0B8F00
1E1E00
2C2D00
3C3800
2EF400
0B9000
ENDCHAR
STARTCHAR uni0409
ENCODING 1033
SWIDTH 1158 0
DWIDTH 16 0
BBX 16 13 0 0
BITMAP
0000E000
0002F000
0002F000
0003F000
0007F000
000BFAF8
000EFEBE
001DF01F
003CF00F
5078F01F
A0F0B42E
BBD07EB8
2F401FE0
ENDCHAR
STARTCHAR uni040A
ENCODING 1034
SWIDTH 1182 0
DWIDTH 17 0
BBX 17 13 0 0
BITMAP
1B802C0000
7BD03C0000
D1D0380000
81D0780000
02D0B40000
02D0BBF900
1BEAFE6F00
2FFEF00B40
0780F00B40
0780F00F40
0B40F01E00
0F007EBD00
0A002FE000
ENDCHAR
STARTCHAR uni040B
ENCODING 1035
SWIDTH 979 0
DWIDTH 14 0
BBX 16 13 0 0
BITMAP
06BFFF40
2FAFAA40
781E0000
742D0000
742D0000
243C0000
003CBE00
007FEF80
007E0780
00B80780
00B40789
00B40BAC
00B007E0
ENDCHAR
STARTCHAR uni040C
ENCODING 1036
SWIDTH 937 0
DWIDTH 13 0
BBX 15 17 0 0
BITMAP
00000140
00000B80
00002E00
00007400
06FE01D0
1FAF42D0
3C1E03C0
382D0B80
382D0F00
182D3D00
007EF400
00FFD000
0039F000
0078B804
B0B47D1C
7EF02FB4
1F800BD0
ENDCHAR
STARTCHAR uni040D
ENCODING 1037
SWIDTH 890 0
DWIDTH 12 0
BBX 15 17 0 0
BITMAP
00400000
01F00000
00BD0000
000A0000
1B800D00
7BD01E00
E1E01E00
82D02D00
02D02D00
03C03C00
03C07C00
0780BC00
0B40F800
0B42B810
0B477874
0BFD3FE0
02F41F80
ENDCHAR
STARTCHAR uni040E
ENCODING 1038
SWIDTH 824 0
DWIDTH 12 0
BBX 14 20 0 -4
BITMAP
00102400
00387000
001FD000
1B800D00
7BD01E00
62D02D00
02D03D00
03C07D00
03C0BC00
03C2FC00
03EB7800
01F97980
0000BFD0
000BF900
007EB000
01F4F000
02D1E000
02D2C000
01FF4000
00640000
ENDCHAR
STARTCHAR uni040F
ENCODING 1039
SWIDTH 890 0
DWIDTH 12 0
BBX 15 16 0 -3
BITMAP
1B800D00
7BD01E00
E1E01E00
82D02D00
02D02D00
03C03C00
03C07C00
0780BC00
0B40F800
0B42B810
0B477874
0BFD3FE0
02F41F80
01E00000
01D00000
01D00000
ENDCHAR
STARTCHAR uni0410
ENCODING 1040
SWIDTH 786 0
DWIDTH 11 0
BBX 13 13 0 0
BITMAP
001BF900
00BFBE00
03E01000
0B80B400
1E00F000
2D00E000
3C01E000
3C02D000
7C03D000
3C07D040
3D0FD280
1FBAFB40
07E0BD00
ENDCHAR
STARTCHAR uni0411
ENCODING 1041
SWIDTH 917 0
DWIDTH 13 0
BBX 13 14 0 -1
BITMAP
06FFFF00
2EBEA500
743C0000
74780000
74780000
74B40000
01FFF900
03FAAF00
02F00B40
01E00B80
01E00B40
01E02F00
02D6F800
00424000
ENDCHAR
STARTCHAR uni0412
ENCODING 1042
SWIDTH 827 0
DWIDTH 12 0
BBX 12 14 0 -1
BITMAP
01BFE4
2FEAFD
B9001F
52800F
03801F
07807D
0B4FE4
0B4BE0
0F00B4
0F00B8
1E01F4
1FABE0
1FFE40
1D0000
ENDCHAR
STARTCHAR uni0413
ENCODING 1043
SWIDTH 635 0
DWIDTH 9 0
BBX 12 13 0 0
BITMAP
06FFFF
2FFAA5
78B400
74F000
74F000
11E000
01E000
01E000
02D000
02D000
03C000
03C000
028000
ENDCHAR
STARTCHAR uni0414
ENCODING 1044
SWIDTH 964 0
DWIDTH 14 0
BBX 13 13 0 0
BITMAP
006FE400
07FABE00
0A400F40
00280780
007803C0
00B403C0
00F003C0
01E003C0
01E00780
2FD00B80
BBE01F00
BBBEBD00
7E0BE400
ENDCHAR
STARTCHAR uni0415
ENCODING 1045
SWIDTH 686 0
DWIDTH 10 0
BBX 12 13 0 0
BITMAP
01BF80
07EBE0
0F40F0
0F00F0
0F0090
07E400
0BF800
2E4000
780000
B80000
7C0019
2FAAFC
06FF90
ENDCHAR
STARTCHAR uni0416
ENCODING 1046
SWIDTH 1234 0
DWIDTH 17 0
BBX 19 13 0 0
BITMAP
06E01D07E0
0AB82D0FB4
042C2D1D10
001D3C3C00
001E3CB400
000F7EE000
0007FF8000
001FBBC000
007CB5E000
00B4B4F000
61E0F0B828
BBD0F03EB0
2F40E01F80
ENDCHAR
STARTCHAR uni0417
ENCODING 1047
SWIDTH 725 0
DWIDTH 10 0
BBX 9 13 1 0
BITMAP
06F800
1FAF00
3C0F00
380B00
240E00
002D00
07FD00
024B40
500780
E00B80
F01F40
BABD00
2FE400
ENDCHAR
STARTCHAR uni0418
ENCODING 1048
SWIDTH 890 0
DWIDTH 12 0
BBX 15 13 0 0
BITMAP
1B800D00
7BD01E00
E1E01E00
82D02D00
02D02D00
03C03C00
03C07C00
0780BC00
0B40F800
0B42B810
0B477874
0BFD3FE0
02F41F80
ENDCHAR
STARTCHAR uni0419
ENCODING 1049
SWIDTH 890 0
DWIDTH 12 0
BBX 15 16 0 0
BITMAP
00001400
002C7400
001FE000
1B800D00
7BD01E00
E1E01E00
82D02D00
02D02D00
03C03C00
03C07C00
0780BC00
0B40F800
0B42B810
0B477874
0BFD3FE0
02F41F80
ENDCHAR
STARTCHAR uni041A
ENCODING 1050
SWIDTH 937 0
DWIDTH 13 0
BBX 15 13 0 0
BITMAP
06FE01D0
1FAF42D0
3C1E03C0
382D0B80
382D0F00
182D3D00
007EF400
00FFD000
0039F000
0078B804
B0B47D1C
7EF02FB4
1F800BD0
ENDCHAR
STARTCHAR uni041B
ENCODING 1051
SWIDTH 861 0
DWIDTH 12 0
BBX 14 13 0 0
BITMAP
0000F000
0002F000
0002F000
0003F000
0007F000
000BE000
000EE000
001DF000
003CF000
5078F010
A0F0B460
BBD07ED0
2F402F40
ENDCHAR
STARTCHAR uni041C
ENCODING 1052
SWIDTH 1133 0
DWIDTH 16 0
BBX 18 13 0 0
BITMAP
000B40F000
000F81F000
001F83F000
001F87F000
002F8BF000
002B8EF000
003B9DE000
0077ACE000
00B3B8F000
50F2F4F010
A1E2F0B4A0
BBC1E07FC0
2E40D02E40
ENDCHAR
STARTCHAR uni041D
ENCODING 1053
SWIDTH 873 0
DWIDTH 12 0
BBX 14 14 0 0
BITMAP
00000240
1B800FC0
7BD02DD0
D1D038D0
81D075C0
02D0B680
02D0BF00
1BEAF800
2FFEE000
0780E000
0780E000
0B40F070
0F00BEE0
0A002F40
ENDCHAR
STARTCHAR uni041E
ENCODING 1054
SWIDTH 816 0
DWIDTH 11 0
BBX 10 13 1 0
BITMAP
01BE00
0BEFC0
2E02E0
7C01F0
B400F0
F000F0
F000F0
F000F0
F001E0
F402D0
B80B80
3FBE00
0BE400
ENDCHAR
STARTCHAR uni041F
ENCODING 1055
SWIDTH 892 0
DWIDTH 12 0
BBX 15 13 0 0
BITMAP
06BFFEA0
2FFAAFF4
78B41E00
74B41E00
74F02D00
10F02D00
01E03C00
01E03C00
01E07800
02D07800
02D07834
03D03EE0
02C01F80
ENDCHAR
STARTCHAR uni0420
ENCODING 1056
SWIDTH 805 0
DWIDTH 11 0
BBX 12 14 0 -1
BITMAP
006FE0
02FAF8
07803D
0E2C2D
2C3C2D
383C3D
3478B8
75BFF0
76FF80
74B400
74F000
39F000
2FE000
0BC000
ENDCHAR
STARTCHAR uni0421
ENCODING 1057
SWIDTH 686 0
DWIDTH 10 0
BBX 11 13 1 0
BITMAP
01BD00
0BEF40
2E0380
7C0380
B40380
F00000
F00000
F00000
F00000
B40000
7D0064
2FABF0
06FE40
ENDCHAR
STARTCHAR uni0422
ENCODING 1058
SWIDTH 697 0
DWIDTH 10 0
BBX 13 13 0 0
BITMAP
06BFFF40
2FAFAA40
741E0000
742D0000
742D0000
103C0000
003C0000
00780000
00780000
00B80000
00B40000
00B40000
00B00000
ENDCHAR
STARTCHAR uni0423
ENCODING 1059
SWIDTH 824 0
DWIDTH 12 0
BBX 14 17 0 -4
BITMAP
1B800D00
7BD01E00
62D02D00
02D03D00
03C07D00
03C0BC00
03C2FC00
03EB7800
01F97980
0000BFD0
000BF900
007EB000
01F4F000
02D1E000
02D2C000
01FF4000
00640000
ENDCHAR
STARTCHAR uni0424
ENCODING 1060
SWIDTH 977 0
DWIDTH 14 0
BBX 14 18 0 -4
BITMAP
0BAA9000
06FFE000
00038000
01A78600
07FFBFC0
1F1FE2D0
2D0BC2D0
3C0B42D0
3C0F02D0
781E03C0
387E0780
3EEFEF00
1F5EB800
002D0000
082C0000
1D380000
0FB00000
07D00000
ENDCHAR
STARTCHAR uni0425
ENCODING 1061
SWIDTH 712 0
DWIDTH 10 0
BBX 12 13 0 0
BITMAP
1F8078
7BD0F4
91F2E0
00FB80
00BF00
007D00
00BC00
02FC00
07ED00
1F5E00
3D0F0A
B80BAD
E002E4
ENDCHAR
STARTCHAR uni0426
ENCODING 1062
SWIDTH 890 0
DWIDTH 12 0
BBX 14 18 0 -5
BITMAP
1B800D00
7BD01E00
A1E01E00
82D02D00
02D02D00
03C03C00
03C07C00
0780BC00
0B80F800
0B41B800
0B477810
0BED2FB0
02F41FD0
0000BF00
0002EE00
00039D00
0007FC00
0002F400
ENDCHAR
STARTCHAR uni0427
ENCODING 1063
SWIDTH 773 0
DWIDTH 11 0
BBX 10 13 1 0
BITMAP
2C01D0
3D02D0
3C02D0
3C03C0
7807C0
780BC0
782F80
3FF780
1FD780
000740
000B40
000B40
000B00
ENDCHAR
STARTCHAR uni0428
ENCODING 1064
SWIDTH 1272 0
DWIDTH 18 0
BBX 20 13 0 0
BITMAP
1B801D0280
7BD02D03C0
E1E02D03C0
82D03C0780
02D03C0780
03C0780B80
03C0B40F40
0780F41F40
0B41F02F00
0B42F06F01
0B4BB0DF0A
0BFDBF8BFC
02E42E06E0
ENDCHAR
STARTCHAR uni0429
ENCODING 1065
SWIDTH 1272 0
DWIDTH 18 0
BBX 20 18 0 -5
BITMAP
1B801D0280
7BD02D03C0
E1E02D03C0
82D03C0780
02D03C0780
03C0780B40
03C0B40F40
0780F41F40
0B41F02F00
0B42F06F00
0B4AB0DF45
0BFDBF8BFD
02E42E02F4
0000001FD0
0000007AC0
000000B380
000000FB40
0000007E00
ENDCHAR
STARTCHAR uni042A
ENCODING 1066
SWIDTH 863 0
DWIDTH 12 0
BBX 11 13 1 0
BITMAP
005400
7FF800
1AF000
01E000
02D000
03EFD0
1FEAF8
1F407C
07403C
074078
0780B4
03EBE0
00BE40
ENDCHAR
STARTCHAR uni042B
ENCODING 1067
SWIDTH 1078 0
DWIDTH 15 0
BBX 15 13 0 0
BITMAP
03400074
07800078
0B4000B4
0B0000B4
0F0000B4
0FBF40F0
7FABE0F0
7D01F1E0
1D00F1E0
1D01E2D0
1E02D2D0
0FAF82D0
02F902C0
ENDCHAR
STARTCHAR uni042C
ENCODING 1068
SWIDTH 721 0
DWIDTH 10 0
BBX 10 13 0 0
BITMAP
034000
078000
0B4000
0B0000
0F0000
0FBF40
7FABE0
7D01F0
1D00F0
1D01E0
1E02D0
0FAF80
02F900
ENDCHAR
STARTCHAR uni042D
ENCODING 1069
SWIDTH 755 0
DWIDTH 11 0
BBX 11 13 0 0
BITMAP
02FE00
0FABC0
2D02E0
1400F0
0000F4
0000B4
03FFF4
02AAF0
1000F0
7402D0
7807C0
3EAF40
1BF800
ENDCHAR
STARTCHAR uni042E
ENCODING 1070
SWIDTH 1246 0
DWIDTH 17 0
BBX 17 13 0 0
BITMAP
1B80007800
7FD02D6F00
E1D0BE0B80
C1D0EE03C0
02D2FC03C0
02D7F403C0
1BFFD003C0
2FE7C003C0
0783C00780
0783D00B40
0B42E02E00
0F00FEF800
0A002F9000
ENDCHAR
STARTCHAR uni042F
ENCODING 1071
SWIDTH 850 0
DWIDTH 12 0
BBX 14 13 0 0
BITMAP
007FAC00
02FABC00
03C03C00
07807C00
0780B800
0780F800
02EAF400
00BFF400
000BB000
401EB010
E078B0A0
BAE07AD0
2F802E40
ENDCHAR
STARTCHAR uni0430
ENCODING 1072
SWIDTH 470 0
DWIDTH 7 0
BBX 9 7 0 0
BITMAP
079000
1FF000
3CB000
74E000
75E240
7BFE00
2E7800
ENDCHAR
STARTCHAR uni0431
ENCODING 1073
SWIDTH 473 0
DWIDTH 7 0
BBX 9 14 0 0
BITMAP
001400
06F800
1F9000
1D0000
0F0000
078000
01E000
0BF000
2EF400
78FA40
74BE40
74E000
7AD000
1F4000
ENDCHAR
STARTCHAR uni0432
ENCODING 1074
SWIDTH 473 0
DWIDTH 7 0
BBX 9 14 0 0
BITMAP
02D000
07F000
0E7000
1D6000
2CA000
2DC000
3A4000
3FD000
7DF000
78FA40
787F40
387000
2EE000
0B8000
ENDCHAR
STARTCHAR uni0433
ENCODING 1075
SWIDTH 380 0
DWIDTH 5 0
BBX 7 7 0 0
BITMAP
2F80
3BC0
02C0
1E00
741C
7AB8
2F90
ENDCHAR
STARTCHAR uni0434
ENCODING 1076
SWIDTH 479 0
DWIDTH 7 0
BBX 9 14 0 -7
BITMAP
079000
1FF000
3CB000
74E000
75E740
7BFE00
2EF400
07C000
1FC000
3B8000
A34000
DB0000
EE0000
780000
ENDCHAR
STARTCHAR uni0435
ENCODING 1077
SWIDTH 393 0
DWIDTH 6 0
BBX 8 7 0 0
BITMAP
0B80
3ED0
75D0
7B80
791D
3EB8
1BD0
ENDCHAR
STARTCHAR uni0436
ENCODING 1078
SWIDTH 717 0
DWIDTH 10 0
BBX 12 7 0 0
BITMAP
1E35F0
2FB7B8
12FB34
12FE01
B3BE0A
BB7BAD
7D71F4
ENDCHAR
STARTCHAR uni0437
ENCODING 1079
SWIDTH 435 0
DWIDTH 6 0
BBX 9 14 -1 -7
BITMAP
06E000
0EB800
003400
00B000
0B9280
0F1F40
07F800
02E000
0BD000
2DD000
75C000
738000
BB4000
7D0000
ENDCHAR
STARTCHAR uni0438
ENCODING 1080
SWIDTH 462 0
DWIDTH 6 0
BBX 9 7 0 0
BITMAP
1C7000
38B000
38E000
75E000
7BD340
7EFE00
2CB800
ENDCHAR
STARTCHAR uni0439
ENCODING 1081
SWIDTH 462 0
DWIDTH 6 0
BBX 9 12 0 0
BITMAP
000400
1C2800
1EB400
0BD000
000000
1C7000
38B000
38E000
75E000
7BD340
7EFE00
2CB800
ENDCHAR
STARTCHAR uni043A
ENCODING 1082
SWIDTH 465 0
DWIDTH 7 0
BBX 9 7 0 0
BITMAP
2CB800
3AEC00
3B5C00
7F4000
7F4340
7BEE00
35B800
ENDCHAR
STARTCHAR uni043B
ENCODING 1083
SWIDTH 549 0
DWIDTH 8 0
BBX 10 7 0 0
BITMAP
00B400
00F400
02F400
53B440
E774D0
FE3F80
782E00
ENDCHAR
STARTCHAR uni043C
ENCODING 1084
SWIDTH 734 0
DWIDTH 10 0
BBX 12 7 0 0
BITMAP
00E1D0
01E3D0
02EBD0
53BED1
E77DD3
FE78FE
7834B8
ENDCHAR
STARTCHAR uni043D
ENCODING 1085
SWIDTH 475 0
DWIDTH 7 0
BBX 9 7 0 0
BITMAP
2C3400
387000
3AB000
7FE000
74E340
74FA00
34B800
ENDCHAR
STARTCHAR uni043E
ENCODING 1086
SWIDTH 451 0
DWIDTH 6 0
BBX 8 7 0 0
BITMAP
0B80
3EE0
75FA
74BE
74A0
7ED0
1F40
ENDCHAR
STARTCHAR uni043F
ENCODING 1087
SWIDTH 496 0
DWIDTH 7 0
BBX 9 7 0 0
BITMAP
2CB400
3AF400
3BB400
7DB040
7CB280
78BB40
347900
ENDCHAR
STARTCHAR uni0440
ENCODING 1088
SWIDTH 481 0
DWIDTH 7 0
BBX 11 14 -2 -7
BITMAP
02AD00
03EF00
038B40
038B00
079E28
0FBEF0
1FEB80
2B4000
374000
774000
A70000
AA0000
BD0000
780000
ENDCHAR
STARTCHAR uni0441
ENCODING 1089
SWIDTH 368 0
DWIDTH 5 0
BBX 7 7 0 0
BITMAP
0B80
2EC0
79C0
B404
741C
7EF4
1F90
ENDCHAR
STARTCHAR uni0442
ENCODING 1090
SWIDTH 744 0
DWIDTH 10 0
BBX 13 7 0 0
BITMAP
2CB1E000
3AF7F000
3BBAE000
7DBCE100
7CB9D340
78B5EE00
3460F800
ENDCHAR
STARTCHAR uni0443
ENCODING 1091
SWIDTH 479 0
DWIDTH 7 0
BBX 9 14 0 -7
BITMAP
1C7000
38B000
38F000
75E100
7BE740
7FFD00
2DF400
07C000
1FC000
378000
A34000
DB0000
EE0000
B80000
ENDCHAR
STARTCHAR uni0444
ENCODING 1092
SWIDTH 721 0
DWIDTH 10 0
BBX 12 17 0 -5
BITMAP
001C00
002C00
003800
007400
007400
07F780
1FFED0
3CB5E0
74F1D0
75F2C7
7BEBED
2DFEF4
00D000
00D000
00D000
01D000
00D000
ENDCHAR
STARTCHAR uni0445
ENCODING 1093
SWIDTH 529 0
DWIDTH 7 0
BBX 10 7 0 0
BITMAP
1E6D00
2FFE00
16D400
12C040
B3D1D0
BBFB80
7DBE00
ENDCHAR
STARTCHAR uni0446
ENCODING 1094
SWIDTH 501 0
DWIDTH 7 0
BBX 9 12 0 -5
BITMAP
2C7000
38B000
38E000
75E000
7BD140
7EFB40
2CBD00
02F000
0AA000
0DD000
1F8000
050000
ENDCHAR
STARTCHAR uni0447
ENCODING 1095
SWIDTH 555 0
DWIDTH 8 0
BBX 10 8 0 0
BITMAP
038000
0BFF00
0D7E00
1CB800
39E010
B2C0E0
D2EBC0
00BE00
ENDCHAR
STARTCHAR uni0448
ENCODING 1096
SWIDTH 693 0
DWIDTH 10 0
BBX 12 7 0 0
BITMAP
1C70D0
38B1D0
38E2C0
75E380
7BEB89
7EFFEC
2DB5E0
ENDCHAR
STARTCHAR uni0449
ENCODING 1097
SWIDTH 732 0
DWIDTH 10 0
BBX 12 12 0 -5
BITMAP
1C70D0
38B1D0
38E2C0
75E380
7BEB85
7EFFED
2DB5F4
0007D0
001EC0
003680
003F00
001800
ENDCHAR
STARTCHAR uni044A
ENCODING 1098
SWIDTH 542 0
DWIDTH 8 0
BBX 10 7 0 0
BITMAP
7F8000
1E0000
2EF400
2FB800
3C3890
2EBFC0
0BEE00
ENDCHAR
STARTCHAR uni044B
ENCODING 1099
SWIDTH 702 0
DWIDTH 10 0
BBX 12 7 0 0
BITMAP
1C01D0
3C02D0
3AE7C0
7EFFC0
787F8A
3EF7ED
1B91E4
ENDCHAR
STARTCHAR uni044C
ENCODING 1100
SWIDTH 517 0
DWIDTH 7 0
BBX 9 7 0 0
BITMAP
1C0000
3C0000
3AE000
7EF400
7875C0
3EFB80
1BBD00
ENDCHAR
STARTCHAR uni044D
ENCODING 1101
SWIDTH 466 0
DWIDTH 7 0
BBX 9 7 0 0
BITMAP
1F9000
2AF000
02BA40
17FF40
70B400
7AE000
2F8000
ENDCHAR
STARTCHAR uni044E
ENCODING 1102
SWIDTH 676 0
DWIDTH 9 0
BBX 12 7 0 0
BITMAP
2C2F40
38BBC0
3EE7E9
7FD2F8
75D2C0
74FB40
347E00
ENDCHAR
STARTCHAR uni044F
ENCODING 1103
SWIDTH 543 0
DWIDTH 8 0
BBX 10 7 0 0
BITMAP
02EC00
0BAC00
0A2C00
ABF850
E2F8D0
FBAB80
7E1E00
ENDCHAR
STARTCHAR uni0450
ENCODING 1104
SWIDTH 393 0
DWIDTH 6 0
BBX 8 13 0 0
BITMAP
1400
2C00
1D00
0B00
0200
0000
0B80
3ED0
75D0
7B80
791D
3EB8
1BD0
ENDCHAR
STARTCHAR uni0451
ENCODING 1105
SWIDTH 393 0
DWIDTH 6 0
BBX 8 10 0 0
BITMAP
1DB4
1D70
0000
0B80
3ED0
75D0
7B80
791D
3EB8
1BD0
ENDCHAR
STARTCHAR uni0452
ENCODING 1106
SWIDTH 514 0
DWIDTH 7 0
BBX 9 20 0 -7
BITMAP
070000
0B0000
0F0000
3FF000
2E9000
2D0000
2CB400
39F400
3BB400
3E7400
7CB680
7CBE00
34B800
02E000
0BD000
1DD000
36C000
738000
7B0000
3D0000
ENDCHAR
STARTCHAR uni0453
ENCODING 1107
SWIDTH 380 0
DWIDTH 5 0
BBX 7 13 0 0
BITMAP
0040
01E0
02C0
0340
0600
0000
2F80
3BC0
02C0
1E00
741C
7AB8
2F90
ENDCHAR
STARTCHAR uni0454
ENCODING 1108
SWIDTH 379 0
DWIDTH 5 0
BBX 7 7 0 0
BITMAP
1B80
3EE0
7A40
7F44
741C
3EB4
1B90
ENDCHAR
STARTCHAR uni0455
ENCODING 1109
SWIDTH 427 0
DWIDTH 6 0
BBX 8 7 0 0
BITMAP
0740
0B00
1F40
2BC1
B2DA
DFFD
0BF4
ENDCHAR
STARTCHAR uni0456
ENCODING 1110
SWIDTH 246 0
DWIDTH 3 0
BBX 6 10 0 0
BITMAP
1E00
1E00
0000
2C00
3800
3800
7400
74D0
7F80
2E00
ENDCHAR
STARTCHAR uni0457
ENCODING 1111
SWIDTH 246 0
DWIDTH 3 0
BBX 6 10 0 0
BITMAP
F3C0
A280
0000
2C00
3800
3800
7400
74D0
7F80
2E00
ENDCHAR
STARTCHAR uni0458
ENCODING 1112
SWIDTH 254 0
DWIDTH 4 0
BBX 8 17 -3 -7
BITMAP
00B4
00F4
0000
00B0
00F0
00E0
00E0
01D7
01FD
01F4
07C0
1F80
3780
A740
DB00
ED00
B800
ENDCHAR
STARTCHAR uni0459
ENCODING 1113
SWIDTH 794 0
DWIDTH 11 0
BBX 13 7 0 0
BITMAP
00B40000
00F40000
02FAE000
53BEF440
E778B5C0
FE3EFB40
781FBD00
ENDCHAR
STARTCHAR uni045A
ENCODING 1114
SWIDTH 751 0
DWIDTH 11 0
BBX 13 7 0 0
BITMAP
2C740000
38B00000
3AFBC000
7FFAE000
74B0E340
74BAEE00
342FF800
ENDCHAR
STARTCHAR uni045B
ENCODING 1115
SWIDTH 502 0
DWIDTH 7 0
BBX 9 13 0 0
BITMAP
070000
0B0000
0F0000
3FF000
2E9000
2D0000
2CB400
39F400
3BB400
3E7040
7CB180
7CBB40
347D00
ENDCHAR
STARTCHAR uni045C
ENCODING 1116
SWIDTH 465 0
DWIDTH 7 0
BBX 9 13 0 0
BITMAP
001000
007800
00B400
00D000
018000
000000
2CB800
3AEC00
3B5C00
7F4000
7F4340
7BEE00
35B800
ENDCHAR
STARTCHAR uni045D
ENCODING 1117
SWIDTH 462 0
DWIDTH 6 0
BBX 9 13 0 0
BITMAP
040000
1D0000
0F0000
074000
018000
000000
1C7000
38B000
38E000
75E000
7BD340
7EFE00
2CB800
ENDCHAR
STARTCHAR uni045E
ENCODING 1118
SWIDTH 479 0
DWIDTH 7 0
BBX 9 19 0 -7
BITMAP
000400
1C2800
1EB400
0BD000
000000
1C7000
38B000
38F000
75E100
7BE740
7FFD00
2DF400
07C000
1FC000
378000
A34000
DB0000
EE0000
B80000
ENDCHAR
STARTCHAR uni045F
ENCODING 1119
SWIDTH 600 0
DWIDTH 8 0
BBX 9 9 0 -2
BITMAP
2C7000
38B000
38E000
75E000
7BD340
7EFE00
2CB800
280000
180000
ENDCHAR
STARTCHAR uni0462
ENCODING 1122
SWIDTH 721 0
DWIDTH 10 0
BBX 10 13 0 0
BITMAP
034000
078000
3FF400
2FA000
0F0000
0FBF40
6FABE0
7D01F0
1D00F0
1D01E0
1E02D0
0FAF80
02F900
ENDCHAR
STARTCHAR uni0463
ENCODING 1123
SWIDTH 517 0
DWIDTH 7 0
BBX 9 10 0 0
BITMAP
050000
1E0000
6E4000
BF8000
380000
7AE000
7EB400
7875C0
3EFB80
1BBD00
ENDCHAR
STARTCHAR uni046A
ENCODING 1130
SWIDTH 1234 0
DWIDTH 17 0
BBX 19 13 0 0
BITMAP
03FFFFFFD0
02BEAAAF80
002D002D00
001D003C00
001E00B400
000B02E000
0007FF8000
001FBBC000
007CB5E000
00B4B4F000
61E0F0B828
BBD0F03EB0
2F40E01F80
ENDCHAR
STARTCHAR uni046B
ENCODING 1131
SWIDTH 788 0
DWIDTH 11 0
BBX 13 13 0 0
BITMAP
0002C000
0007C000
000BC000
000FC000
000E8000
001E8000
02FAAC00
01F6E400
00B2C000
10F78040
B2FBC180
BB7DFB40
7D287D00
ENDCHAR
STARTCHAR uni0472
ENCODING 1138
SWIDTH 816 0
DWIDTH 11 0
BBX 10 13 1 0
BITMAP
01BE00
0BABC0
2E02E0
7C01F0
B400F0
FA40F0
FFFFF0
F01AF0
F001E0
F402D0
B80B80
3FAE00
0BE400
ENDCHAR
STARTCHAR uni0473
ENCODING 1139
SWIDTH 451 0
DWIDTH 6 0
BBX 8 7 0 0
BITMAP
0B80
3EE0
74B6
7FFF
7AF9
7EE0
1F80
ENDCHAR
STARTCHAR uni0474
ENCODING 1140
SWIDTH 797 0
DWIDTH 11 0
BBX 13 13 1 0
BITMAP
2C007F40
3C00BB80
3C00F000
7C01F000
7801E000
7802D000
7803C000
78078000
3C0B4000
3C1E0000
2D3C0000
1FF40000
0BD00000
ENDCHAR
STARTCHAR uni0475
ENCODING 1141
SWIDTH 420 0
DWIDTH 6 0
BBX 8 7 0 0
BITMAP
747D
74B5
74E0
76D0
3B80
3F00
2D00
ENDCHAR
STARTCHAR uni048A
ENCODING 1162
SWIDTH 890 0
DWIDTH 12 0
BBX 15 20 0 -3
BITMAP
00282400
002EB400
000BD000
00000000
1B800D00
7BD01E00
E1E01E00
82D02D00
02D02D00
03C03C00
03C07C00
0780BC00
0B40F800
0B42B810
0B477874
0BFD7FE0
02F42F80
00000F00
00002D00
00002800
ENDCHAR
STARTCHAR uni048B
ENCODING 1163
SWIDTH 462 0
DWIDTH 6 0
BBX 9 15 0 -3
BITMAP
000400
1C2800
1EB400
0BD000
000000
1C7000
38B000
38E000
75E000
7BD340
7EFE00
2CB800
00B000
01D000
004000
ENDCHAR
STARTCHAR uni048C
ENCODING 1164
SWIDTH 721 0
DWIDTH 10 0
BBX 10 13 0 0
BITMAP
034000
078000
3FF400
2FA000
0F0000
0FBF40
6FABE0
7D01F0
1D00F0
1D01E0
1E02D0
0FAF80
02F900
ENDCHAR
STARTCHAR uni048D
ENCODING 1165
SWIDTH 517 0
DWIDTH 7 0
BBX 9 10 0 0
BITMAP
050000
1E0000
6E4000
BF8000
380000
7AE000
7EB400
7875C0
3EFB80
1BBD00
ENDCHAR
STARTCHAR uni048E
ENCODING 1166
SWIDTH 805 0
DWIDTH 11 0
BBX 13 14 0 -1
BITMAP
006FE000
02FAF800
07803D00
0E2C2D00
2C3CAD00
383CBD00
34787F40
75BFF100
76FF8000
74B40000
74F00000
39F00000
2FE00000
0BC00000
ENDCHAR
STARTCHAR uni048F
ENCODING 1167
SWIDTH 481 0
DWIDTH 7 0
BBX 11 14 -2 -7
BITMAP
03AD00
03EF00
038B40
038B00
07AE24
0BBEB4
1FEB80
2B4000
374000
774000
A70000
AA0000
BD0000
780000
ENDCHAR
STARTCHAR uni0490
ENCODING 1168
SWIDTH 645 0
DWIDTH 9 0
BBX 13 16 0 0
BITMAP
00000340
00000740
00000740
06FFFF00
2FFAA500
78B40000
74F00000
74F00000
11E00000
01E00000
01E00000
02D00000
02D00000
03C00000
03C00000
02800000
ENDCHAR
STARTCHAR uni0491
ENCODING 1169
SWIDTH 394 0
DWIDTH 6 0
BBX 6 9 0 0
BITMAP
0060
00B0
2FE0
3E40
3800
7400
7400
7400
3400
ENDCHAR
STARTCHAR uni0492
ENCODING 1170
SWIDTH 635 0
DWIDTH 9 0
BBX 12 13 0 0
BITMAP
06FFFF
2FFAA5
78B400
74B400
74F000
20F000
0BFD00
06E800
02D000
02D000
03C000
03C000
038000
ENDCHAR
STARTCHAR uni0493
ENCODING 1171
SWIDTH 380 0
DWIDTH 5 0
BBX 7 7 0 0
BITMAP
2F80
3BC0
03C0
BF40
7A5C
7AB8
2F90
ENDCHAR
STARTCHAR uni0494
ENCODING 1172
SWIDTH 884 0
DWIDTH 12 0
BBX 14 20 0 -7
BITMAP
06FFFF00
2FFAA500
78B40000
74F40000
74F00000
25F00000
01E6F800
01EEBD00
02F42D00
02E02D20
03C02EE0
03C02FD0
02803E00
0000FC00
0003F800
000BB400
001DB000
002CE000
002EC000
001F4000
ENDCHAR
STARTCHAR uni0495
ENCODING 1173
SWIDTH 441 0
DWIDTH 6 0
BBX 8 12 0 -5
BITMAP
2F80
3BC0
02C0
1E00
7405
7AAD
2FF4
07C0
2EC0
3680
3F00
1400
ENDCHAR
STARTCHAR uni0496
ENCODING 1174
SWIDTH 1234 0
DWIDTH 17 0
BBX 19 18 0 -5
BITMAP
06E01D07E0
0AB82D0FB4
042C2D1D10
001D3C3C00
001E3CB400
000F7EE000
0007FF8000
001FBBC000
007CB5E000
00B4B4F000
61E0F0B804
BBD0F03FFC
2F40E00BE0
0000001F80
000000BB80
000001E740
000001EE00
000000B800
ENDCHAR
STARTCHAR uni0497
ENCODING 1175
SWIDTH 803 0
DWIDTH 11 0
BBX 13 12 0 -5
BITMAP
1E35F000
2FB7B800
12FB3400
12FE0000
B3BE0140
BB7BAB40
7D72FD00
0001F400
0007B000
000DA000
000FC000
00060000
ENDCHAR
STARTCHAR uni0498
ENCODING 1176
SWIDTH 725 0
DWIDTH 10 0
BBX 9 18 1 -5
BITMAP
06F800
1FAF00
3C0F00
380B00
240E00
002D00
07FD00
024B40
500780
E00B80
F01F40
BABE00
2FF800
07F400
1E7000
2CA000
2ED000
1F8000
ENDCHAR
STARTCHAR uni0499
ENCODING 1177
SWIDTH 445 0
DWIDTH 6 0
BBX 8 12 0 -5
BITMAP
1F90
3AE0
20D0
0B80
51D6
BAFD
2FF4
07C0
1E80
3680
3F00
1900
ENDCHAR
STARTCHAR uni049A
ENCODING 1178
SWIDTH 937 0
DWIDTH 13 0
BBX 15 18 0 -5
BITMAP
06FE01D0
1FAF02D0
3C1E03C0
382D0780
382D0F00
282D2D00
007EF400
00FFD000
0039F000
1078B800
B0B47D18
7AF02FF8
1F800BD0
00002F80
0000FB40
0001DB00
0002EE00
0000B800
ENDCHAR
STARTCHAR uni049B
ENCODING 1179
SWIDTH 531 0
DWIDTH 7 0
BBX 9 12 0 -5
BITMAP
2CB800
3AEC00
3B5C00
7F4000
7F4040
7BEB80
35BE00
01F400
077000
0AB000
0BD000
024000
ENDCHAR
STARTCHAR uni049C
ENCODING 1180
SWIDTH 937 0
DWIDTH 13 0
BBX 15 13 0 0
BITMAP
06FE01D0
1FAF02D0
3C1E03C0
382D0B80
382DCF00
282DFD00
007EF400
00FFD000
003AF000
007AF804
B0B67D1C
7AF02FB4
1F800BD0
ENDCHAR
STARTCHAR uni049D
ENCODING 1181
SWIDTH 485 0
DWIDTH 7 0
BBX 9 7 0 0
BITMAP
2CB800
39ED00
3A8C00
7F8040
7F8280
7FEB00
34B900
ENDCHAR
STARTCHAR uni049E
ENCODING 1182
SWIDTH 937 0
DWIDTH 13 0
BBX 15 13 0 0
BITMAP
06FE01D0
1FAF42D0
3C1E03C0
38AE4780
39FF8F00
282D2D00
007EF400
00FFD000
0039F000
0078B804
B0B47D1C
7AF02FB4
1F800BD0
ENDCHAR
STARTCHAR uni049F
ENCODING 1183
SWIDTH 473 0
DWIDTH 7 0
BBX 9 13 0 0
BITMAP
070000
0B0000
0F0000
3FF000
2E9000
2D0000
2CB800
3AEC00
3B9C00
3F4000
7F4340
3FEF00
28B800
ENDCHAR
STARTCHAR uni04A0
ENCODING 1184
SWIDTH 937 0
DWIDTH 13 0
BBX 15 13 0 0
BITMAP
000501D0
2FFF42D0
1AAE03C0
002D0780
002D0F00
002D2D00
007EF400
00FFD000
0039F000
0078B804
B0B47D1C
7AF02FB4
1F800BD0
ENDCHAR
STARTCHAR uni04A1
ENCODING 1185
SWIDTH 555 0
DWIDTH 8 0
BBX 10 7 0 0
BITMAP
7F2E00
1FBB40
0EE700
0FD100
0FE0A0
0FBAC0
0A2E40
ENDCHAR
STARTCHAR uni04A2
ENCODING 1186
SWIDTH 907 0
DWIDTH 13 0
BBX 15 19 0 -5
BITMAP
00000140
1B800FC0
7BD02DD0
D1D038D0
81D074C0
02D0B680
02D0BA00
1BEAF800
2FFEE000
0780E000
0780F000
0B40F414
0F00BFF4
0A002F90
00007F00
0001EB00
0003CE00
0003ED00
0001F400
ENDCHAR
STARTCHAR uni04A3
ENCODING 1187
SWIDTH 515 0
DWIDTH 7 0
BBX 9 12 0 -5
BITMAP
2C3400
387000
3AF000
7FE000
74E140
74FB40
347D00
01F000
07B000
0DA000
0FC000
050000
ENDCHAR
STARTCHAR uni04A4
ENCODING 1188
SWIDTH 873 0
DWIDTH 12 0
BBX 16 13 0 0
BITMAP
1B8007F9
7BD01EA9
D1D03C00
81D07800
02D0B400
02D0B000
1BEAF000
2FFEF000
0780E000
0780E000
0B40F070
0F00BAE0
0A002F40
ENDCHAR
STARTCHAR uni04A5
ENCODING 1189
SWIDTH 475 0
DWIDTH 7 0
BBX 9 8 0 0
BITMAP
000400
2C3D00
387400
3AB000
7FE000
74E340
74FA00
34B800
ENDCHAR
STARTCHAR uni04A8
ENCODING 1192
SWIDTH 997 0
DWIDTH 14 0
BBX 15 13 1 0
BITMAP
02F00000
0BE1A800
2E0BFF00
7C1F0B80
B43D07C0
F03C03C0
F07803C0
F07803C0
F03C0B80
B43D1F00
7C1FBD68
2FEFFFF4
06FEBF90
ENDCHAR
STARTCHAR uni04A9
ENCODING 1193
SWIDTH 574 0
DWIDTH 8 0
BBX 10 7 0 0
BITMAP
0B0000
3D7D00
74EE00
75CA10
75DDA0
3EFFD0
1FBE40
ENDCHAR
STARTCHAR uni04AA
ENCODING 1194
SWIDTH 781 0
DWIDTH 11 0
BBX 12 20 1 -7
BITMAP
01BE00
0BEF40
2E0380
7C0380
B40380
F00000
F00000
F00000
F00000
F40040
78029D
2FAFF8
0BFBD0
000B40
002F00
00AB00
01CE00
029D00
02F800
01E000
ENDCHAR
STARTCHAR uni04AB
ENCODING 1195
SWIDTH 431 0
DWIDTH 6 0
BBX 8 12 0 -5
BITMAP
0B80
2EC0
79C0
7400
B405
7EAD
1FF4
07C0
2A80
3740
7F00
1400
ENDCHAR
STARTCHAR uni04AC
ENCODING 1196
SWIDTH 697 0
DWIDTH 10 0
BBX 13 18 0 -5
BITMAP
06BFFF40
2EAFAA40
741E0000
742D0000
742D0000
003C0000
003C0000
00780000
00780000
00B40000
00B40000
00BD0000
00BD0000
01ED0000
079C0000
0B780000
0BF40000
01900000
ENDCHAR
STARTCHAR uni04AD
ENCODING 1197
SWIDTH 784 0
DWIDTH 11 0
BBX 13 12 0 -5
BITMAP
2CB1E000
3AF7F000
3BBAE000
7DBCE000
7CB9D140
78B5FB40
3460BD00
0002F000
000AA000
001DD000
001F8000
00050000
ENDCHAR
STARTCHAR uni04AE
ENCODING 1198
SWIDTH 677 0
DWIDTH 9 0
BBX 9 13 2 0
BITMAP
E00740
F41F00
B82D00
3C7800
2DB400
1FE000
0FC000
0B8000
074000
0B4000
0B4000
0B4000
0B0000
ENDCHAR
STARTCHAR uni04AF
ENCODING 1199
SWIDTH 472 0
DWIDTH 7 0
BBX 9 12 0 -5
BITMAP
747400
74F400
38F500
38FF40
39E900
2F8000
2F0000
2D0000
2D0000
1D0000
1D0000
1D0000
ENDCHAR
STARTCHAR uni04B0
ENCODING 1200
SWIDTH 677 0
DWIDTH 9 0
BBX 9 13 2 0
BITMAP
E00B40
F41F00
782D00
3C7800
2DF400
1FE000
0FC000
2F9000
7FF000
0B4000
0B4000
0B4000
0B0000
ENDCHAR
STARTCHAR uni04B1
ENCODING 1201
SWIDTH 472 0
DWIDTH 7 0
BBX 9 12 0 -5
BITMAP
747400
74F400
38F500
38FF40
39E900
2F8000
2F0000
BFC000
6E4000
1D0000
1D0000
1D0000
ENDCHAR
STARTCHAR uni04B2
ENCODING 1202
SWIDTH 716 0
DWIDTH 10 0
BBX 12 18 0 -5
BITMAP
1F8078
BBD0F4
91F2E0
00FB80
00BF00
007C00
00BC00
02FD00
07AD00
1F1E00
3D0F06
B80BFE
E003F4
000BD0
003ED0
00B6C0
00BB80
007E00
ENDCHAR
STARTCHAR uni04B3
ENCODING 1203
SWIDTH 601 0
DWIDTH 8 0
BBX 10 12 0 -5
BITMAP
1E6D00
2FFE00
16D400
12C000
B3D010
BBEAE0
7DBF80
007D00
01EC00
02A800
02F400
019000
ENDCHAR
STARTCHAR uni04B4
ENCODING 1204
SWIDTH 1040 0
DWIDTH 15 0
BBX 17 18 0 -5
BITMAP
06BFE4E000
2FAFA5E000
741E01E000
741E02E000
742D02D000
103C03D000
003C03C000
007807C000
00780BC000
00B41B8000
00B4378100
007EE2FB40
002F41BD00
000007F000
00002EE000
000038E000
00003EC000
00002F4000
ENDCHAR
STARTCHAR uni04B5
ENCODING 1205
SWIDTH 501 0
DWIDTH 7 0
BBX 9 15 0 -5
BITMAP
0BF400
06A400
000000
2C7000
38B000
38E000
75E000
7BD140
7EFB40
2CBD00
02F000
0AA000
0DD000
1F8000
050000
ENDCHAR
STARTCHAR uni04B6
ENCODING 1206
SWIDTH 804 0
DWIDTH 11 0
BBX 12 18 1 -5
BITMAP
2C01D0
3D02D0
3C02D0
3C03C0
7807C0
780BC0
782F80
3FF780
1FD740
000740
000BE7
0007FE
0001F4
000BE0
002DD0
0075C0
007B80
002E00
ENDCHAR
STARTCHAR uni04B7
ENCODING 1207
SWIDTH 631 0
DWIDTH 9 0
BBX 10 13 0 -5
BITMAP
038000
0BFF00
0D7E00
1CB800
29E000
B2C020
D2EBB0
01FF80
002E00
00AA00
01DD00
01F800
005000
ENDCHAR
STARTCHAR uni04B8
ENCODING 1208
SWIDTH 773 0
DWIDTH 11 0
BBX 10 13 1 0
BITMAP
2C01D0
3D02D0
3C02D0
3C43C0
78D7C0
78CBC0
79EF80
3FFB80
1FD780
028740
014B40
000B40
000B00
ENDCHAR
STARTCHAR uni04B9
ENCODING 1209
SWIDTH 575 0
DWIDTH 8 0
BBX 10 9 0 0
BITMAP
001000
037000
0BFB00
0EAE00
1D7800
38E010
B1D0A0
D1FBD0
00BE00
ENDCHAR
STARTCHAR uni04BA
ENCODING 1210
SWIDTH 755 0
DWIDTH 11 0
BBX 12 13 1 0
BITMAP
1D0000
2E0000
2D0000
2D0000
3C0000
3C0000
39BE00
7FAF40
7D0780
B80780
B40B49
F00BB8
A007E0
ENDCHAR
STARTCHAR uni04BB
ENCODING 1211
SWIDTH 502 0
DWIDTH 7 0
BBX 9 14 0 0
BITMAP
02D000
07F000
0A7000
1D6000
1C9000
2DC000
3B4000
3EB400
3AF400
7BB400
7E7040
7CB180
7CBB40
347D00
ENDCHAR
STARTCHAR uni04BC
ENCODING 1212
SWIDTH 808 0
DWIDTH 11 0
BBX 12 13 1 0
BITMAP
002F90
01FAF0
03D0B4
078074
0F4074
DF00B4
FFFFF0
6FAA90
1E0000
0F0000
0B8006
03FABF
006FE4
ENDCHAR
STARTCHAR uni04BD
ENCODING 1213
SWIDTH 483 0
DWIDTH 7 0
BBX 9 7 0 0
BITMAP
02F400
0BB800
0E3800
AEB000
7F4280
0FAF00
02F800
ENDCHAR
STARTCHAR uni04BE
ENCODING 1214
SWIDTH 808 0
DWIDTH 11 0
BBX 12 17 1 -4
BITMAP
002F90
01FAF0
03D0B4
078074
0F4074
DF00B4
FFFFF0
6FAA90
1E0000
0F0000
0B8006
03FABF
00BFE4
00D000
01C000
01E800
00BC00
ENDCHAR
STARTCHAR uni04BF
ENCODING 1215
SWIDTH 483 0
DWIDTH 7 0
BBX 9 12 0 -5
BITMAP
02F000
0BB800
0E3800
AEB400
BFD280
1F5B40
07FD00
01E000
01C000
02D000
01FC00
001000
ENDCHAR
STARTCHAR uni04C0
ENCODING 1216
SWIDTH 495 0
DWIDTH 7 0
BBX 8 13 0 0
BITMAP
1FFE
1AE9
02D0
02D0
03C0
03C0
0780
0780
0740
0B40
0B40
6FA0
FFF0
ENDCHAR
STARTCHAR uni04C1
ENCODING 1217
SWIDTH 1234 0
DWIDTH 17 0
BBX 19 16 0 0
BITMAP
0000005000
0000B1D000
00007F8000
06E01D07E0
0AB82D0FB4
042C2D1D10
001D3C3C00
001E3CB400
000F7EE000
0007FF8000
001FBBC000
007CB5E000
00B4B4F000
61E0F0B828
BBD0F03EB0
2F40E01F80
ENDCHAR
STARTCHAR uni04C2
ENCODING 1218
SWIDTH 717 0
DWIDTH 10 0
BBX 12 12 0 0
BITMAP
000040
01C280
01EB40
00BD00
000000
1E35F0
2FB7B8
12FB34
12FE01
B3BE0A
BB7BAD
7D71F4
ENDCHAR
STARTCHAR uni04C3
ENCODING 1219
SWIDTH 937 0
DWIDTH 13 0
BBX 15 18 0 -5
BITMAP
06FE01D0
1FAF02D0
3C1E03C0
382D0780
382D0F00
282D2D00
007EF400
00FFD000
0039F000
1078B800
B0B47D18
7AF02FF8
1F800BD0
00002F80
0000FB40
0001DB00
0002EE00
0000B800
ENDCHAR
STARTCHAR uni04C4
ENCODING 1220
SWIDTH 531 0
DWIDTH 7 0
BBX 9 12 0 -5
BITMAP
2CB800
3AEC00
3B5C00
7F4000
7F4040
7BEB80
35BE00
01F400
077000
0AB000
0BD000
024000
ENDCHAR
STARTCHAR uni04C5
ENCODING 1221
SWIDTH 861 0
DWIDTH 12 0
BBX 14 16 0 -3
BITMAP
0000F000
0002F000
0002F000
0003F000
0007F000
000BE000
000EE000
001DF000
003CF000
5078F010
A0F0B460
BBD07ED0
2F402F40
00001E00
00003C00
00003400
ENDCHAR
STARTCHAR uni04C6
ENCODING 1222
SWIDTH 549 0
DWIDTH 8 0
BBX 10 10 0 -3
BITMAP
00B400
00F400
02F400
53B440
E774D0
FE3F80
782F00
002D00
003800
007000
ENDCHAR
STARTCHAR uni04C7
ENCODING 1223
SWIDTH 907 0
DWIDTH 13 0
BBX 15 19 0 -5
BITMAP
00000140
1B800FC0
7BD02DD0
D1D038D0
81D074C0
02D0B680
02D0BA00
1BEAF800
2FFEE000
0780E000
0780F000
0B40F414
0F00BFF4
0A002F90
00007F00
0001EB00
0003CE00
0003ED00
0001F400
ENDCHAR
STARTCHAR uni04C8
ENCODING 1224
SWIDTH 515 0
DWIDTH 7 0
BBX 9 12 0 -5
BITMAP
2C3400
387000
3AF000
7FE000
74E140
74FB40
347D00
01F000
07B000
0DA000
0FC000
050000
ENDCHAR
STARTCHAR uni04C9
ENCODING 1225
SWIDTH 873 0
DWIDTH 12 0
BBX 14 17 0 -3
BITMAP
00000140
1B800FC0
7BD02DD0
D1D038D0
81D074C0
02D0B680
02D0BA00
1BEAF800
2FFEE000
0780E000
0780F010
0B40F070
0F00BFD0
0A002F80
00000E00
00002C00
00003400
ENDCHAR
STARTCHAR uni04CA
ENCODING 1226
SWIDTH 475 0
DWIDTH 7 0
BBX 9 10 0 -3
BITMAP
2C3400
387000
3AB000
7FE000
74E340
74FE00
34BC00
00B000
00E000
004000
ENDCHAR
STARTCHAR uni04CB
ENCODING 1227
SWIDTH 773 0
DWIDTH 11 0
BBX 10 18 1 -5
BITMAP
2C01D0
3D02D0
3C02D0
3C03C0
7807C0
780BC0
782F80
3FF780
1FD780
000740
000B40
002F40
007F00
02F800
0B7400
1E7000
1EE000
0B8000
ENDCHAR
STARTCHAR uni04CC
ENCODING 1228
SWIDTH 555 0
DWIDTH 8 0
BBX 10 10 0 -2
BITMAP
038000
0BFF00
0D7E00
1CB800
39E010
B2C0E0
D2EB80
00BF00
000A00
000400
ENDCHAR
STARTCHAR uni04CD
ENCODING 1229
SWIDTH 1133 0
DWIDTH 16 0
BBX 18 16 0 -3
BITMAP
000B40F000
000F81F000
001F83F000
001F87F000
002F8BF000
002B8EF000
003B9DE000
0077ACE000
00B7B8F000
40B2F4F000
A1E2F0B0A0
BBC1E07AD0
2E40D02F40
0000002D00
0000003800
0000007000
ENDCHAR
STARTCHAR uni04CE
ENCODING 1230
SWIDTH 734 0
DWIDTH 10 0
BBX 12 10 0 -3
BITMAP
00E1D0
01E3D0
02EBD0
53BED1
E77DD3
FE78FE
7834B8
0000B0
0001D0
000180
ENDCHAR
STARTCHAR uni04CF
ENCODING 1231
SWIDTH 222 0
DWIDTH 3 0
BBX 4 12 0 0
BITMAP
0A
0E
1E
1D
2D
2C
3C
38
78
74
74
70
ENDCHAR
STARTCHAR uni04D0
ENCODING 1232
SWIDTH 786 0
DWIDTH 11 0
BBX 13 16 0 0
BITMAP
00000900
000A1D00
0007F400
001BF900
00BFBE00
03E01000
0B80B400
1E00F000
2D00E000
3C01E000
3C02D000
7C03D000
3C07D040
3D0FD280
1FBAFB40
07E0BD00
ENDCHAR
STARTCHAR uni04D1
ENCODING 1233
SWIDTH 470 0
DWIDTH 7 0
BBX 9 12 0 0
BITMAP
000400
1C1C00
1EB400
07D000
000000
079000
1FF000
3CB000
74E000
75E240
7BFE00
2E7800
ENDCHAR
STARTCHAR uni04D2
ENCODING 1234
SWIDTH 786 0
DWIDTH 11 0
BBX 13 15 0 0
BITMAP
000B3C00
000B2800
001BF900
00BFBE00
03E01000
0B80B400
1E00F000
2D00E000
3C01E000
3C02D000
7C03D000
3C07D040
3D0FD280
1FBAFB40
07E0BD00
ENDCHAR
STARTCHAR uni04D3
ENCODING 1235
SWIDTH 470 0
DWIDTH 7 0
BBX 9 10 0 0
BITMAP
0F3C00
0A3800
000000
079000
1FF000
3CB000
74E000
75E240
7BFE00
2E7800
ENDCHAR
STARTCHAR uni04D4
ENCODING 1236
SWIDTH 1015 0
DWIDTH 14 0
BBX 16 13 0 0
BITMAP
001B5FFC
01FF7EA4
07E07800
0B80B400
1F00F400
2D00F000
3C01FFF0
3C02FAA0
7C03E000
3C07E000
3D0FF006
1FBCBEBE
07E42FE4
ENDCHAR
STARTCHAR uni04D5
ENCODING 1237
SWIDTH 653 0
DWIDTH 9 0
BBX 11 7 0 0
BITMAP
06EF40
1FBFC0
38B2C0
74FB44
75F92C
7BFEF4
2E2F90
ENDCHAR
STARTCHAR uni04D6
ENCODING 1238
SWIDTH 686 0
DWIDTH 10 0
BBX 12 16 0 0
BITMAP
001050
00B1D0
007F80
01BF80
07EBE0
0F40F0
0F00F0
0F0090
07E400
0BF800
2E4000
780000
B80000
7C0019
2FAAFC
06FF90
ENDCHAR
STARTCHAR uni04D7
ENCODING 1239
SWIDTH 393 0
DWIDTH 6 0
BBX 8 12 0 0
BITMAP
0010
2834
2EE0
1F80
0000
0B80
3ED0
75D0
7B80
791D
3EB8
1BD0
ENDCHAR
STARTCHAR uni04D8
ENCODING 1240
SWIDTH 792 0
DWIDTH 11 0
BBX 10 13 1 0
BITMAP
06F900
2FAF80
3807D0
1002E0
0001E0
0001E0
6AAAE0
FFFFE0
F002D0
F003C0
B80B40
3EBE00
0BE400
ENDCHAR
STARTCHAR uni04D9
ENCODING 1241
SWIDTH 455 0
DWIDTH 6 0
BBX 8 7 0 0
BITMAP
2F90
2AF0
2AFA
7FFF
B0B0
7AE0
2F80
ENDCHAR
STARTCHAR uni04DA
ENCODING 1242
SWIDTH 792 0
DWIDTH 11 0
BBX 10 15 1 0
BITMAP
03CF00
02CE00
06F900
2FAF80
3807D0
1002E0
0001E0
0001E0
6AAAE0
FFFFE0
F002D0
F003C0
B80B40
3EBE00
0BE400
ENDCHAR
STARTCHAR uni04DB
ENCODING 1243
SWIDTH 455 0
DWIDTH 6 0
BBX 8 10 0 0
BITMAP
1DB4
1D70
0000
2F90
2AF0
2AFA
7FFF
B0B0
7AE0
2F80
ENDCHAR
STARTCHAR uni04DC
ENCODING 1244
SWIDTH 1234 0
DWIDTH 17 0
BBX 19 15 0 0
BITMAP
0000B2C000
0000B2C000
06E01D07E0
0AB82D0FB4
042C2D1D10
001D3C3C00
001E3CB400
000F7EE000
0007FF8000
001FBBC000
007CB5E000
00B4B4F000
61E0F0B828
BBD0F03EB0
2F40E01F80
ENDCHAR
STARTCHAR uni04DD
ENCODING 1245
SWIDTH 717 0
DWIDTH 10 0
BBX 12 10 0 0
BITMAP
00E780
00E340
000000
1E35F0
2FB7B8
12FB34
12FE01
B3BE0A
BB7BAD
7D71F4
ENDCHAR
STARTCHAR uni04DE
ENCODING 1246
SWIDTH 725 0
DWIDTH 10 0
BBX 9 15 1 0
BITMAP
03CF00
028E00
06F800
1FAF00
3C0F00
380B00
240E00
002D00
07FD00
024B40
500780
E00B80
F01F40
BABD00
2FE400
ENDCHAR
STARTCHAR uni04DF
ENCODING 1247
SWIDTH 435 0
DWIDTH 6 0
BBX 9 17 -1 -7
BITMAP
0F3800
0E3800
000000
06E000
0EB800
003400
00B000
0B9280
0F1F40
07F800
02E000
0BD000
2DD000
75C000
738000
BB4000
7D0000
ENDCHAR
STARTCHAR uni04E0
ENCODING 1248
SWIDTH 744 0
DWIDTH 10 0
BBX 10 13 1 0
BITMAP
07FE90
2EABE0
380780
380B40
281F00
003D00
07FD00
024B40
500780
E00B80
F01F40
BABD00
2FE400
ENDCHAR
STARTCHAR uni04E1
ENCODING 1249
SWIDTH 435 0
DWIDTH 6 0
BBX 9 14 -1 -7
BITMAP
0FFD00
0ABD00
02E000
0B4040
0E0780
0F6E00
02F400
03D000
0ED000
29D000
72C000
738000
BB4000
7D0000
ENDCHAR
STARTCHAR uni04E2
ENCODING 1250
SWIDTH 890 0
DWIDTH 12 0
BBX 15 15 0 0
BITMAP
001A9000
002FE000
1B800D00
7BD01E00
E1E01E00
82D02D00
02D02D00
03C03C00
03C07C00
0780BC00
0B40F800
0B42B810
0B477874
0BFD3FE0
02F41F80
ENDCHAR
STARTCHAR uni04E3
ENCODING 1251
SWIDTH 462 0
DWIDTH 6 0
BBX 9 10 0 0
BITMAP
0AA000
0FF400
000000
1C7000
38B000
38E000
75E000
7BD340
7EFE00
2CB800
ENDCHAR
STARTCHAR uni04E4
ENCODING 1252
SWIDTH 890 0
DWIDTH 12 0
BBX 15 15 0 0
BITMAP
002CB000
002CB000
1B800D00
7BD01E00
E1E01E00
82D02D00
02D02D00
03C03C00
03C07C00
0780BC00
0B40F800
0B42B810
0B477874
0BFD3FE0
02F41F80
ENDCHAR
STARTCHAR uni04E5
ENCODING 1253
SWIDTH 462 0
DWIDTH 6 0
BBX 9 10 0 0
BITMAP
0E3800
0E3400
000000
1C7000
38B000
38E000
75E000
7BD340
7EFE00
2CB800
ENDCHAR
STARTCHAR uni04E6
ENCODING 1254
SWIDTH 816 0
DWIDTH 11 0
BBX 10 15 1 0
BITMAP
01E740
01D740
01BE00
0BEFC0
2E02E0
7C01F0
B400F0
F000F0
F000F0
F000F0
F001E0
F402D0
B80B80
3FBE00
0BE400
ENDCHAR
STARTCHAR uni04E7
ENCODING 1255
SWIDTH 451 0
DWIDTH 6 0
BBX 8 10 0 0
BITMAP
2DB4
1DB0
0000
0B80
3EE0
75FA
74BE
74A0
7ED0
1F40
ENDCHAR
STARTCHAR uni04E8
ENCODING 1256
SWIDTH 816 0
DWIDTH 11 0
BBX 10 13 1 0
BITMAP
01BE00
0BEBC0
2E02E0
7C01F0
B800F0
F400F0
FFFFF0
FAAAF0
F001E0
F402D0
B80780
3EAE00
0BE400
ENDCHAR
STARTCHAR uni04E9
ENCODING 1257
SWIDTH 451 0
DWIDTH 6 0
BBX 8 7 0 0
BITMAP
0B80
3EE0
74B5
7FFF
7AF9
7EE0
1F80
ENDCHAR
STARTCHAR uni04EA
ENCODING 1258
SWIDTH 816 0
DWIDTH 11 0
BBX 10 15 1 0
BITMAP
01E740
01D740
01BE00
0BEBC0
2E02E0
7C01F0
B800F0
F400F0
FFFFF0
FAAAF0
F001E0
F402D0
B80780
3EAE00
0BE400
ENDCHAR
STARTCHAR uni04EB
ENCODING 1259
SWIDTH 451 0
DWIDTH 6 0
BBX 8 10 0 0
BITMAP
2DB4
1DB0
0000
0B80
3EE0
74B5
7FFF
7AF9
7EE0
1F80
ENDCHAR
STARTCHAR uni04EC
ENCODING 1260
SWIDTH 755 0
DWIDTH 11 0
BBX 11 15 0 0
BITMAP
00F3C0
00A380
02FE00
0FABC0
2D02E0
1400F0
0000F4
0000B4
03FFF4
02AAF0
1000F0
7402D0
7807C0
3EAF40
1BF800
ENDCHAR
STARTCHAR uni04ED
ENCODING 1261
SWIDTH 466 0
DWIDTH 7 0
BBX 9 10 0 0
BITMAP
1E7400
1D7400
000000
1F9000
2AF000
02BA40
17FF40
70B400
7AE000
2F8000
ENDCHAR
STARTCHAR uni04EE
ENCODING 1262
SWIDTH 824 0
DWIDTH 12 0
BBX 14 19 0 -4
BITMAP
001A9000
002FD000
1B800D00
7BD01E00
62D02D00
02D03D00
03C07D00
03C0BC00
03C2FC00
03EB7800
01F97980
0000BFD0
000BF900
007EB000
01F4F000
02D1E000
02D2C000
01FF4000
00640000
ENDCHAR
STARTCHAR uni04EF
ENCODING 1263
SWIDTH 479 0
DWIDTH 7 0
BBX 9 17 0 -7
BITMAP
0AA000
0FF400
000000
1C7000
38B000
38F000
75E100
7BE740
7FFD00
2DF400
07C000
1FC000
378000
A34000
DB0000
EE0000
B80000
ENDCHAR
STARTCHAR uni04F0
ENCODING 1264
SWIDTH 824 0
DWIDTH 12 0
BBX 14 19 0 -4
BITMAP
003CF000
0028E000
1B800D00
7BD01E00
62D02D00
02D03D00
03C07D00
03C0BC00
03C2FC00
03EB7800
01F97980
0000BFD0
000BF900
007EB000
01F4F000
02D1E000
02D2C000
01FF4000
00640000
ENDCHAR
STARTCHAR uni04F1
ENCODING 1265
SWIDTH 479 0
DWIDTH 7 0
BBX 9 17 0 -7
BITMAP
0E3800
0E3400
000000
1C7000
38B000
38F000
75E100
7BE740
7FFD00
2DF400
07C000
1FC000
378000
A34000
DB0000
EE0000
B80000
ENDCHAR
STARTCHAR uni04F2
ENCODING 1266
SWIDTH 824 0
DWIDTH 12 0
BBX 14 21 0 -4
BITMAP
00051000
000E7400
001DB000
00189000
1B800D00
7BD01E00
62D02D00
02D03D00
03C07D00
03C0BC00
03C2FC00
03EB7800
01F97980
0000BFD0
000BF900
007EB000
01F4F000
02D1E000
02D2C000
01FF4000
00640000
ENDCHAR
STARTCHAR uni04F3
ENCODING 1267
SWIDTH 479 0
DWIDTH 7 0
BBX 9 20 0 -7
BITMAP
014400
02DD00
03AC00
073800
093000
000000
1C7000
38B000
38F000
75E100
7BE740
7FFD00
2DF400
07C000
1FC000
378000
A34000
DB0000
EE0000
B80000
ENDCHAR
STARTCHAR uni04F4
ENCODING 1268
SWIDTH 773 0
DWIDTH 11 0
BBX 10 15 1 0
BITMAP
03CF00
028E00
2C01D0
3D02D0
3C02D0
3C03C0
7807C0
780BC0
782F80
3FF780
1FD780
000740
000B40
000B40
000B00
ENDCHAR
STARTCHAR uni04F5
ENCODING 1269
SWIDTH 555 0
DWIDTH 8 0
BBX 10 10 0 0
BITMAP
01E780
00D740
038000
0BFF00
0D7E00
1CB800
39E010
B2C0E0
D2EBC0
00BE00
ENDCHAR
STARTCHAR uni04F6
ENCODING 1270
SWIDTH 600 0
DWIDTH 8 0
BBX 12 18 0 -5
BITMAP
06FFFF
2FFAA5
78B400
74F000
74F000
01E000
01E000
02D000
02D000
02D000
03C000
03F400
02F400
0BB000
2DA000
3DD000
2FC000
050000
ENDCHAR
STARTCHAR uni04F7
ENCODING 1271
SWIDTH 441 0
DWIDTH 6 0
BBX 8 12 0 -5
BITMAP
2F80
3BC0
02C0
1E00
7405
7AAD
2FF4
07C0
2EC0
3680
3F00
1400
ENDCHAR
STARTCHAR uni04F8
ENCODING 1272
SWIDTH 1078 0
DWIDTH 15 0
BBX 15 15 0 0
BITMAP
00079E00
00075D00
03400074
07800078
0B4000B4
0B0000B4
0F0000B4
0FBF40F0
7FABE0F0
7D01F1E0
1D00F1E0
1D01E2D0
1E02D2D0
0FAF82D0
02F902C0
ENDCHAR
STARTCHAR uni04F9
ENCODING 1273
SWIDTH 702 0
DWIDTH 10 0
BBX 12 10 0 0
BITMAP
01D740
01D740
000000
1C01D0
3C02D0
3AE7C0
7EFFC0
787F8A
3EF7ED
1B91E4
ENDCHAR
STARTCHAR uni04FA
ENCODING 1274
SWIDTH 635 0
DWIDTH 9 0
BBX 13 18 -1 -5
BITMAP
01BFFFC0
0BFEA940
1E2D0000
1D2D0000
1D3C0000
083C0000
02FF4000
01BA0000
00B40000
00B40000
00F00000
00F00000
01E00000
01E00000
02D00000
63C00000
FB400000
7E000000
ENDCHAR
STARTCHAR uni04FB
ENCODING 1275
SWIDTH 441 0
DWIDTH 6 0
BBX 8 12 0 -5
BITMAP
2F80
3BC0
03C0
BF40
7A45
7AAD
2FF4
07C0
2EC0
3680
3F00
1400
ENDCHAR
STARTCHAR uni04FC
ENCODING 1276
SWIDTH 716 0
DWIDTH 10 0
BBX 12 18 0 -5
BITMAP
1F8078
BBD0F4
91F2E0
00FB80
00BF00
007C00
00BC00
02FD00
07AD00
1F1E00
3D0F06
B80BFE
E003F4
000BD0
003ED0
00B6C0
00BB80
007E00
ENDCHAR
STARTCHAR uni04FD
ENCODING 1277
SWIDTH 601 0
DWIDTH 8 0
BBX 10 12 0 -5
BITMAP
1E6D00
2FFE00
16D400
12C000
B3D010
BBEAE0
7DBF80
007D00
01EC00
02A800
02F400
019000
ENDCHAR
STARTCHAR uni04FE
ENCODING 1278
SWIDTH 712 0
DWIDTH 10 0
BBX 12 13 0 0
BITMAP
1F8078
7BD0F4
D1E2E0
00F7C0
00BF40
007E00
0BFFC0
06FE40
02FD00
0B5E00
2E0F06
B80BAD
E002F4
ENDCHAR
STARTCHAR uni04FF
ENCODING 1279
SWIDTH 529 0
DWIDTH 7 0
BBX 9 7 0 0
BITMAP
1E6D00
2FFE00
17E400
67F440
B3D1C0
BBFB80
7DBD00
ENDCHAR
STARTCHAR uni0510
ENCODING 1296
SWIDTH 706 0
DWIDTH 10 0
BBX 10 13 0 0
BITMAP
01BE00
07EBC0
0B42D0
0F01D0
0B0180
078000
0BF800
2D5400
7C0080
7C01D0
3D02D0
2FAF80
06F900
ENDCHAR
STARTCHAR uni0511
ENCODING 1297
SWIDTH 392 0
DWIDTH 5 0
BBX 7 7 0 0
BITMAP
1F80
3AC0
3900
2E04
B41C
BAF8
2F90
ENDCHAR
STARTCHAR uni0512
ENCODING 1298
SWIDTH 884 0
DWIDTH 12 0
BBX 14 18 0 -5
BITMAP
0000F000
0002F000
0002F000
0003F000
0007F000
000BE000
000EE000
001DF000
003CF000
5078F000
A0F0B420
BBD07FF0
2F402F80
00007F00
0002EE00
00038D00
0003FC00
0002F400
ENDCHAR
STARTCHAR uni0513
ENCODING 1299
SWIDTH 631 0
DWIDTH 9 0
BBX 10 12 0 -5
BITMAP
00B400
00F400
01F400
53B400
E77410
FE7AB0
783F90
002E00
00AE00
01DD00
01F800
005000
ENDCHAR
STARTCHAR uni051A
ENCODING 1306
SWIDTH 816 0
DWIDTH 11 0
BBX 12 18 1 -5
BITMAP
01BE00
0BEFC0
2E02E0
7C01F0
B400F0
F000F0
F000F0
F000F0
F001E0
F403D0
7D0B80
2FFE00
06F400
00B800
003D05
002E1C
000FF8
000290
ENDCHAR
STARTCHAR uni051B
ENCODING 1307
SWIDTH 500 0
DWIDTH 7 0
BBX 9 14 0 -6
BITMAP
001400
07F800
1FF400
3CB000
74E000
75EF80
7BDE40
2EDC00
02CC00
02CC00
02DC00
02D800
02F400
00E000
ENDCHAR
STARTCHAR uni051C
ENCODING 1308
SWIDTH 1217 0
DWIDTH 17 0
BBX 18 13 1 0
BITMAP
2C00D02E00
3C01E0BB40
3C02D0D740
7C03D0D740
7803D0EB40
7807D0BF00
780BD03FA0
780FD02FF0
781ED03800
3C2DD0B400
3D74E1E000
1FE0BF8000
0B807E0000
ENDCHAR
STARTCHAR uni051D
ENCODING 1309
SWIDTH 700 0
DWIDTH 10 0
BBX 12 7 0 0
BITMAP
74A1D0
74F2E0
75F2EA
76F3FD
3BBB00
3E7E00
2D3800
ENDCHAR
STARTCHAR uni0524
ENCODING 1316
SWIDTH 892 0
DWIDTH 12 0
BBX 15 18 0 -5
BITMAP
06BFFEA0
2FFAAFF4
78B41E00
74B41E00
74F02D00
10F02D00
01E03C00
01E03C00
01E07800
02D07800
02D07E20
03D03FF0
02C00B80
00007F00
0001EE00
00038D00
0003EC00
0002F400
ENDCHAR
STARTCHAR uni0525
ENCODING 1317
SWIDTH 536 0
DWIDTH 8 0
BBX 9 12 0 -5
BITMAP
2CB400
3AF400
3BB400
7EB000
7CB040
78BB80
347E00
01F400
077400
0AB000
0BD000
024000
ENDCHAR
STARTCHAR uni0526
ENCODING 1318
SWIDTH 818 0
DWIDTH 11 0
BBX 12 18 1 -5
BITMAP
0E0000
1E0000
1E0000
2D0000
3D0000
3C0000
3CBE00
7BAF40
7D0780
B80780
B40791
F40BFB
B007F8
0006E0
001EE0
0039D0
007FC0
002F40
ENDCHAR
STARTCHAR uni0527
ENCODING 1319
SWIDTH 542 0
DWIDTH 8 0
BBX 9 19 0 -5
BITMAP
02D000
07B000
0A7000
1D6000
1C9000
2DC000
3B4000
3EB400
3AF400
7BB400
7E7000
7CB080
7CBB80
347E00
00F800
037400
0A7000
0BD000
024000
ENDCHAR
STARTCHAR uni0528
ENCODING 1320
SWIDTH 873 0
DWIDTH 12 0
BBX 16 19 -2 -5
BITMAP
00000014
01B800FC
07BD02DD
0D1D038D
081D074C
002D0B68
002D0BB0
01BEAF80
02FFEE00
00780E00
00780E00
00B40F07
00B40BAE
00F002F4
00F00000
01E00000
62D00000
BB800000
2E000000
ENDCHAR
STARTCHAR uni0529
ENCODING 1321
SWIDTH 475 0
DWIDTH 7 0
BBX 11 12 -2 -5
BITMAP
02C340
038700
03AB00
07FE00
074E34
074FA0
074B80
034000
074000
774000
7F0000
180000
ENDCHAR
STARTCHAR uni052E
ENCODING 1326
SWIDTH 884 0
DWIDTH 12 0
BBX 14 18 0 -5
BITMAP
0000F000
0002F000
0002F000
0003F000
0007F000
000BE000
000EE000
001DF000
003CF000
5078F000
A0F0B420
BBD07FF0
2F402F80
00007F00
0002EE00
00038D00
0003FC00
0002F400
ENDCHAR
STARTCHAR uni052F
ENCODING 1327
SWIDTH 631 0
DWIDTH 9 0
BBX 10 12 0 -5
BITMAP
00B400
00F400
01F400
53B400
E77410
FE7AB0
783F90
002E00
00AE00
01DD00
01F800
005000
ENDCHAR
STARTCHAR Wgrave
ENCODING 7808
SWIDTH 1217 0
DWIDTH 17 0
BBX 18 17 1 0
BITMAP
0014000000
003D000000
001F400000
0001C00000
2C00D02E00
3C01E0BB40
3C02D0D740
7C03D0D740
7803D0EB40
7807D0BF00
780BD03FA0
780FD02FF0
781ED03800
3C2DD0B400
3D74E1E000
1FE0BF8000
0B807E0000
ENDCHAR
STARTCHAR wgrave
ENCODING 7809
SWIDTH 700 0
DWIDTH 10 0
BBX 12 13 0 0
BITMAP
010000
078000
02C000
00D000
006000
000000
74A1D0
74F2E0
75F2EA
76F3FD
3BBB00
3E7E00
2D3800
ENDCHAR
STARTCHAR Wacute
ENCODING 7810
SWIDTH 1217 0
DWIDTH 17 0
BBX 18 17 1 0
BITMAP
0000010000
00000B4000
00002E0000
0000A40000
2C00D02E00
3C01E0BB40
3C02D0D740
7C03D0D740
7803D0EB40
7807D0BF00
780BD03FA0
780FD02FF0
781ED03800
3C2DD0B400
3D74E1E000
1FE0BF8000
0B807E0000
ENDCHAR
STARTCHAR wacute
ENCODING 7811
SWIDTH 700 0
DWIDTH 10 0
BBX 12 13 0 0
BITMAP
000500
000F00
001D00
002800
003000
000000
74A1D0
74F2E0
75F2EA
76F3FD
3BBB00
3E7E00
2D3800
ENDCHAR
STARTCHAR Wdieresis
ENCODING 7812
SWIDTH 1217 0
DWIDTH 17 0
BBX 18 15 1 0
BITMAP
00079D0000
00075D0000
2C00D02E00
3C01E0BB40
3C02D0D740
7C03D0D740
7803D0EB40
7807D0BF00
780BD03FA0
780FD02FF0
781ED03800
3C2DD0B400
3D74E1E000
1FE0BF8000
0B807E0000
ENDCHAR
STARTCHAR wdieresis
ENCODING 7813
SWIDTH 700 0
DWIDTH 10 0
BBX 12 10 0 0
BITMAP
03CF00
028E00
000000
74A1D0
74F2E0
75F2EA
76F3FD
3BBB00
3E7E00
2D3800
ENDCHAR
STARTCHAR uni1E9E
ENCODING 7838
SWIDTH 843 0
DWIDTH 12 0
BBX 11 14 1 -1
BITMAP
0D1BD0
2D7AF0
2DD0B4
3E80F0
3F02E0
7E2F40
7D3F80
7C06E0
B800F0
B800F0
B401E0
B40BD0
B0BE40
005400
ENDCHAR
STARTCHAR uni1EA0
ENCODING 7840
SWIDTH 786 0
DWIDTH 11 0
BBX 13 16 0 -3
BITMAP
001BF900
00BFBE00
03E01000
0B80B400
1E00F000
2D00E000
3C01E000
3C02D000
7C03D000
3C07D040
3D0FD280
1FBAFB40
07E0BD00
00000000
00F40000
00F00000
ENDCHAR
STARTCHAR uni1EA1
ENCODING 7841
SWIDTH 470 0
DWIDTH 7 0
BBX 9 10 0 -3
BITMAP
079000
1FF000
3CB000
74E000
75E240
7BFE00
2E7800
000000
1E0000
1E0000
ENDCHAR
STARTCHAR uni1EA2
ENCODING 7842
SWIDTH 786 0
DWIDTH 11 0
BBX 13 17 0 0
BITMAP
0002E000
0001B400
0000B400
0001E000
001BF900
00BFBE00
03E01000
0B80B400
1E00F000
2D00E000
3C01E000
3C02D000
7C03D000
3C07D040
3D0FD280
1FBAFB40
07E0BD00
ENDCHAR
STARTCHAR uni1EA3
ENCODING 7843
SWIDTH 470 0
DWIDTH 7 0
BBX 9 13 0 0
BITMAP
019000
02F400
003400
00B400
01D000
000000
079000
1FF000
3CB000
74E000
75E240
7BFE00
2E7800
ENDCHAR
STARTCHAR uni1EA4
ENCODING 7844
SWIDTH 786 0
DWIDTH 11 0
BBX 13 22 0 0
BITMAP
00000100
00000B80
00002E00
00006400
00000000
0001E000
0003F400
000B7800
000E2800
001BF900
00BFBE00
03E01000
0B80B400
1E00F000
2D00E000
3C01E000
3C02D000
7C03D000
3C07D040
3D0FD280
1FBAFB40
07E0BD00
ENDCHAR
STARTCHAR uni1EA5
ENCODING 7845
SWIDTH 470 0
DWIDTH 7 0
BBX 9 13 0 0
BITMAP
000280
000A40
01E000
077400
0E2800
000000
079000
1FF000
3CB000
74E000
75E240
7BFE00
2E7800
ENDCHAR
STARTCHAR uni1EA6
ENCODING 7846
SWIDTH 786 0
DWIDTH 11 0
BBX 13 22 0 0
BITMAP
00140000
002D0000
001B8000
0001D000
00000000
0001E000
0003F400
000B7800
000E2800
001BF900
00BFBE00
03E01000
0B80B400
1E00F000
2D00E000
3C01E000
3C02D000
7C03D000
3C07D040
3D0FD280
1FBAFB40
07E0BD00
ENDCHAR
STARTCHAR uni1EA7
ENCODING 7847
SWIDTH 470 0
DWIDTH 7 0
BBX 9 13 0 0
BITMAP
340000
2D0000
01E000
077400
0E2800
000000
079000
1FF000
3CB000
74E000
75E240
7BFE00
2E7800
ENDCHAR
STARTCHAR uni1EA8
ENCODING 7848
SWIDTH 786 0
DWIDTH 11 0
BBX 13 22 0 0
BITMAP
0000F800
0000AC00
00006C00
0000B400
00000000
0001E000
0003F400
000B7800
000E2800
001BF900
00BFBE00
03E01000
0B80B400
1E00F000
2D00E000
3C01E000
3C02D000
7C03D000
3C07D040
3D0FD280
1FBAFB40
07E0BD00
ENDCHAR
STARTCHAR uni1EA9
ENCODING 7849
SWIDTH 470 0
DWIDTH 7 0
BBX 9 13 0 0
BITMAP
000B40
000A80
009680
03FB40
0B7800
091400
079000
1FF000
3CB000
74E000
75E240
7BFE00
2E7800
ENDCHAR
STARTCHAR uni1EAA
ENCODING 7850
SWIDTH 786 0
DWIDTH 11 0
BBX 13 21 0 0
BITMAP
00038300
000BFB00
00092D00
00000000
0001E000
0003F400
000B7800
000E2800
001BF900
00BFBE00
03E01000
0B80B400
1E00F000
2D00E000
3C01E000
3C02D000
7C03D000
3C07D040
3D0FD280
1FBAFB40
07E0BD00
ENDCHAR
STARTCHAR uni1EAB
ENCODING 7851
SWIDTH 470 0
DWIDTH 7 0
BBX 9 14 0 0
BITMAP
038900
0ABC00
045400
02F000
077400
0E2800
000000
079000
1FF000
3CB000
74E000
75E240
7BFE00
2E7800
ENDCHAR
STARTCHAR uni1EAC
ENCODING 7852
SWIDTH 786 0
DWIDTH 11 0
BBX 13 20 0 -3
BITMAP
0001E000
0003F400
000B7800
000E2800
001BF900
00BFBE00
03E01000
0B80B400
1E00F000
2D00E000
3C01E000
3C02D000
7C03D000
3C07D040
3D0FD280
1FBAFB40
07E0BD00
00000000
00F40000
00F00000
ENDCHAR
STARTCHAR uni1EAD
ENCODING 7853
SWIDTH 470 0
DWIDTH 7 0
BBX 9 16 0 -3
BITMAP
00A000
02F000
077400
0B3800
0D2400
000000
079000
1FF000
3CB000
74E000
75E240
7BFE00
2E7800
000000
1E0000
1E0000
ENDCHAR
STARTCHAR uni1EAE
ENCODING 7854
SWIDTH 786 0
DWIDTH 11 0
BBX 13 18 0 0
BITMAP
00002800
0000B400
000D0900
000FBD00
0007F400
001BF900
00BFBE00
03E01000
0B80B400
1E00F000
2D00E000
3C01E000
3C02D000
7C03D000
3C07D040
3D0FD280
1FBAFB40
07E0BD00
ENDCHAR
STARTCHAR uni1EAF
ENCODING 7855
SWIDTH 470 0
DWIDTH 7 0
BBX 9 13 0 0
BITMAP
002800
00B400
1C0900
1FBD00
07E400
000000
079000
1FF000
3CB000
74E000
75E240
7BFE00
2E7800
ENDCHAR
STARTCHAR uni1EB0
ENCODING 7856
SWIDTH 786 0
DWIDTH 11 0
BBX 13 18 0 0
BITMAP
00074000
0003C000
00084500
001E5D00
000BF800
001BF900
00BFBE00
03E01000
0B80B400
1E00F000
2D00E000
3C01E000
3C02D000
7C03D000
3C07D040
3D0FD280
1FBAFB40
07E0BD00
ENDCHAR
STARTCHAR uni1EB1
ENCODING 7857
SWIDTH 470 0
DWIDTH 7 0
BBX 9 13 0 0
BITMAP
070000
07C000
084400
1E6D00
0BF800
014000
079000
1FF000
3CB000
74E000
75E240
7BFE00
2E7800
ENDCHAR
STARTCHAR uni1EB2
ENCODING 7858
SWIDTH 786 0
DWIDTH 11 0
BBX 13 19 0 0
BITMAP
0001E000
0001B000
0000B000
0005E400
001FAD00
0007F400
001BF900
00BFBE00
03E01000
0B80B400
1E00F000
2D00E000
3C01E000
3C02D000
7C03D000
3C07D040
3D0FD280
1FBAFB40
07E0BD00
ENDCHAR
STARTCHAR uni1EB3
ENCODING 7859
SWIDTH 470 0
DWIDTH 7 0
BBX 9 14 0 0
BITMAP
02E000
01B000
00B000
05D400
1FBD00
07F400
000000
079000
1FF000
3CB000
74E000
75E240
7BFE00
2E7800
ENDCHAR
STARTCHAR uni1EB4
ENCODING 7860
SWIDTH 786 0
DWIDTH 11 0
BBX 13 18 0 0
BITMAP
0007DA00
000ABD00
00081900
001E6D00
000BF800
001BF900
00BFBE00
03E01000
0B80B400
1E00F000
2D00E000
3C01E000
3C02D000
7C03D000
3C07D040
3D0FD280
1FBAFB40
07E0BD00
ENDCHAR
STARTCHAR uni1EB5
ENCODING 7861
SWIDTH 470 0
DWIDTH 7 0
BBX 9 13 0 0
BITMAP
078A00
0EBC00
081900
1E6D00
0BF800
014000
079000
1FF000
3CB000
74E000
75E240
7BFE00
2E7800
ENDCHAR
STARTCHAR uni1EB6
ENCODING 7862
SWIDTH 786 0
DWIDTH 11 0
BBX 13 19 0 -3
BITMAP
001D0900
000FBD00
0007E400
001BF900
00BFBE00
03E01000
0B80B400
1E00F000
2D00E000
3C01E000
3C02D000
7C03D000
3C07D040
3D0FD280
1FBAFB40
07E0BD00
00000000
00F40000
00F00000
ENDCHAR
STARTCHAR uni1EB7
ENCODING 7863
SWIDTH 470 0
DWIDTH 7 0
BBX 9 15 0 -3
BITMAP
040400
1D1D00
0FBC00
07E400
000000
079000
1FF000
3CB000
74E000
75E240
7BFE00
2E7800
000000
1E0000
1E0000
ENDCHAR
STARTCHAR uni1EB8
ENCODING 7864
SWIDTH 686 0
DWIDTH 10 0
BBX 12 16 0 -3
BITMAP
01BF80
07EBE0
0F40F0
0F00F0
0F0090
07E400
0BF800
2E4000
780000
B80000
7C0019
2FAAFC
06FF90
000000
01F000
01E000
ENDCHAR
STARTCHAR uni1EB9
ENCODING 7865
SWIDTH 393 0
DWIDTH 6 0
BBX 8 10 0 -3
BITMAP
0B80
3ED0
75D0
7B80
791D
3EB8
1BD0
0000
0F00
0F00
ENDCHAR
STARTCHAR uni1EBA
ENCODING 7866
SWIDTH 686 0
DWIDTH 10 0
BBX 12 17 0 0
BITMAP
001F40
001B80
000B80
000E00
01BF80
07EBE0
0F40F0
0F00F0
0F0090
07E400
0BF800
2E4000
780000
B80000
7C0019
2FAAFC
06FF90
ENDCHAR
STARTCHAR uni1EBB
ENCODING 7867
SWIDTH 393 0
DWIDTH 6 0
BBX 8 13 0 0
BITMAP
0240
07E0
00A0
02E0
0380
0000
0B80
3ED0
75D0
7B80
791D
3EB8
1BD0
ENDCHAR
STARTCHAR uni1EBC
ENCODING 7868
SWIDTH 686 0
DWIDTH 10 0
BBX 12 16 0 0
BITMAP
007860
00FEE0
00C680
01BF80
07EBE0
0F40F0
0F00F0
0F0090
07E400
0BF800
2E4000
780000
B80000
7C0019
2FAAFC
06FF90
ENDCHAR
STARTCHAR uni1EBD
ENCODING 7869
SWIDTH 393 0
DWIDTH 6 0
BBX 8 11 0 0
BITMAP
0504
2FA8
35B0
0000
0B80
3ED0
75D0
7B80
791D
3EB8
1BD0
ENDCHAR
STARTCHAR uni1EBE
ENCODING 7870
SWIDTH 686 0
DWIDTH 10 0
BBX 12 18 0 0
BITMAP
000028
000064
001F00
003B80
00A1C0
01BF80
07EBE0
0F40F0
0F00F0
0F0090
07E400
0BF800
2E4000
780000
B80000
7C0019
2FAAFC
06FF90
ENDCHAR
STARTCHAR uni1EBF
ENCODING 7871
SWIDTH 393 0
DWIDTH 6 0
BBX 8 13 0 0
BITMAP
0007
001D
02D0
0EA0
1C70
0000
0B80
3ED0
75D0
7B80
791D
3EB8
1BD0
ENDCHAR
STARTCHAR uni1EC0
ENCODING 7872
SWIDTH 686 0
DWIDTH 10 0
BBX 12 18 0 0
BITMAP
028000
019000
001F00
003B80
00A1C0
01BF80
07EBE0
0F40F0
0F00F0
0F0090
07E400
0BF800
2E4000
780000
B80000
7C0019
2FAAFC
06FF90
ENDCHAR
STARTCHAR uni1EC1
ENCODING 7873
SWIDTH 393 0
DWIDTH 6 0
BBX 8 13 0 0
BITMAP
A000
6800
02D0
0EA0
1C70
0000
0B80
3ED0
75D0
7B80
791D
3EB8
1BD0
ENDCHAR
STARTCHAR uni1EC2
ENCODING 7874
SWIDTH 686 0
DWIDTH 10 0
BBX 12 18 0 0
BITMAP
000078
00006C
00052C
002FB4
007BC0
01FFC0
07EBE0
0F40F0
0F00F0
0F0090
07E400
0BF800
2E4000
780000
B80000
7C0019
2FAAFC
06FF90
ENDCHAR
STARTCHAR uni1EC3
ENCODING 7875
SWIDTH 393 0
DWIDTH 6 0
BBX 9 13 0 0
BITMAP
001E00
001B40
018B00
0BEE00
1EB000
145000
0B8000
3ED000
75D000
7B8000
791D00
3EB800
1BD000
ENDCHAR
STARTCHAR uni1EC4
ENCODING 7876
SWIDTH 686 0
DWIDTH 10 0
BBX 12 19 0 0
BITMAP
002D60
007BD0
001140
001F40
007B80
00A180
01BF80
07EBE0
0F40F0
0F00F0
0F0090
07E400
0BF800
2E4000
780000
B80000
7C0019
2FAAFC
06FF90
ENDCHAR
STARTCHAR uni1EC5
ENCODING 7877
SWIDTH 393 0
DWIDTH 6 0
BBX 8 14 0 0
BITMAP
0B58
1EF4
0450
07D0
0EA0
1C70
0000
0B80
3ED0
75D0
7B80
791D
3EB8
1BD0
ENDCHAR
STARTCHAR uni1EC6
ENCODING 7878
SWIDTH 686 0
DWIDTH 10 0
BBX 12 20 0 -3
BITMAP
000B00
002F80
0076C0
00A1C0
01BF80
07EBE0
0F40F0
0F00F0
0F0090
07E400
0BF800
2E4000
780000
B80000
7C0019
2FAAFC
06FF90
000000
01F000
01E000
ENDCHAR
STARTCHAR uni1EC7
ENCODING 7879
SWIDTH 393 0
DWIDTH 6 0
BBX 8 16 0 -3
BITMAP
02C0
07D0
0AA0
1DB0
2870
0000
0B80
3ED0
75D0
7B80
791D
3EB8
1BD0
0000
0F00
0F00
ENDCHAR
STARTCHAR uni1EC8
ENCODING 7880
SWIDTH 495 0
DWIDTH 7 0
BBX 8 17 0 0
BITMAP
01F4
01AC
0078
00B4
1FFE
1AE9
02D0
02D0
03C0
03C0
0780
0780
0740
0B40
0B40
6FA0
FFF0
ENDCHAR
STARTCHAR uni1EC9
ENCODING 7881
SWIDTH 246 0
DWIDTH 3 0
BBX 6 13 0 0
BITMAP
1900
2F40
0340
0B40
1E00
0000
2C00
3800
3800
7400
74D0
7F80
2E00
ENDCHAR
STARTCHAR uni1ECA
ENCODING 7882
SWIDTH 495 0
DWIDTH 7 0
BBX 8 16 0 -3
BITMAP
1FFE
1AE9
02D0
02D0
03C0
03C0
0780
0780
0740
0B40
0B40
6FA0
FFF0
0000
1F00
1E00
ENDCHAR
STARTCHAR uni1ECB
ENCODING 7883
SWIDTH 246 0
DWIDTH 3 0
BBX 6 13 0 -3
BITMAP
1E00
1E00
0000
2C00
3800
3800
7400
74D0
7F80
2E00
0000
B400
B400
ENDCHAR
STARTCHAR uni1ECC
ENCODING 7884
SWIDTH 816 0
DWIDTH 11 0
BBX 10 16 1 -3
BITMAP
01BE00
0BEFC0
2E02E0
7C01F0
B400F0
F000F0
F000F0
F000F0
F001E0
F402D0
B80B80
3FBE00
0BE400
000000
03D000
03C000
ENDCHAR
STARTCHAR uni1ECD
ENCODING 7885
SWIDTH 451 0
DWIDTH 6 0
BBX 8 10 0 -3
BITMAP
0B80
3EE0
75FA
74BE
74A0
7ED0
1F40
0000
1F00
1E00
ENDCHAR
STARTCHAR uni1ECE
ENCODING 7886
SWIDTH 816 0
DWIDTH 11 0
BBX 10 17 1 0
BITMAP
007D00
002B00
001F00
002D00
01BE00
0BEFC0
2E02E0
7C01F0
B400F0
F000F0
F000F0
F000F0
F001E0
F402D0
B80B80
3FBE00
0BE400
ENDCHAR
STARTCHAR uni1ECF
ENCODING 7887
SWIDTH 451 0
DWIDTH 6 0
BBX 8 13 0 0
BITMAP
0240
07E0
00A0
02E0
0380
0000
0B80
3EE0
75FA
74BE
74A0
7ED0
1F40
ENDCHAR
STARTCHAR uni1ED0
ENCODING 7888
SWIDTH 816 0
DWIDTH 11 0
BBX 10 18 1 0
BITMAP
000070
0001D0
002D00
00AB00
01C700
01BE00
0BEFC0
2E02E0
7C01F0
B400F0
F000F0
F000F0
F000F0
F001E0
F402D0
B80B80
3FBE00
0BE400
ENDCHAR
STARTCHAR uni1ED1
ENCODING 7889
SWIDTH 451 0
DWIDTH 6 0
BBX 8 13 0 0
BITMAP
000B
0019
02D0
0EE0
2870
0000
0B80
3EE0
75FA
74BE
74A0
7ED0
1F40
ENDCHAR
STARTCHAR uni1ED2
ENCODING 7890
SWIDTH 816 0
DWIDTH 11 0
BBX 10 18 1 0
BITMAP
0A0000
068000
002D00
00AB00
01C700
01BE00
0BEFC0
2E02E0
7C01F0
B400F0
F000F0
F000F0
F000F0
F001E0
F402D0
B80B80
3FBE00
0BE400
ENDCHAR
STARTCHAR uni1ED3
ENCODING 7891
SWIDTH 451 0
DWIDTH 6 0
BBX 8 13 0 0
BITMAP
A000
6800
02D0
0EE0
2870
0000
0B80
3EE0
75FA
74BE
74A0
7ED0
1F40
ENDCHAR
STARTCHAR uni1ED4
ENCODING 7892
SWIDTH 816 0
DWIDTH 11 0
BBX 11 18 1 0
BITMAP
0001E0
0001B4
0018B4
007EE0
01EB00
02FF00
0BEFC0
2E02E0
7C01F0
B400F0
F000F0
F000F0
F000F0
F001E0
F402D0
B80B80
3FBE00
0BE400
ENDCHAR
STARTCHAR uni1ED5
ENCODING 7893
SWIDTH 451 0
DWIDTH 6 0
BBX 8 13 0 0
BITMAP
001E
001B
018B
0BEE
1EB0
1450
0B80
3EE0
75FA
74BE
74A0
7ED0
1F40
ENDCHAR
STARTCHAR uni1ED6
ENCODING 7894
SWIDTH 816 0
DWIDTH 11 0
BBX 10 19 1 0
BITMAP
00B5C0
00EF80
004500
007D00
00EB00
01C700
01BE00
0BEFC0
2E02E0
7C01F0
B400F0
F000F0
F000F0
F000F0
F001E0
F402D0
B80B80
3FBE00
0BE400
ENDCHAR
STARTCHAR uni1ED7
ENCODING 7895
SWIDTH 451 0
DWIDTH 6 0
BBX 8 14 0 0
BITMAP
0B58
1EF4
0450
07D0
0EE0
2870
0000
0B80
3EE0
75FA
74BE
74A0
7ED0
1F40
ENDCHAR
STARTCHAR uni1ED8
ENCODING 7896
SWIDTH 816 0
DWIDTH 11 0
BBX 10 20 1 -3
BITMAP
002D00
00BE00
01EB00
01C700
01BE00
0BEFC0
2E02E0
7C01F0
B400F0
F000F0
F000F0
F000F0
F001E0
F402D0
B80B80
3FBE00
0BE400
000000
03D000
03C000
ENDCHAR
STARTCHAR uni1ED9
ENCODING 7897
SWIDTH 451 0
DWIDTH 6 0
BBX 8 16 0 -3
BITMAP
02C0
07D0
0AA0
1DB0
2870
0000
0B80
3EE0
75FA
74BE
74A0
7ED0
1F40
0000
1F00
1E00
ENDCHAR
STARTCHAR uni1EDA
ENCODING 7898
SWIDTH 816 0
DWIDTH 11 0
BBX 11 17 1 0
BITMAP
000040
0002D0
000BAC
00293C
01BFF4
0BEFE0
2E02E0
7C01F0
B400F0
F000F0
F000F0
F000F0
F001E0
F402D0
B80B80
3FBE00
0BE400
ENDCHAR
STARTCHAR uni1EDB
ENCODING 7899
SWIDTH 451 0
DWIDTH 6 0
BBX 8 13 0 0
BITMAP
0050
00F0
01D0
0280
031C
002C
0BF4
3EE0
75FA
74BE
74A0
7ED0
1F40
ENDCHAR
STARTCHAR uni1EDC
ENCODING 7900
SWIDTH 816 0
DWIDTH 11 0
BBX 11 17 1 0
BITMAP
050000
0F4000
07D01C
00703C
01BFF4
0BEFE0
2E02E0
7C01F0
B400F0
F000F0
F000F0
F000F0
F001E0
F402D0
B80B80
3FBE00
0BE400
ENDCHAR
STARTCHAR uni1EDD
ENCODING 7901
SWIDTH 451 0
DWIDTH 6 0
BBX 8 13 0 0
BITMAP
1000
3800
2C00
0E00
061C
002C
0BF4
3EE0
75FA
74BE
74A0
7ED0
1F40
ENDCHAR
STARTCHAR uni1EDE
ENCODING 7902
SWIDTH 816 0
DWIDTH 11 0
BBX 11 17 1 0
BITMAP
007D00
002B00
001F1C
002D3C
01BFF4
0BEFE0
2E02E0
7C01F0
B400F0
F000F0
F000F0
F000F0
F001E0
F402D0
B80B80
3FBE00
0BE400
ENDCHAR
STARTCHAR uni1EDF
ENCODING 7903
SWIDTH 451 0
DWIDTH 6 0
BBX 8 13 0 0
BITMAP
0640
0BD0
00D0
02D0
079C
002C
0BF4
3EE0
75FA
74BE
74A0
7ED0
1F40
ENDCHAR
STARTCHAR uni1EE0
ENCODING 7904
SWIDTH 816 0
DWIDTH 11 0
BBX 11 16 1 0
BITMAP
00E0C0
02FEDC
034B7C
01BFF4
0BEFE0
2E02E0
7C01F0
B400F0
F000F0
F000F0
F000F0
F001E0
F402D0
B80B80
3FBE00
0BE400
ENDCHAR
STARTCHAR uni1EE1
ENCODING 7905
SWIDTH 451 0
DWIDTH 6 0
BBX 8 11 0 0
BITMAP
1D30
3BA0
105C
002C
0BF4
3EE0
75FA
74BE
74A0
7ED0
1F40
ENDCHAR
STARTCHAR uni1EE2
ENCODING 7906
SWIDTH 816 0
DWIDTH 11 0
BBX 11 18 1 -3
BITMAP
00001C
00003C
01BFF4
0BEFE0
2E02E0
7C01F0
B400F0
F000F0
F000F0
F000F0
F001E0
F402D0
B80B80
3FBE00
0BE400
000000
03D000
03C000
ENDCHAR
STARTCHAR uni1EE3
ENCODING 7907
SWIDTH 451 0
DWIDTH 6 0
BBX 8 12 0 -3
BITMAP
001C
002C
0BF4
3EE0
75FA
74BE
74A0
7ED0
1F40
0000
1F00
1E00
ENDCHAR
STARTCHAR uni1EE4
ENCODING 7908
SWIDTH 890 0
DWIDTH 12 0
BBX 15 16 0 -3
BITMAP
1B800D00
7BD01E00
E1E01E00
82D02D00
02D02D00
03C03C00
03C07C00
0780BC00
0B40F800
0B42B810
0B477874
0BFD3FE0
02F41F80
00000000
007C0000
00780000
ENDCHAR
STARTCHAR uni1EE5
ENCODING 7909
SWIDTH 462 0
DWIDTH 6 0
BBX 9 10 0 -3
BITMAP
1C7000
38B000
38E000
75E000
7BD340
7EFE00
2CB800
000000
0F0000
0E0000
ENDCHAR
STARTCHAR uni1EE6
ENCODING 7910
SWIDTH 890 0
DWIDTH 12 0
BBX 15 17 0 0
BITMAP
0007D000
0006E000
0002E000
00038000
1B800D00
7BD01E00
E1E01E00
82D02D00
02D02D00
03C03C00
03C07C00
0780BC00
0B40F800
0B42B810
0B477874
0BFD3FE0
02F41F80
ENDCHAR
STARTCHAR uni1EE7
ENCODING 7911
SWIDTH 462 0
DWIDTH 6 0
BBX 9 13 0 0
BITMAP
019000
03F000
007400
01B000
02D000
000000
1C7000
38B000
38E000
75E000
7BD340
7EFE00
2CB800
ENDCHAR
STARTCHAR uni1EE8
ENCODING 7912
SWIDTH 890 0
DWIDTH 12 0
BBX 15 17 0 0
BITMAP
00000400
00007C00
0001F4A0
000281E0
1B800FD0
7BD01F80
E1E01E00
82D02D00
02D02D00
03C03C00
03C07C00
0780BC00
0B40F800
0B42B810
0B477874
0BFD3FE0
02F41F80
ENDCHAR
STARTCHAR uni1EE9
ENCODING 7913
SWIDTH 512 0
DWIDTH 7 0
BBX 9 13 0 0
BITMAP
001400
003800
00B400
00D000
018600
000A00
1C7D00
38B400
38E000
75E040
7BD1C0
7EFB40
2CB900
ENDCHAR
STARTCHAR uni1EEA
ENCODING 7914
SWIDTH 890 0
DWIDTH 12 0
BBX 15 17 0 0
BITMAP
00400000
01F40000
007D00A0
000A01E0
1B800FD0
7BD01F80
E1E01E00
82D02D00
02D02D00
03C03C00
03C07C00
0780BC00
0B40F800
0B42B810
0B477874
0BFD3FE0
02F41F80
ENDCHAR
STARTCHAR uni1EEB
ENCODING 7915
SWIDTH 512 0
DWIDTH 7 0
BBX 9 13 0 0
BITMAP
040000
1D0000
0F0000
074000
018600
000A00
1C7D00
38B400
38E000
75E040
7BD1C0
7EFB40
2CB900
ENDCHAR
STARTCHAR uni1EEC
ENCODING 7916
SWIDTH 890 0
DWIDTH 12 0
BBX 15 17 0 0
BITMAP
0007D000
0006E000
0002E0A0
000381E0
1B800FD0
7BD01F80
E1E01E00
82D02D00
02D02D00
03C03C00
03C07C00
0780BC00
0B40F800
0B42B810
0B477874
0BFD3FE0
02F41F80
ENDCHAR
STARTCHAR uni1EED
ENCODING 7917
SWIDTH 512 0
DWIDTH 7 0
BBX 9 13 0 0
BITMAP
019000
03F000
007400
01B000
02D600
000A00
1C7D00
38B400
38E000
75E040
7BD1C0
7EFB40
2CB900
ENDCHAR
STARTCHAR uni1EEE
ENCODING 7918
SWIDTH 890 0
DWIDTH 12 0
BBX 15 16 0 0
BITMAP
001E1800
003FB8A0
0071E1E0
1B800FD0
7BD01F80
E1E01E00
82D02D00
02D02D00
03C03C00
03C07C00
0780BC00
0B40F800
0B42B810
0B477874
0BFD3FE0
02F41F80
ENDCHAR
STARTCHAR uni1EEF
ENCODING 7919
SWIDTH 512 0
DWIDTH 7 0
BBX 9 11 0 0
BITMAP
0B5800
0EF400
045600
000A00
1C7D00
38B400
38E000
75E040
7BD1C0
7EFB40
2CB900
ENDCHAR
STARTCHAR uni1EF0
ENCODING 7920
SWIDTH 890 0
DWIDTH 12 0
BBX 15 18 0 -3
BITMAP
000000A0
000001E0
1B800FD0
7BD01F80
E1E01E00
82D02D00
02D02D00
03C03C00
03C07C00
0780BC00
0B40F800
0B42B810
0B477874
0BFD3FE0
02F41F80
00000000
007C0000
00780000
ENDCHAR
STARTCHAR uni1EF1
ENCODING 7921
SWIDTH 512 0
DWIDTH 7 0
BBX 9 12 0 -3
BITMAP
000600
000A00
1C7D00
38B400
38E000
75E040
7BD1C0
7EFB40
2CB900
000000
0F0000
0E0000
ENDCHAR
STARTCHAR Ygrave
ENCODING 7922
SWIDTH 851 0
DWIDTH 12 0
BBX 14 22 0 -5
BITMAP
00500000
00F40000
007D0000
00070000
1B800E00
7BD01E00
E1E01E00
82D02D00
02D03D00
03C03C00
03C0BC00
0780FC00
0782B800
03EF7990
01F9BFD0
000BF900
007EB400
00F4B000
01D0E000
02D2D000
01FF4000
00690000
ENDCHAR
STARTCHAR ygrave
ENCODING 7923
SWIDTH 479 0
DWIDTH 7 0
BBX 9 20 0 -7
BITMAP
040000
1D0000
0F0000
074000
018000
000000
1C7000
38B000
38F000
75E100
7BE740
7FFD00
2DF400
07C000
1FC000
378000
A34000
DB0000
EE0000
B80000
ENDCHAR
STARTCHAR uni1EF4
ENCODING 7924
SWIDTH 851 0
DWIDTH 12 0
BBX 14 18 0 -5
BITMAP
1B800E00
7BD01E00
E1E01E00
82D02D00
02D03D00
03C03C00
03C0BC00
0780FC00
0782B800
03EF7990
01F9BFD0
000BF900
007EB400
00F4B000
01D0E000
02D2EE00
01FF5E00
00690000
ENDCHAR
STARTCHAR uni1EF5
ENCODING 7925
SWIDTH 479 0
DWIDTH 7 0
BBX 9 14 0 -7
BITMAP
1C7000
38B000
38F000
75E100
7BE740
7FFD00
2DF400
07C000
1FC000
378000
A34000
DBB400
EEB400
B80000
ENDCHAR
STARTCHAR uni1EF6
ENCODING 7926
SWIDTH 851 0
DWIDTH 12 0
BBX 14 22 0 -5
BITMAP
0007D000
0006E000
0001E000
0003D000
1B800E00
7BD01E00
E1E01E00
82D02D00
02D03D00
03C03C00
03C0BC00
0780FC00
0782B800
03EF7990
01F9BFD0
000BF900
007EB400
00F4B000
01D0E000
02D2D000
01FF4000
00690000
ENDCHAR
STARTCHAR uni1EF7
ENCODING 7927
SWIDTH 479 0
DWIDTH 7 0
BBX 9 20 0 -7
BITMAP
019000
03F000
007400
01B000
02D000
000000
1C7000
38B000
38F000
75E100
7BE740
7FFD00
2DF400
07C000
1FC000
378000
A34000
DB0000
EE0000
B80000
ENDCHAR
STARTCHAR uni1EF8
ENCODING 7928
SWIDTH 851 0
DWIDTH 12 0
BBX 14 21 0 -5
BITMAP
001E1C00
003FA800
0035B400
1B800E00
7BD01E00
E1E01E00
82D02D00
02D03D00
03C03C00
03C0BC00
0780FC00
0782B800
03EF7990
01F9BFD0
000BF900
007EB400
00F4B000
01D0E000
02D2D000
01FF4000
00690000
ENDCHAR
STARTCHAR uni1EF9
ENCODING 7929
SWIDTH 479 0
DWIDTH 7 0
BBX 9 18 0 -7
BITMAP
050400
1F9D00
28B400
000000
1C7000
38B000
38F000
75E100
7BE740
7FFD00
2DF400
07C000
1FC000
378000
A34000
DB0000
EE0000
B80000
ENDCHAR
STARTCHAR endash
ENCODING 8211
SWIDTH 484 0
DWIDTH 7 0
BBX 5 2 1 4
BITMAP
AA80
FFC0
ENDCHAR
STARTCHAR emdash
ENCODING 8212
SWIDTH 620 0
DWIDTH 9 0
BBX 7 2 1 4
BITMAP
AAA8
FFFC
ENDCHAR
STARTCHAR quoteleft
ENCODING 8216
SWIDTH 237 0
DWIDTH 3 0
BBX 3 5 1 9
BITMAP
1C
2C
78
B8
74
ENDCHAR
STARTCHAR quoteright
ENCODING 8217
SWIDTH 236 0
DWIDTH 3 0
BBX 3 5 1 9
BITMAP
2C
3C
38
74
60
ENDCHAR
STARTCHAR quotesinglbase
ENCODING 8218
SWIDTH 257 0
DWIDTH 4 0
BBX 3 5 0 -2
BITMAP
38
78
74
B0
90
ENDCHAR
STARTCHAR quotedblleft
ENCODING 8220
SWIDTH 457 0
DWIDTH 6 0
BBX 6 5 1 9
BITMAP
1C70
2CB0
78E0
B9E0
75D0
ENDCHAR
STARTCHAR quotedblright
ENCODING 8221
SWIDTH 456 0
DWIDTH 6 0
BBX 6 5 1 9
BITMAP
2CB0
3CF0
38F0
75D0
61C0
ENDCHAR
STARTCHAR quotedblbase
ENCODING 8222
SWIDTH 477 0
DWIDTH 7 0
BBX 6 5 0 -2
BITMAP
38E0
79E0
75E0
B2C0
9280
ENDCHAR
STARTCHAR dagger
ENCODING 8224
SWIDTH 588 0
DWIDTH 8 0
BBX 6 11 2 3
BITMAP
0700
0B00
6FA0
FFF0
0E00
0D00
1D00
1D00
2C00
2C00
1400
ENDCHAR
STARTCHAR daggerdbl
ENCODING 8225
SWIDTH 588 0
DWIDTH 8 0
BBX 7 11 1 3
BITMAP
01C0
02C0
2BE8
3FFC
0380
0340
6BA4
7FF4
0700
0B00
0500
ENDCHAR
STARTCHAR bullet
ENCODING 8226
SWIDTH 512 0
DWIDTH 7 0
BBX 5 5 1 1
BITMAP
2E40
7F80
BF80
7F80
2E00
ENDCHAR
STARTCHAR ellipsis
ENCODING 8230
SWIDTH 777 0
DWIDTH 11 0
BBX 11 3 0 0
BITMAP
6864A0
BCF9F4
78B4E0
ENDCHAR
STARTCHAR perthousand
ENCODING 8240
SWIDTH 1277 0
DWIDTH 18 0
BBX 18 11 0 0
BITMAP
1F80A00000
3AD6E00000
76FFC00000
75EB400000
2F8F000000
052D7D0F80
0038EB29D0
00B5C774E0
01E1C774E0
02C1EB3AD0
0280B91F40
ENDCHAR
STARTCHAR guilsinglleft
ENCODING 8249
SWIDTH 350 0
DWIDTH 5 0
BBX 4 6 0 1
BITMAP
07
2E
B8
78
2E
07
ENDCHAR
STARTCHAR guilsinglright
ENCODING 8250
SWIDTH 350 0
DWIDTH 5 0
BBX 5 6 0 1
BITMAP
3400
3D00
0B40
0B40
3E00
7400
ENDCHAR
STARTCHAR fraction
ENCODING 8260
SWIDTH 200 0
DWIDTH 3 0
BBX 6 10 -1 2
BITMAP
0050
00E0
02C0
0780
0B00
1D00
3C00
7400
E000
D000
ENDCHAR
STARTCHAR uni2074
ENCODING 8308
SWIDTH 450 0
DWIDTH 6 0
BBX 6 7 1 5
BITMAP
0D00
2D80
36C0
B380
BFD0
1780
0340
ENDCHAR
STARTCHAR colonmonetary
ENCODING 8353
SWIDTH 517 0
DWIDTH 7 0
BBX 8 12 0 -2
BITMAP
0026
06FA
0FFC
2DEC
3A78
7B60
7E80
3D84
2FB8
3BE0
A900
4400
ENDCHAR
STARTCHAR franc
ENCODING 8355
SWIDTH 750 0
DWIDTH 11 0
BBX 11 9 0 0
BITMAP
2FFF80
2EAA00
2D01D0
2FF3E0
39BAF4
38BCF4
74B8A0
74B400
747000
ENDCHAR
STARTCHAR lira
ENCODING 8356
SWIDTH 525 0
DWIDTH 7 0
BBX 8 9 0 0
BITMAP
0190
0BFC
1E1D
6E80
7FD0
BFC0
7E80
7EA8
BFFC
ENDCHAR
STARTCHAR uni20A6
ENCODING 8358
SWIDTH 672 0
DWIDTH 9 0
BBX 9 9 0 0
BITMAP
090340
0F0380
1F8780
1FD740
7FFFC0
7FFFC0
BFFFC0
382E00
280A00
ENDCHAR
STARTCHAR peseta
ENCODING 8359
SWIDTH 1085 0
DWIDTH 15 0
BBX 15 10 0 0
BITMAP
1A405000
7FE1D000
2DB5D000
2C7FFDB0
3C7BE8E0
38B281E0
3FD382F4
7A03873C
7402EDB8
7001F5F4
ENDCHAR
STARTCHAR uni20A9
ENCODING 8361
SWIDTH 775 0
DWIDTH 11 0
BBX 11 8 0 0
BITMAP
1C2834
7FFFFC
7FFFFC
1DF9D0
1DEAC0
1EAB80
0F6F00
0B1D00
ENDCHAR
STARTCHAR dong
ENCODING 8363
SWIDTH 463 0
DWIDTH 6 0
BBX 8 14 0 -2
BITMAP
0014
003C
1ABD
2FFD
0074
07F4
2FF0
38F0
74E0
B5E0
7BE0
2DD0
6AA0
FFF0
ENDCHAR
STARTCHAR Euro
ENCODING 8364
SWIDTH 552 0
DWIDTH 8 0
BBX 8 9 0 0
BITMAP
01F8
07AD
0E0E
1D0E
7FC4
BFC0
6D44
1FAD
07F4
ENDCHAR
STARTCHAR uni20AD
ENCODING 8365
SWIDTH 590 0
DWIDTH 8 0
BBX 9 9 0 0
BITMAP
0D0B00
1D0E00
1D2C00
1DB400
BFFF00
3DE400
38B400
387E40
341F40
ENDCHAR
STARTCHAR uni20AE
ENCODING 8366
SWIDTH 513 0
DWIDTH 7 0
BBX 7 9 1 0
BITMAP
6AA0
FFF4
0A00
0F80
BE40
5F80
7C00
2C00
2800
ENDCHAR
STARTCHAR uni20B1
ENCODING 8369
SWIDTH 557 0
DWIDTH 8 0
BBX 8 9 0 0
BITMAP
1BE0
2EB8
BFFF
BFFF
BFFE
2DF0
2E80
3800
3800
ENDCHAR
STARTCHAR uni20B2
ENCODING 8370
SWIDTH 599 0
DWIDTH 8 0
BBX 8 13 0 -2
BITMAP
0090
0090
06F8
1FED
2DDD
3988
7580
75AF
3A5F
2FAE
0BEA
030A
0300
ENDCHAR
STARTCHAR uni20B4
ENCODING 8372
SWIDTH 570 0
DWIDTH 8 0
BBX 8 9 0 0
BITMAP
0BE0
2EB8
1438
3FFE
7FFD
7FFD
2C08
2EBC
0BE4
ENDCHAR
STARTCHAR uni20B5
ENCODING 8373
SWIDTH 517 0
DWIDTH 7 0
BBX 7 13 0 -2
BITMAP
0090
0090
06F4
1FFC
2DDC
3998
7580
7580
3A48
2FB8
0BE0
0300
0300
ENDCHAR
STARTCHAR uni20B8
ENCODING 8376
SWIDTH 522 0
DWIDTH 7 0
BBX 8 9 0 0
BITMAP
1AA8
3FFD
2AA4
7FFC
0340
0740
0700
0700
0600
ENDCHAR
STARTCHAR uni20B9
ENCODING 8377
SWIDTH 511 0
DWIDTH 7 0
BBX 8 8 0 0
BITMAP
3FFD
7FFD
02C0
0780
BE00
1B40
03C0
01F8
ENDCHAR
STARTCHAR uni20BA
ENCODING 8378
SWIDTH 452 0
DWIDTH 6 0
BBX 7 9 0 0
BITMAP
0D00
1E80
1F40
2D80
7E40
7C00
7874
3EE0
2F40
ENDCHAR
STARTCHAR uni20BC
ENCODING 8380
SWIDTH 673 0
DWIDTH 9 0
BBX 9 11 0 0
BITMAP
001000
003000
007400
02FD00
0BBF00
1E6740
3CA380
389380
749380
B4D380
A0C340
ENDCHAR
STARTCHAR uni20BD
ENCODING 8381
SWIDTH 505 0
DWIDTH 7 0
BBX 7 9 0 0
BITMAP
1BE0
2FB8
1D38
1D38
2DB4
BFE0
BF80
BFC0
3800
ENDCHAR
STARTCHAR uni2116
ENCODING 8470
SWIDTH 1198 0
DWIDTH 17 0
BBX 16 13 1 0
BITMAP
1D2F80B8
2DBBD2ED
2EC2E34E
3F42D74E
3E02D39D
3D02D2F8
7C03C0A0
7803CBFC
B80786A4
B4078000
B40B4000
F00B4000
A00B0000
ENDCHAR
STARTCHAR trademark
ENCODING 8482
SWIDTH 1150 0
DWIDTH 16 0
BBX 15 6 1 6
BITMAP
7FDAB9F4
0E0F5E34
0D0E1C34
1C1D2870
1C1C2870
04041450
ENDCHAR
STARTCHAR partialdiff
ENCODING 8706
SWIDTH 451 0
DWIDTH 6 0
BBX 7 12 0 -1
BITMAP
1800
1F40
02D0
00E0
00B4
1FF4
3DB4
74B4
B4B0
79E0
2F80
0500
ENDCHAR
STARTCHAR product
ENCODING 8719
SWIDTH 700 0
DWIDTH 10 0
BBX 9 12 1 0
BITMAP
1AAA40
2FFF80
3C0740
380B40
380B00
740B00
740E00
B00E00
B01E00
F01D00
E02D00
D02C00
ENDCHAR
STARTCHAR summation
ENCODING 8721
SWIDTH 700 0
DWIDTH 10 0
BBX 9 12 1 0
BITMAP
1AAA40
3FFF40
1F0000
078000
01E000
00B800
007800
01E000
0B8000
2D0000
BEA800
FFFD00
ENDCHAR
STARTCHAR minus
ENCODING 8722
SWIDTH 700 0
DWIDTH 10 0
BBX 8 2 1 3
BITMAP
7FFE
BFFE
ENDCHAR
STARTCHAR uni2215
ENCODING 8725
SWIDTH 700 0
DWIDTH 10 0
BBX 8 13 1 0
BITMAP
0007
000F
001D
003C
00B4
00E0
02D0
0780
0B40
1E00
2C00
7800
7000
ENDCHAR
STARTCHAR uni2219
ENCODING 8729
SWIDTH 700 0
DWIDTH 10 0
BBX 3 2 3 2
BITMAP
7C
7C
ENDCHAR
STARTCHAR radical
ENCODING 8730
SWIDTH 700 0
DWIDTH 10 0
BBX 11 13 0 -1
BITMAP
000020
000074
0000E0
0001D0
000280
000740
7E0B00
1B0D00
036C00
03B800
02F000
01E000
004000
ENDCHAR
STARTCHAR infinity
ENCODING 8734
SWIDTH 700 0
DWIDTH 10 0
BBX 10 6 0 1
BITMAP
1A4A40
3FEFD0
75F5E0
B4F1D0
7FFFD0
2F5F40
ENDCHAR
STARTCHAR integral
ENCODING 8747
SWIDTH 700 0
DWIDTH 10 0
BBX 10 18 0 -4
BITMAP
000540
001FD0
003D00
003800
007800
007400
00B400
00B400
00B000
00F000
00E000
00E000
01E000
01D000
02D000
02C000
1BC000
7E0000
ENDCHAR
STARTCHAR approxequal
ENCODING 8776
SWIDTH 700 0
DWIDTH 10 0
BBX 8 7 1 0
BITMAP
2E07
7BEE
A07C
1400
7E0A
FBED
D0B8
ENDCHAR
STARTCHAR notequal
ENCODING 8800
SWIDTH 700 0
DWIDTH 10 0
BBX 8 9 1 0
BITMAP
0010
0070
7FFF
7FFE
0380
BFFD
FFFD
1D00
0400
ENDCHAR
STARTCHAR lessequal
ENCODING 8804
SWIDTH 700 0
DWIDTH 10 0
BBX 8 8 1 0
BITMAP
001B
1BF9
BE40
7F90
06BD
0004
6AA9
FFFD
ENDCHAR
STARTCHAR greaterequal
ENCODING 8805
SWIDTH 700 0
DWIDTH 10 0
BBX 8 8 1 0
BITMAP
7900
2FE4
007F
06FD
BE50
5000
6AA9
FFFD
ENDCHAR
STARTCHAR lozenge
ENCODING 9674
SWIDTH 700 0
DWIDTH 10 0
BBX 7 14 2 0
BITMAP
0140
03C0
0BD0
0EE0
2CB0
7474
B038
D038
A0B0
70E0
76C0
3B40
2F00
1D00
ENDCHAR
STARTCHAR fi
ENCODING 64257
SWIDTH 633 0
DWIDTH 9 0
BBX 11 19 0 -5
BITMAP
00B400
01F800
03A800
076800
0B37C0
0EA3C0
1FC000
7FFF00
7EAF40
2C4B00
3CCF00
3CDE28
38DFB4
3CC790
3CC000
2CC000
2D8000
1F4000
050000
ENDCHAR
STARTCHAR fl
ENCODING 64258
SWIDTH 688 0
DWIDTH 10 0
BBX 12 19 0 -5
BITMAP
00B0B4
02F5EC
07769C
0B3B5C
0E7B1C
1DAB28
2DDF34
2E8EA0
3E0ED0
381F80
3BFE00
7BAE09
770BBC
7B42E0
7A4000
3A4000
3A4000
2F0000
090000
ENDCHAR
STARTCHAR .notdef
ENCODING -1
SWIDTH 265 0
DWIDTH 4 0
BBX 1 1 0 0
BITMAP
00
ENDCHAR
STARTCHAR Iacute_J.loclNLD
ENCODING -1
SWIDTH 776 0
DWIDTH 11 0
BBX 13 17 1 0
BITMAP
00100100
00F40F40
07E07E00
0A00A000
2C01D000
3D02D000
3C02D000
3C03D000
7807C000
780BC000
782FC000
3FF78000
1FD78000
000B4000
501F0000
BEBD0000
2FE40000
ENDCHAR
STARTCHAR A.ss01
ENCODING -1
SWIDTH 780 0
DWIDTH 11 0
BBX 12 13 0 0
BITMAP
001BF9
00FEA9
03E060
0B80B4
1E00F0
2D00E0
3C01E0
3C02E0
7C03D0
3C07D0
3D0FD0
1FBBC0
07E2C0
ENDCHAR
STARTCHAR Aacute.ss01
ENCODING -1
SWIDTH 780 0
DWIDTH 11 0
BBX 12 17 0 0
BITMAP
000005
00001F
00007D
0000D0
001BF9
00FEA9
03E060
0B80B4
1E00F0
2D00E0
3C01E0
3C02E0
7C03D0
3C07D0
3D0FD0
1FBBC0
07E2C0
ENDCHAR
STARTCHAR Abreve.ss01
ENCODING -1
SWIDTH 780 0
DWIDTH 11 0
BBX 12 16 0 0
BITMAP
001D09
000FBD
0007E4
001BF9
00FEA9
03E060
0B80B4
1E00F0
2D00E0
3C01E0
3C02E0
7C03D0
3C07D0
3D0FD0
1FBBC0
07E2C0
ENDCHAR
STARTCHAR uni1EAE.ss01
ENCODING -1
SWIDTH 780 0
DWIDTH 11 0
BBX 12 18 0 0
BITMAP
000028
0000B4
000D09
000FBD
0007F4
001BF9
00FEA9
03E060
0B80B4
1E00F0
2D00E0
3C01E0
3C02E0
7C03D0
3C07D0
3D0FD0
1FBBC0
07E2C0
ENDCHAR
STARTCHAR uni1EB6.ss01
ENCODING -1
SWIDTH 780 0
DWIDTH 11 0
BBX 12 19 0 -3
BITMAP
001D09
000FBD
0007E4
001BF9
00FEA9
03E060
0B80B4
1E00F0
2D00E0
3C01E0
3C02E0
7C03D0
3C07D0
3D0FD0
1FBBC0
07E2C0
000000
00F400
00F000
ENDCHAR
STARTCHAR uni1EB0.ss01
ENCODING -1
SWIDTH 780 0
DWIDTH 11 0
BBX 12 18 0 0
BITMAP
000740
0003C0
000845
001E5D
000BF8
001BF9
00FEA9
03E060
0B80B4
1E00F0
2D00E0
3C01E0
3C02E0
7C03D0
3C07D0
3D0FD0
1FBBC0
07E2C0
ENDCHAR
STARTCHAR uni1EB2.ss01
ENCODING -1
SWIDTH 780 0
DWIDTH 11 0
BBX 12 19 0 0
BITMAP
0001E0
0001B0
0000B0
0005E4
001FAD
0007F4
001BF9
00FEA9
03E060
0B80B4
1E00F0
2D00E0
3C01E0
3C02E0
7C03D0
3C07D0
3D0FD0
1FBBC0
07E2C0
ENDCHAR
STARTCHAR uni1EB4.ss01
ENCODING -1
SWIDTH 780 0
DWIDTH 11 0
BBX 12 18 0 0
BITMAP
0007DA
000ABD
000819
001E6D
000BF8
001BF9
00FEA9
03E060
0B80B4
1E00F0
2D00E0
3C01E0
3C02E0
7C03D0
3C07D0
3D0FD0
1FBBC0
07E2C0
ENDCHAR
STARTCHAR Acircumflex.ss01
ENCODING -1
SWIDTH 780 0
DWIDTH 11 0
BBX 12 17 0 0
BITMAP
0001E0
0003F4
000B78
000E28
001BF9
00FEA9
03E060
0B80B4
1E00F0
2D00E0
3C01E0
3C02E0
7C03D0
3C07D0
3D0FD0
1FBBC0
07E2C0
ENDCHAR
STARTCHAR uni1EA4.ss01
ENCODING -1
SWIDTH 780 0
DWIDTH 11 0
BBX 13 18 0 0
BITMAP
00000280
00000A40
0001E000
00077400
000A2800
001BF900
00FEA900
03E06000
0B80B400
1E00F000
2D00E000
3C01E000
3C02E000
7C03D000
3C07D000
3D0FD000
1FBBC000
07E2C000
ENDCHAR
STARTCHAR uni1EAC.ss01
ENCODING -1
SWIDTH 780 0
DWIDTH 11 0
BBX 12 20 0 -3
BITMAP
0001E0
0003F4
000B78
000E28
001BF9
00FEA9
03E060
0B80B4
1E00F0
2D00E0
3C01E0
3C02E0
7C03D0
3C07D0
3D0FD0
1FBBC0
07E2C0
000000
00F400
00F000
ENDCHAR
STARTCHAR uni1EA6.ss01
ENCODING -1
SWIDTH 780 0
DWIDTH 11 0
BBX 12 18 0 0
BITMAP
003400
001D00
0001E0
000774
000A28
001BF9
00FEA9
03E060
0B80B4
1E00F0
2D00E0
3C01E0
3C02E0
7C03D0
3C07D0
3D0FD0
1FBBC0
07E2C0
ENDCHAR
STARTCHAR uni1EA8.ss01
ENCODING -1
SWIDTH 780 0
DWIDTH 11 0
BBX 13 18 0 0
BITMAP
00000B40
00000AC0
00009680
0002FB40
000B7800
001FFD00
00FEA900
03E06000
0B80B400
1E00F000
2D00E000
3C01E000
3C02E000
7C03D000
3C07D000
3D0FD000
1FBBC000
07E2C000
ENDCHAR
STARTCHAR uni1EAA.ss01
ENCODING -1
SWIDTH 780 0
DWIDTH 11 0
BBX 12 19 0 0
BITMAP
000389
000ABC
000454
0002F0
000774
000A28
001BF9
00FEA9
03E060
0B80B4
1E00F0
2D00E0
3C01E0
3C02E0
7C03D0
3C07D0
3D0FD0
1FBBC0
07E2C0
ENDCHAR
STARTCHAR uni0200.ss01
ENCODING -1
SWIDTH 780 0
DWIDTH 11 0
BBX 12 17 0 0
BITMAP
000450
001DE0
000DB0
000630
001BF9
00FEA9
03E060
0B80B4
1E00F0
2D00E0
3C01E0
3C02E0
7C03D0
3C07D0
3D0FD0
1FBBC0
07E2C0
ENDCHAR
STARTCHAR Adieresis.ss01
ENCODING -1
SWIDTH 780 0
DWIDTH 11 0
BBX 12 15 0 0
BITMAP
000B3C
000B28
001BF9
00FEA9
03E060
0B80B4
1E00F0
2D00E0
3C01E0
3C02E0
7C03D0
3C07D0
3D0FD0
1FBBC0
07E2C0
ENDCHAR
STARTCHAR uni1EA0.ss01
ENCODING -1
SWIDTH 780 0
DWIDTH 11 0
BBX 12 16 0 -3
BITMAP
001BF9
00FEA9
03E060
0B80B4
1E00F0
2D00E0
3C01E0
3C02E0
7C03D0
3C07D0
3D0FD0
1FBBC0
07E2C0
000000
00F400
00F000
ENDCHAR
STARTCHAR Agrave.ss01
ENCODING -1
SWIDTH 780 0
DWIDTH 11 0
BBX 12 17 0 0
BITMAP
001000
007800
002F00
000280
001BF9
00FEA9
03E060
0B80B4
1E00F0
2D00E0
3C01E0
3C02E0
7C03D0
3C07D0
3D0FD0
1FBBC0
07E2C0
ENDCHAR
STARTCHAR uni1EA2.ss01
ENCODING -1
SWIDTH 780 0
DWIDTH 11 0
BBX 12 17 0 0
BITMAP
0002E0
0001B4
0000B4
0001E0
001BF9
00FEA9
03E060
0B80B4
1E00F0
2D00E0
3C01E0
3C02E0
7C03D0
3C07D0
3D0FD0
1FBBC0
07E2C0
ENDCHAR
STARTCHAR uni0202.ss01
ENCODING -1
SWIDTH 780 0
DWIDTH 11 0
BBX 12 16 0 0
BITMAP
000190
000BFC
001E1D
001FFD
00FEA9
03E060
0B80B4
1E00F0
2D00E0
3C01E0
3C02E0
7C03D0
3C07D0
3D0FD0
1FBBC0
07E2C0
ENDCHAR
STARTCHAR Amacron.ss01
ENCODING -1
SWIDTH 780 0
DWIDTH 11 0
BBX 12 15 0 0
BITMAP
0006A4
000BF4
001BF9
00FEA9
03E060
0B80B4
1E00F0
2D00E0
3C01E0
3C02E0
7C03D0
3C07D0
3D0FD0
1FBBC0
07E2C0
ENDCHAR
STARTCHAR Aogonek.ss01
ENCODING -1
SWIDTH 780 0
DWIDTH 11 0
BBX 12 17 0 -4
BITMAP
001BF9
00FEA9
03E060
0B80B4
1E00F0
2D00E0
3C01E0
3C02E0
7C03D0
3C07D0
3D0FD0
1FBBC0
07E3C0
000B00
000E00
000F90
0007D0
ENDCHAR
STARTCHAR Aring.ss01
ENCODING -1
SWIDTH 780 0
DWIDTH 11 0
BBX 12 18 0 0
BITMAP
000090
0003F4
000774
0003B4
0002E0
001BF9
00FEA9
03E060
0B80B4
1E00F0
2D00E0
3C01E0
3C02E0
7C03D0
3C07D0
3D0FD0
1FBBC0
07E2C0
ENDCHAR
STARTCHAR Aringacute.ss01
ENCODING -1
SWIDTH 780 0
DWIDTH 11 0
BBX 14 20 0 0
BITMAP
00000040
000001E0
0001E780
0003B400
00073400
0003F400
00019000
001BF900
00FEA900
03E06000
0B80B400
1E00F000
2D00E000
3C01E000
3C02E000
7C03D000
3C07D000
3D0FD000
1FBBC000
07E2C000
ENDCHAR
STARTCHAR Atilde.ss01
ENCODING -1
SWIDTH 780 0
DWIDTH 11 0
BBX 12 16 0 0
BITMAP
000B4A
001FED
001878
001BF9
00FEA9
03E060
0B80B4
1E00F0
2D00E0
3C01E0
3C02E0
7C03D0
3C07D0
3D0FD0
1FBBC0
07E2C0
ENDCHAR
STARTCHAR AE.ss01
ENCODING -1
SWIDTH 1057 0
DWIDTH 15 0
BBX 15 13 0 0
BITMAP
001B5FFC
01FF7EA4
07E07800
0B80B400
1F00F400
2D00F000
3C01FFF0
3C02FAA0
7C03E000
3C07E000
3D0FF000
1FBCBEB8
07E42FE4
ENDCHAR
STARTCHAR AEacute.ss01
ENCODING -1
SWIDTH 1057 0
DWIDTH 15 0
BBX 15 17 0 0
BITMAP
00000040
000002E0
00000B80
00001900
001B5FFC
01FF7EA4
07E07800
0B80B400
1F00F400
2D00F000
3C01FFF0
3C02FAA0
7C03E000
3C07E000
3D0FF000
1FBCBEB8
07E42FE4
ENDCHAR
STARTCHAR B.ss01
ENCODING -1
SWIDTH 826 0
DWIDTH 12 0
BBX 11 13 1 0
BITMAP
0AFE40
2FABE0
0001F4
1900B4
2D00F0
3C06E0
3CBF40
786F80
7803D0
B402D0
B407C0
BABF40
BFE800
ENDCHAR
STARTCHAR C.ss01
ENCODING -1
SWIDTH 704 0
DWIDTH 10 0
BBX 9 13 1 0
BITMAP
01BE00
0BEF40
2E0380
7C0380
B40380
F00000
F00000
F00000
F00000
F40040
780280
2FAF40
0BF800
ENDCHAR
STARTCHAR Cacute.ss01
ENCODING -1
SWIDTH 704 0
DWIDTH 10 0
BBX 10 17 1 0
BITMAP
000040
0002D0
000B80
002900
01BE00
0BEF40
2E0380
7C0380
B40380
F00000
F00000
F00000
F00000
F40040
780280
2FAF40
0BF800
ENDCHAR
STARTCHAR Ccaron.ss01
ENCODING -1
SWIDTH 704 0
DWIDTH 10 0
BBX 9 17 1 0
BITMAP
004140
00D740
00BA00
003800
01BE00
0BEF40
2E0380
7C0380
B40380
F00000
F00000
F00000
F00000
F40040
780280
2FAF40
0BF800
ENDCHAR
STARTCHAR Ccedilla.ss01
ENCODING -1
SWIDTH 704 0
DWIDTH 10 0
BBX 9 17 1 -4
BITMAP
01BE00
0BEF40
2E0380
7C0380
B40340
F00000
F00000
F00000
F00000
B40180
7D0780
2FFE00
07E400
01B000
00B000
0FD000
064000
ENDCHAR
STARTCHAR Ccircumflex.ss01
ENCODING -1
SWIDTH 704 0
DWIDTH 10 0
BBX 9 17 1 0
BITMAP
002D00
00BE00
01EB00
01C700
01BE00
0BEF40
2E0380
7C0380
B40380
F00000
F00000
F00000
F00000
F40040
780280
2FAF40
0BF800
ENDCHAR
STARTCHAR Cdotaccent.ss01
ENCODING -1
SWIDTH 704 0
DWIDTH 10 0
BBX 9 15 1 0
BITMAP
003C00
003C00
01BE00
0BEF40
2E0380
7C0380
B40380
F00000
F00000
F00000
F00000
F40040
780280
2FAF40
0BF800
ENDCHAR
STARTCHAR D.ss01
ENCODING -1
SWIDTH 810 0
DWIDTH 11 0
BBX 10 13 1 0
BITMAP
0BF900
2EAF80
0007D0
1D01E0
2D00F0
3C00F0
3C00F0
7801F0
7802E0
B403D0
B41F80
BABE00
BFA400
ENDCHAR
STARTCHAR uni01C4.ss01
ENCODING -1
SWIDTH 1455 0
DWIDTH 20 0
BBX 20 17 1 0
BITMAP
0000000414
0000000A38
00000007B0
00000002D0
0BF901FFFD
2EAF81AABE
0007D0007D
1D01E000F8
2D00F002F0
3C00F007D0
3C00F00F80
7801F02E00
7802E07D00
B403D1F400
B41F83E000
BABE0BEAA4
BFA40BFFFC
ENDCHAR
STARTCHAR Eth.ss01
ENCODING -1
SWIDTH 821 0
DWIDTH 12 0
BBX 12 13 0 0
BITMAP
01FE40
02EBE0
03C0F8
07807C
0B403C
6FA43D
BFFC3C
1E003C
1E0078
2D00F4
2D02E0
2EAF80
1FF900
ENDCHAR
STARTCHAR Dcaron.ss01
ENCODING -1
SWIDTH 810 0
DWIDTH 11 0
BBX 10 17 1 0
BITMAP
014100
01CB00
00ED00
007400
0BF900
2EAF80
0007D0
1D01E0
2D00F0
3C00F0
3C00F0
7801F0
7802E0
B403D0
B41F80
BABE00
BFA400
ENDCHAR
STARTCHAR Dcroat.ss01
ENCODING -1
SWIDTH 821 0
DWIDTH 12 0
BBX 12 13 0 0
BITMAP
01FE40
02EBE0
03C0F8
07807C
0B403C
6FA43D
BFFC3C
1E003C
1E0078
2D00F4
2D02E0
2EAF80
1FF900
ENDCHAR
STARTCHAR E.ss01
ENCODING -1
SWIDTH 720 0
DWIDTH 10 0
BBX 10 13 0 0
BITMAP
01BF80
0BEBE0
1F40F0
1E00F0
1F00A0
0BE400
07F800
2E4000
7C0000
780010
7C01A0
2FABD0
06FA00
ENDCHAR
STARTCHAR Eacute.ss01
ENCODING -1
SWIDTH 720 0
DWIDTH 10 0
BBX 10 17 0 0
BITMAP
000010
0001F0
0007D0
000E00
01BF80
0BEBE0
1F40F0
1E00F0
1F00A0
0BE400
07F800
2E4000
7C0000
780010
7C01A0
2FABD0
06FA00
ENDCHAR
STARTCHAR Ebreve.ss01
ENCODING -1
SWIDTH 720 0
DWIDTH 10 0
BBX 10 16 0 0
BITMAP
00D0A0
00FBD0
006F40
01BF80
0BEBE0
1F40F0
1E00F0
1F00A0
0BE400
07F800
2E4000
7C0000
780010
7C01A0
2FABD0
06FA00
ENDCHAR
STARTCHAR Ecaron.ss01
ENCODING -1
SWIDTH 720 0
DWIDTH 10 0
BBX 10 17 0 0
BITMAP
001040
0072C0
003B40
001E00
01BF80
0BEBE0
1F40F0
1E00F0
1F00A0
0BE400
07F800
2E4000
7C0000
780010
7C01A0
2FABD0
06FA00
ENDCHAR
STARTCHAR Ecircumflex.ss01
ENCODING -1
SWIDTH 720 0
DWIDTH 10 0
BBX 10 17 0 0
BITMAP
001E00
002F40
007780
00A180
01BF80
0BEBE0
1F40F0
1E00F0
1F00A0
0BE400
07F800
2E4000
7C0000
780010
7C01A0
2FABD0
06FA00
ENDCHAR
STARTCHAR uni1EBE.ss01
ENCODING -1
SWIDTH 720 0
DWIDTH 10 0
BBX 11 18 0 0
BITMAP
000028
0000A4
001F00
007B80
00A280
01BF80
0BEBE0
1F40F0
1E00F0
1F00A0
0BE400
07F800
2E4000
7C0000
780010
7C01A0
2FABD0
06FA00
ENDCHAR
STARTCHAR uni1EC6.ss01
ENCODING -1
SWIDTH 720 0
DWIDTH 10 0
BBX 10 20 0 -3
BITMAP
001E00
002F40
007780
00A180
01BF80
0BEBE0
1F40F0
1E00F0
1F00A0
0BE400
07F800
2E4000
7C0000
780010
7C01A0
2FABD0
06FA00
000000
01E000
01E000
ENDCHAR
STARTCHAR uni1EC0.ss01
ENCODING -1
SWIDTH 720 0
DWIDTH 10 0
BBX 10 18 0 0
BITMAP
038000
019000
001F00
007B80
00A280
01BF80
0BEBE0
1F40F0
1E00F0
1F00A0
0BE400
07F800
2E4000
7C0000
780010
7C01A0
2FABD0
06FA00
ENDCHAR
STARTCHAR uni1EC2.ss01
ENCODING -1
SWIDTH 720 0
DWIDTH 10 0
BBX 11 18 0 0
BITMAP
0000B8
00006C
00052C
002FB4
00B780
01FFC0
0BEBE0
1F40F0
1E00F0
1F00A0
0BE400
07F800
2E4000
7C0000
780010
7C01A0
2FABD0
06FA00
ENDCHAR
STARTCHAR uni1EC4.ss01
ENCODING -1
SWIDTH 720 0
DWIDTH 10 0
BBX 10 19 0 0
BITMAP
002860
007BD0
004540
001F40
007780
00A280
01BF80
0BEBE0
1F40F0
1E00F0
1F00A0
0BE400
07F800
2E4000
7C0000
780010
7C01A0
2FABD0
06FA00
ENDCHAR
STARTCHAR uni0204.ss01
ENCODING -1
SWIDTH 720 0
DWIDTH 10 0
BBX 10 17 0 0
BITMAP
004500
01DB00
00E700
006240
01BF80
0BEBE0
1F40F0
1E00F0
1F00A0
0BE400
07F800
2E4000
7C0000
780010
7C01A0
2FABD0
06FA00
ENDCHAR
STARTCHAR Edieresis.ss01
ENCODING -1
SWIDTH 720 0
DWIDTH 10 0
BBX 10 15 0 0
BITMAP
00B6C0
00B2C0
01BF80
0BEBE0
1F40F0
1E00F0
1F00A0
0BE400
07F800
2E4000
7C0000
780010
7C01A0
2FABD0
06FA00
ENDCHAR
STARTCHAR Edotaccent.ss01
ENCODING -1
SWIDTH 720 0
DWIDTH 10 0
BBX 10 15 0 0
BITMAP
001E00
001E00
01BF80
0BEBE0
1F40F0
1E00F0
1F00A0
0BE400
07F800
2E4000
7C0000
780010
7C01A0
2FABD0
06FA00
ENDCHAR
STARTCHAR uni1EB8.ss01
ENCODING -1
SWIDTH 720 0
DWIDTH 10 0
BBX 10 16 0 -3
BITMAP
01BF80
0BEBE0
1F40F0
1E00F0
1F00A0
0BE400
07F800
2E4000
7C0000
780010
7C01A0
2FABD0
06FA00
000000
01E000
01E000
ENDCHAR
STARTCHAR Egrave.ss01
ENCODING -1
SWIDTH 720 0
DWIDTH 10 0
BBX 10 17 0 0
BITMAP
010000
07C000
01F400
002800
01BF80
0BEBE0
1F40F0
1E00F0
1F00A0
0BE400
07F800
2E4000
7C0000
780010
7C01A0
2FABD0
06FA00
ENDCHAR
STARTCHAR uni1EBA.ss01
ENCODING -1
SWIDTH 720 0
DWIDTH 10 0
BBX 10 17 0 0
BITMAP
001F40
001B80
000B80
000E00
01BF80
0BEBE0
1F40F0
1E00F0
1F00A0
0BE400
07F800
2E4000
7C0000
780010
7C01A0
2FABD0
06FA00
ENDCHAR
STARTCHAR uni0206.ss01
ENCODING -1
SWIDTH 720 0
DWIDTH 10 0
BBX 10 16 0 0
BITMAP
001A40
00BFD0
00E1E0
01FF90
0BEBE0
1F40F0
1E00F0
1F00A0
0BE400
07F800
2E4000
7C0000
780010
7C01A0
2FABD0
06FA00
ENDCHAR
STARTCHAR Emacron.ss01
ENCODING -1
SWIDTH 720 0
DWIDTH 10 0
BBX 10 15 0 0
BITMAP
006A40
00BF80
01BF80
0BEBE0
1F40F0
1E00F0
1F00A0
0BE400
07F800
2E4000
7C0000
780010
7C01A0
2FABD0
06FA00
ENDCHAR
STARTCHAR Eogonek.ss01
ENCODING -1
SWIDTH 720 0
DWIDTH 10 0
BBX 10 17 0 -4
BITMAP
01BF80
0BEBE0
1F40F0
1E00F0
1F00A0
0BE400
07F800
2E4000
7C0000
780010
7C01A0
2FABD0
06FE00
007400
00B000
00BA00
002E00
ENDCHAR
STARTCHAR uni1EBC.ss01
ENCODING -1
SWIDTH 720 0
DWIDTH 10 0
BBX 10 16 0 0
BITMAP
007460
00FEE0
01C780
01BF80
0BEBE0
1F40F0
1E00F0
1F00A0
0BE400
07F800
2E4000
7C0000
780010
7C01A0
2FABD0
06FA00
ENDCHAR
STARTCHAR F.ss01
ENCODING -1
SWIDTH 671 0
DWIDTH 9 0
BBX 10 13 1 0
BITMAP
BFFFD0
6FAA40
0B0000
0F0000
0F0000
1E0000
FFFD00
BEA800
2D0000
3C0000
3C0000
3C0000
380000
ENDCHAR
STARTCHAR G.ss01
ENCODING -1
SWIDTH 811 0
DWIDTH 11 0
BBX 10 17 1 -4
BITMAP
01BE00
0BEB80
2E02C0
7C02D0
B402C0
F00000
F00000
F00A90
F01FE0
B401E0
7D01D0
2FABD0
06FFC0
0002C0
0003C0
000380
000100
ENDCHAR
STARTCHAR Gbreve.ss01
ENCODING -1
SWIDTH 811 0
DWIDTH 11 0
BBX 10 20 1 -4
BITMAP
0181C0
01EBC0
00BE00
01BE00
0BEB80
2E02C0
7C02D0
B402C0
F00000
F00000
F00A90
F01FE0
B401E0
7D01D0
2FABD0
06FFC0
0002C0
0003C0
000380
000100
ENDCHAR
STARTCHAR Gcaron.ss01
ENCODING -1
SWIDTH 811 0
DWIDTH 11 0
BBX 10 21 1 -4
BITMAP
004140
00A380
007B00
002D00
01BE00
0BEB80
2E02C0
7C02D0
B402C0
F00000
F00000
F00A90
F01FE0
B401E0
7D01D0
2FABD0
06FFC0
0002C0
0003C0
000380
000100
ENDCHAR
STARTCHAR Gcircumflex.ss01
ENCODING -1
SWIDTH 811 0
DWIDTH 11 0
BBX 10 21 1 -4
BITMAP
002D00
007F00
00E740
01D340
01BE00
0BEB80
2E02C0
7C02D0
B402C0
F00000
F00000
F00A90
F01FE0
B401E0
7D01D0
2FABD0
06FFC0
0002C0
0003C0
000380
000100
ENDCHAR
STARTCHAR uni0122.ss01
ENCODING -1
SWIDTH 811 0
DWIDTH 11 0
BBX 10 17 1 -4
BITMAP
01BE00
0BEB80
2E02C0
7C02D0
B402C0
F00000
F00000
F00A90
F01FE0
B401E0
7D01D0
2FABD0
06FFC0
0002C0
00D3C0
01D380
01C100
ENDCHAR
STARTCHAR Gdotaccent.ss01
ENCODING -1
SWIDTH 811 0
DWIDTH 11 0
BBX 10 19 1 -4
BITMAP
003D00
003D00
01BE00
0BEB80
2E02C0
7C02D0
B402C0
F00000
F00000
F00A90
F01FE0
B401E0
7D01D0
2FABD0
06FFC0
0002C0
0003C0
000380
000100
ENDCHAR
STARTCHAR H.ss01
ENCODING -1
SWIDTH 846 0
DWIDTH 12 0
BBX 11 13 1 0
BITMAP
0E00B0
1E00F0
1E00F0
1D00F0
2D01E0
2D01E0
FFFFF8
BEABE4
7802C0
7803C0
B403C0
B40780
B00340
ENDCHAR
STARTCHAR Hbar.ss01
ENCODING -1
SWIDTH 856 0
DWIDTH 12 0
BBX 11 13 1 0
BITMAP
0E00B0
1E00B4
6FAAF8
BFFFFC
2D00E0
2D01E0
FFFFF8
BEABE4
7802D0
7803C0
7803C0
B40780
740380
ENDCHAR
STARTCHAR Hcircumflex.ss01
ENCODING -1
SWIDTH 846 0
DWIDTH 12 0
BBX 11 17 1 0
BITMAP
001E00
007F00
00B740
00D240
0E00B0
1E00F0
1E00F0
1D00F0
2D01E0
2D01E0
FFFFF8
BEABE4
7802C0
7803C0
B403C0
B40780
B00340
ENDCHAR
STARTCHAR I.ss01
ENCODING -1
SWIDTH 357 0
DWIDTH 5 0
BBX 4 13 1 0
BITMAP
1D
2E
2D
2D
3C
3C
38
78
74
B4
B4
F0
A0
ENDCHAR
STARTCHAR Iacute.ss01
ENCODING -1
SWIDTH 357 0
DWIDTH 5 0
BBX 7 17 1 0
BITMAP
0010
00B4
03E0
0A00
1D00
2E00
2D00
2D00
3C00
3C00
3800
7800
7400
B400
B400
F000
A000
ENDCHAR
STARTCHAR Iacute_J.loclNLD.ss01
ENCODING -1
SWIDTH 776 0
DWIDTH 11 0
BBX 13 17 1 0
BITMAP
00100100
00F40F40
07E07E00
0A00A000
2C01D000
3D02D000
3C02D000
3C03D000
7807C000
780BC000
782FC000
3FF78000
1FD78000
000B4000
501F0000
BEBD0000
2FE40000
ENDCHAR
STARTCHAR Ibreve.ss01
ENCODING -1
SWIDTH 357 0
DWIDTH 5 0
BBX 6 16 1 0
BITMAP
A0A0
BAE0
2F80
1D00
2E00
2D00
2D00
3C00
3C00
3800
7800
7400
B400
B400
F000
A000
ENDCHAR
STARTCHAR Icircumflex.ss01
ENCODING -1
SWIDTH 357 0
DWIDTH 5 0
BBX 5 17 1 0
BITMAP
0B40
2F80
7AC0
61C0
1D00
2E00
2D00
2D00
3C00
3C00
3800
7800
7400
B400
B400
F000
A000
ENDCHAR
STARTCHAR uni0208.ss01
ENCODING -1
SWIDTH 357 0
DWIDTH 5 0
BBX 5 17 1 0
BITMAP
4100
EB00
B340
3280
1D00
2E00
2D00
2D00
3C00
3C00
3800
7800
7400
B400
B400
F000
A000
ENDCHAR
STARTCHAR Idieresis.ss01
ENCODING -1
SWIDTH 357 0
DWIDTH 5 0
BBX 6 15 1 0
BITMAP
76D0
75D0
1D00
2E00
2D00
2D00
3C00
3C00
3800
7800
7400
B400
B400
F000
A000
ENDCHAR
STARTCHAR Idotaccent.ss01
ENCODING -1
SWIDTH 357 0
DWIDTH 5 0
BBX 4 15 1 0
BITMAP
1F
1E
1D
2E
2D
2D
3C
3C
38
78
74
B4
B4
F0
A0
ENDCHAR
STARTCHAR uni1ECA.ss01
ENCODING -1
SWIDTH 357 0
DWIDTH 5 0
BBX 5 16 0 -3
BITMAP
0740
0B80
0B40
0B40
0F00
0F00
0E00
1E00
1D00
2D00
2D00
3C00
2800
0000
7C00
7800
ENDCHAR
STARTCHAR Igrave.ss01
ENCODING -1
SWIDTH 357 0
DWIDTH 5 0
BBX 5 17 0 0
BITMAP
5000
F400
7D00
0700
0740
0B80
0B40
0B40
0F00
0F00
0E00
1E00
1D00
2D00
2D00
3C00
2800
ENDCHAR
STARTCHAR uni1EC8.ss01
ENCODING -1
SWIDTH 357 0
DWIDTH 5 0
BBX 5 17 1 0
BITMAP
1F40
1BC0
0780
0F40
1D00
2E00
2D00
2D00
3C00
3C00
3800
7800
7400
B400
B400
F000
A000
ENDCHAR
STARTCHAR uni020A.ss01
ENCODING -1
SWIDTH 357 0
DWIDTH 5 0
BBX 6 16 1 0
BITMAP
1A40
7FD0
A0F0
5D50
2E00
2D00
2D00
3C00
3C00
3800
7800
7400
B400
B400
F000
A000
ENDCHAR
STARTCHAR Imacron.ss01
ENCODING -1
SWIDTH 357 0
DWIDTH 5 0
BBX 5 15 1 0
BITMAP
2A80
7FC0
1D00
2E00
2D00
2D00
3C00
3C00
3800
7800
7400
B400
B400
F000
A000
ENDCHAR
STARTCHAR Iogonek.ss01
ENCODING -1
SWIDTH 357 0
DWIDTH 5 0
BBX 5 17 0 -4
BITMAP
0740
0B80
0B40
0B40
0F00
0F00
0E00
1E00
1D00
2D00
2D00
3C00
3800
7000
B000
7F00
1900
ENDCHAR
STARTCHAR Itilde.ss01
ENCODING -1
SWIDTH 357 0
DWIDTH 5 0
BBX 6 16 1 0
BITMAP
7870
BFA0
D2D0
1D00
2E00
2D00
2D00
3C00
3C00
3800
7800
7400
B400
B400
F000
A000
ENDCHAR
STARTCHAR J.ss01
ENCODING -1
SWIDTH 716 0
DWIDTH 10 0
BBX 9 13 1 0
BITMAP
0AFE80
7EAFC0
B00B40
E00F40
B00F00
500F00
001E00
001E00
001D00
402C00
E03800
BEF400
1F9000
ENDCHAR
STARTCHAR Jcircumflex.ss01
ENCODING -1
SWIDTH 716 0
DWIDTH 10 0
BBX 9 17 1 0
BITMAP
007800
00FD00
02DE00
034A00
0AFE80
7EAFC0
B00B40
E00F40
B00F00
500F00
001E00
001E00
001D00
402C00
E03800
BEF400
1F9000
ENDCHAR
STARTCHAR K.ss01
ENCODING -1
SWIDTH 779 0
DWIDTH 11 0
BBX 10 13 1 0
BITMAP
1D00E0
1E01E0
2D02D0
2D0780
2D0B40
3C2D00
7EF400
FFD000
79F400
B47800
B43D00
B41F90
B00BE0
ENDCHAR
STARTCHAR uni0136.ss01
ENCODING -1
SWIDTH 779 0
DWIDTH 11 0
BBX 10 17 1 -4
BITMAP
1D00E0
1E01E0
2D02D0
2D0780
2D0B40
3C2D00
7EF400
FFD000
79F400
B47800
B43D00
B41F90
B00BE0
000000
028000
038000
034000
ENDCHAR
STARTCHAR L.ss01
ENCODING -1
SWIDTH 625 0
DWIDTH 9 0
BBX 8 13 1 0
BITMAP
1D00
2D00
2D00
2D00
3C00
3C00
7800
7800
B400
B400
B400
FFFD
BFFD
ENDCHAR
STARTCHAR uni01C7.ss01
ENCODING -1
SWIDTH 1291 0
DWIDTH 18 0
BBX 17 13 1 0
BITMAP
1D0006FE80
2D007EAFC0
2D00B40B40
2D00F00B40
3C00B00F00
3C00500F00
7800000E00
7800001E00
B400001D00
B400402C00
B400E03800
FFFDBEF400
BFFD1F9000
ENDCHAR
STARTCHAR Lacute.ss01
ENCODING -1
SWIDTH 625 0
DWIDTH 9 0
BBX 8 17 1 0
BITMAP
0010
00F4
03E0
0A00
1D00
2D00
2D00
2D00
3C00
3C00
7800
7800
B400
B400
B400
FFFD
BFFD
ENDCHAR
STARTCHAR Lcaron.ss01
ENCODING -1
SWIDTH 625 0
DWIDTH 9 0
BBX 8 13 1 0
BITMAP
1D00
2D00
2D0D
2D1D
3C18
3C00
7800
7800
B400
B400
B400
FFFD
BFFD
ENDCHAR
STARTCHAR uni013B.ss01
ENCODING -1
SWIDTH 625 0
DWIDTH 9 0
BBX 8 17 1 -4
BITMAP
1D00
2D00
2D00
2D00
3C00
3C00
7800
7800
B400
B400
B400
FFFD
BFFD
0000
0340
0740
0700
ENDCHAR
STARTCHAR Ldot.ss01
ENCODING -1
SWIDTH 625 0
DWIDTH 9 0
BBX 8 13 1 0
BITMAP
1D00
2D00
2D00
2D00
3C00
3C00
787C
7878
B400
B400
B400
FFFD
BFFD
ENDCHAR
STARTCHAR uni01C8.ss01
ENCODING -1
SWIDTH 854 0
DWIDTH 12 0
BBX 11 20 1 -7
BITMAP
1D0000
2D0000
2D0000
2D002C
3C003C
3C0000
780038
780038
B40074
B40074
B40074
FFFDB0
BFFDB0
0001E0
0007E0
001DD0
0035C0
007380
007B40
002D00
ENDCHAR
STARTCHAR Lslash.ss01
ENCODING -1
SWIDTH 625 0
DWIDTH 9 0
BBX 9 13 0 0
BITMAP
074000
0B4000
0B4400
0B6C00
0FF400
1F8000
7E0000
7E0000
1D0000
2D0000
2D0000
3FFF40
2FFF40
ENDCHAR
STARTCHAR M.ss01
ENCODING -1
SWIDTH 1139 0
DWIDTH 16 0
BBX 15 13 1 0
BITMAP
1D2E07D0
2DEB5EF0
2E83B4B4
3F03E0B4
3E07D0F0
3D07C0F0
7C0B81E0
780B41E0
B80F42D0
B40F02D0
B41F02D0
F01E03C0
A01D02C0
ENDCHAR
STARTCHAR N.ss01
ENCODING -1
SWIDTH 799 0
DWIDTH 11 0
BBX 10 13 1 0
BITMAP
1D2F80
2DBBD0
2EC2E0
3F42D0
3E02D0
3D02D0
7C03C0
7803C0
B80780
B40780
B40B40
F00B40
A00B00
ENDCHAR
STARTCHAR uni01CA.ss01
ENCODING -1
SWIDTH 1515 0
DWIDTH 21 0
BBX 21 13 1 0
BITMAP
1D2F801BFE00
2DBBD0FAAF40
2EC2E2D02D00
3F42D2C02D00
3E02D2D02D00
3D02D0403C00
7C03C0003C00
7803C0003800
B80780007800
B4078140B400
B40B42C0F000
F00B41FBD000
A00B006F4000
ENDCHAR
STARTCHAR Nacute.ss01
ENCODING -1
SWIDTH 799 0
DWIDTH 11 0
BBX 10 17 1 0
BITMAP
000040
0002D0
000F80
002900
1D2F80
2DBBD0
2EC2E0
3F42D0
3E02D0
3D02D0
7C03C0
7803C0
B80780
B40780
B40B40
F00B40
A00B00
ENDCHAR
STARTCHAR Ncaron.ss01
ENCODING -1
SWIDTH 799 0
DWIDTH 11 0
BBX 10 17 1 0
BITMAP
004140
00D740
00BE00
003800
1D2F80
2DBBD0
2EC2E0
3F42D0
3E02D0
3D02D0
7C03C0
7803C0
B80780
B40780
B40B40
F00B40
A00B00
ENDCHAR
STARTCHAR uni0145.ss01
ENCODING -1
SWIDTH 799 0
DWIDTH 11 0
BBX 10 17 1 -4
BITMAP
1D2F80
2DBBD0
2EC2E0
3F42D0
3E02D0
3D02D0
7C03C0
7803C0
B80780
B40780
B40B40
F00B40
A00B00
000000
028000
038000
034000
ENDCHAR
STARTCHAR Eng.ss01
ENCODING -1
SWIDTH 792 0
DWIDTH 11 0
BBX 10 18 1 -5
BITMAP
1D2F80
2DBBD0
2EC2D0
3F42D0
3E02D0
3D03C0
7C0780
780780
B80B40
B40B40
B40F00
F01E00
A01D00
002D00
003C00
A07400
BEE000
1F8000
ENDCHAR
STARTCHAR uni01CB.ss01
ENCODING -1
SWIDTH 1008 0
DWIDTH 14 0
BBX 14 20 1 -7
BITMAP
1D2F8000
2DBBD000
2EC2E000
3F42D2D0
3E02D3D0
3D02D000
7C03C280
7803C380
B8078380
B4078740
B40B4740
F00B4740
A00B0B00
00001F00
00007E00
0001DD00
00029D00
00032C00
0007B400
0002E000
ENDCHAR
STARTCHAR Ntilde.ss01
ENCODING -1
SWIDTH 799 0
DWIDTH 11 0
BBX 10 16 1 0
BITMAP
01E1C0
02FE80
034B40
1D2F80
2DBBD0
2EC2E0
3F42D0
3E02D0
3D02D0
7C03C0
7803C0
B80780
B40780
B40B40
F00B40
A00B00
ENDCHAR
STARTCHAR OE.ss01
ENCODING -1
SWIDTH 1166 0
DWIDTH 16 0
BBX 16 13 1 0
BITMAP
01BE0BFE
0BEFEEA9
2E02FC00
7C01FC00
B400F800
F000F800
F000FFF8
F000FAA4
F001F000
F402F000
B80BF400
3FBE7EAD
0BF41BF8
ENDCHAR
STARTCHAR P.ss01
ENCODING -1
SWIDTH 662 0
DWIDTH 9 0
BBX 10 13 0 0
BITMAP
0AF900
2FEF80
0783C0
0782D0
0B42D0
0B43C0
0F1B80
7FFE00
2F9000
1E0000
1E0000
2D0000
1D0000
ENDCHAR
STARTCHAR Thorn.ss01
ENCODING -1
SWIDTH 658 0
DWIDTH 9 0
BBX 9 13 0 0
BITMAP
038000
078000
07E400
2FFF40
1B4B80
0B43C0
0F03C0
0F0B80
2FBE00
7FE400
1E0000
2D0000
1D0000
ENDCHAR
STARTCHAR Q.ss01
ENCODING -1
SWIDTH 816 0
DWIDTH 11 0
BBX 10 17 1 -4
BITMAP
01BE00
0BEFC0
2E02E0
7800F0
B400F0
F000F0
F000F0
F001F0
F002E0
B403C0
7D5F40
2FFD00
06F400
007C00
003E00
001F00
000500
ENDCHAR
STARTCHAR R.ss01
ENCODING -1
SWIDTH 744 0
DWIDTH 10 0
BBX 10 13 1 0
BITMAP
2BE400
BFBE00
1E1F00
1E0F40
2D0F00
2D2E00
7EF800
BFD000
79F000
78B400
747C00
B42F90
700BD0
ENDCHAR
STARTCHAR Racute.ss01
ENCODING -1
SWIDTH 744 0
DWIDTH 10 0
BBX 10 17 1 0
BITMAP
000100
000B80
002E00
006400
2BE400
BFBE00
1E1F00
1E0F40
2D0F00
2D2E00
7EF800
BFD000
79F000
78B400
747C00
B42F90
700BD0
ENDCHAR
STARTCHAR Rcaron.ss01
ENCODING -1
SWIDTH 744 0
DWIDTH 10 0
BBX 10 17 1 0
BITMAP
010500
038D00
01E800
00B000
2BE400
BFBE00
1E1F00
1E0F40
2D0F00
2D2E00
7EF800
BFD000
79F000
78B400
747C00
B42F90
700BD0
ENDCHAR
STARTCHAR uni0156.ss01
ENCODING -1
SWIDTH 744 0
DWIDTH 10 0
BBX 10 17 1 -4
BITMAP
2BE400
BFBE00
1E1F00
1E0F40
2D0F00
2D2E00
7EF800
BFD000
79F000
78B400
747C00
B42F90
700BD0
000000
028000
038000
034000
ENDCHAR
STARTCHAR uni0210.ss01
ENCODING -1
SWIDTH 744 0
DWIDTH 10 0
BBX 10 17 1 0
BITMAP
051000
0E7400
073800
025800
2BE400
BFBE00
1E1F00
1E0F40
2D0F00
2D2E00
7EF800
BFD000
79F000
78B400
747C00
B42F90
700BD0
ENDCHAR
STARTCHAR uni0212.ss01
ENCODING -1
SWIDTH 744 0
DWIDTH 10 0
BBX 10 16 1 0
BITMAP
006400
07FE00
0B4B00
2FE900
BFBE00
1E1F00
1E0F40
2D0F00
2D2E00
7EF800
BFD000
79F000
78B400
747C00
B42F90
700BD0
ENDCHAR
STARTCHAR T.ss01
ENCODING -1
SWIDTH 631 0
DWIDTH 9 0
BBX 10 13 1 0
BITMAP
BFFFD0
AAEA80
02D000
02D000
03C000
03C000
078000
078000
0B4000
0B4000
0F4000
0F0000
0A0000
ENDCHAR
STARTCHAR Tbar.ss01
ENCODING -1
SWIDTH 631 0
DWIDTH 9 0
BBX 10 13 1 0
BITMAP
BFFFD0
AAEA80
02D000
02D000
03C000
03C000
7FFC00
6BA400
0B4000
0B4000
0B4000
0F0000
0A0000
ENDCHAR
STARTCHAR Tcaron.ss01
ENCODING -1
SWIDTH 631 0
DWIDTH 9 0
BBX 10 17 1 0
BITMAP
010500
035D00
02E800
00E000
BFFFD0
AAEA80
02D000
02D000
03C000
03C000
078000
078000
0B4000
0B4000
0F4000
0F0000
0A0000
ENDCHAR
STARTCHAR uni0162.ss01
ENCODING -1
SWIDTH 631 0
DWIDTH 9 0
BBX 10 17 1 -4
BITMAP
BFFFD0
AAEA80
02D000
02D000
03C000
038000
078000
074000
0B4000
0B4000
0F0000
1F0000
2F4000
038000
038000
7F0000
280000
ENDCHAR
STARTCHAR uni021A.ss01
ENCODING -1
SWIDTH 631 0
DWIDTH 9 0
BBX 10 17 1 -4
BITMAP
BFFFD0
AAEA80
02D000
02D000
03C000
03C000
078000
078000
0B4000
0B4000
0F4000
0F0000
0A0000
000000
0A0000
0E0000
0D0000
ENDCHAR
STARTCHAR U.ss01
ENCODING -1
SWIDTH 800 0
DWIDTH 11 0
BBX 10 13 1 0
BITMAP
1D00E0
2E01E0
2D01E0
2D02D0
3C02D0
3C03D0
7807C0
780BC0
B40FC0
B42F80
B47B80
7FE740
2F4740
ENDCHAR
STARTCHAR Uacute.ss01
ENCODING -1
SWIDTH 800 0
DWIDTH 11 0
BBX 10 17 1 0
BITMAP
000040
0002D0
000B80
002900
1D00E0
2E01E0
2D01E0
2D02D0
3C02D0
3C03D0
7807C0
780BC0
B40FC0
B42F80
B47B80
7FE740
2F4740
ENDCHAR
STARTCHAR Ubreve.ss01
ENCODING -1
SWIDTH 800 0
DWIDTH 11 0
BBX 10 16 1 0
BITMAP
028180
02EB80
00BE00
1D00E0
2E01E0
2D01E0
2D02D0
3C02D0
3C03D0
7807C0
780BC0
B40FC0
B42F80
B47B80
7FE740
2F4740
ENDCHAR
STARTCHAR Ucircumflex.ss01
ENCODING -1
SWIDTH 800 0
DWIDTH 11 0
BBX 10 17 1 0
BITMAP
002D00
00BE00
01EB00
01C700
1D00E0
2E01E0
2D01E0
2D02D0
3C02D0
3C03D0
7807C0
780BC0
B40FC0
B42F80
B47B80
7FE740
2F4740
ENDCHAR
STARTCHAR uni0214.ss01
ENCODING -1
SWIDTH 800 0
DWIDTH 11 0
BBX 10 17 1 0
BITMAP
010400
039D00
02CD00
00C600
1D00E0
2E01E0
2D01E0
2D02D0
3C02D0
3C03D0
7807C0
780BC0
B40FC0
B42F80
B47B80
7FE740
2F4740
ENDCHAR
STARTCHAR Udieresis.ss01
ENCODING -1
SWIDTH 800 0
DWIDTH 11 0
BBX 10 15 1 0
BITMAP
01E740
01D740
1D00E0
2E01E0
2D01E0
2D02D0
3C02D0
3C03D0
7807C0
780BC0
B40FC0
B42F80
B47B80
7FE740
2F4740
ENDCHAR
STARTCHAR uni1EE4.ss01
ENCODING -1
SWIDTH 800 0
DWIDTH 11 0
BBX 10 16 1 -3
BITMAP
1D00E0
2E01E0
2D01E0
2D02D0
3C02D0
3C03D0
7807C0
780BC0
B40FC0
B42F80
B47B80
7FE740
2F4740
000000
03D000
03D000
ENDCHAR
STARTCHAR Ugrave.ss01
ENCODING -1
SWIDTH 800 0
DWIDTH 11 0
BBX 10 17 1 0
BITMAP
050000
0F4000
07D000
007000
1D00E0
2E01E0
2D01E0
2D02D0
3C02D0
3C03D0
7807C0
780BC0
B40FC0
B42F80
B47B80
7FE740
2F4740
ENDCHAR
STARTCHAR uni1EE6.ss01
ENCODING -1
SWIDTH 800 0
DWIDTH 11 0
BBX 10 17 1 0
BITMAP
007D00
002B00
001F00
002D00
1D00E0
2E01E0
2D01E0
2D02D0
3C02D0
3C03D0
7807C0
780BC0
B40FC0
B42F80
B47B80
7FE740
2F4740
ENDCHAR
STARTCHAR Uhorn.ss01
ENCODING -1
SWIDTH 800 0
DWIDTH 11 0
BBX 12 15 1 0
BITMAP
00000A
00000E
1D00FD
2E01F8
2D01E0
2D02E0
3C02D0
3C03D0
7807C0
780BC0
B40FC0
B42F80
B47B80
7FE740
2F4740
ENDCHAR
STARTCHAR uni1EE8.ss01
ENCODING -1
SWIDTH 800 0
DWIDTH 11 0
BBX 12 17 1 0
BITMAP
000040
0002D0
000B8A
00290E
1D00FD
2E01F8
2D01E0
2D02E0
3C02D0
3C03D0
7807C0
780BC0
B40FC0
B42F80
B47B80
7FE740
2F4740
ENDCHAR
STARTCHAR uni1EF0.ss01
ENCODING -1
SWIDTH 800 0
DWIDTH 11 0
BBX 12 18 1 -3
BITMAP
00000A
00000E
1D00FD
2E01F8
2D01E0
2D02E0
3C02D0
3C03D0
7807C0
780BC0
B40FC0
B42F80
B47B80
7FE740
2F4740
000000
03D000
03D000
ENDCHAR
STARTCHAR uni1EEA.ss01
ENCODING -1
SWIDTH 800 0
DWIDTH 11 0
BBX 12 17 1 0
BITMAP
050000
0F4000
07D00A
00700E
1D00FD
2E01F8
2D01E0
2D02E0
3C02D0
3C03D0
7807C0
780BC0
B40FC0
B42F80
B47B80
7FE740
2F4740
ENDCHAR
STARTCHAR uni1EEC.ss01
ENCODING -1
SWIDTH 800 0
DWIDTH 11 0
BBX 12 17 1 0
BITMAP
007D00
002B00
001F0A
002D0E
1D00FD
2E01F8
2D01E0
2D02E0
3C02D0
3C03D0
7807C0
780BC0
B40FC0
B42F80
B47B80
7FE740
2F4740
ENDCHAR
STARTCHAR uni1EEE.ss01
ENCODING -1
SWIDTH 800 0
DWIDTH 11 0
BBX 12 16 1 0
BITMAP
01E1C0
02FECA
034B4E
1D00FD
2E01F8
2D01E0
2D02E0
3C02D0
3C03D0
7807C0
780BC0
B40FC0
B42F80
B47B80
7FE740
2F4740
ENDCHAR
STARTCHAR Uhungarumlaut.ss01
ENCODING -1
SWIDTH 800 0
DWIDTH 11 0
BBX 10 17 1 0
BITMAP
001140
007780
00A740
009600
1D00E0
2E01E0
2D01E0
2D02D0
3C02D0
3C03D0
7807C0
780BC0
B40FC0
B42F80
B47B80
7FE740
2F4740
ENDCHAR
STARTCHAR uni0216.ss01
ENCODING -1
SWIDTH 800 0
DWIDTH 11 0
BBX 10 16 1 0
BITMAP
002900
01FF80
02D2C0
1E01E0
2E01E0
2D01E0
2D02D0
3C02D0
3C03D0
7807C0
780BC0
B40FC0
B42F80
B47B80
7FE740
2F4740
ENDCHAR
STARTCHAR Umacron.ss01
ENCODING -1
SWIDTH 800 0
DWIDTH 11 0
BBX 10 15 1 0
BITMAP
00AA00
01FF00
1D00E0
2E01E0
2D01E0
2D02D0
3C02D0
3C03D0
7807C0
780BC0
B40FC0
B42F80
B47B80
7FE740
2F4740
ENDCHAR
STARTCHAR Uogonek.ss01
ENCODING -1
SWIDTH 800 0
DWIDTH 11 0
BBX 10 17 1 -4
BITMAP
1D00E0
2E01E0
2D01E0
2D02D0
3C02D0
3C03D0
7807C0
780BC0
B40FC0
B42F80
B47B80
7FE740
2F4B40
000D00
001C00
001E80
000BC0
ENDCHAR
STARTCHAR Uring.ss01
ENCODING -1
SWIDTH 800 0
DWIDTH 11 0
BBX 10 18 1 0
BITMAP
001800
007E00
00A700
00BE00
007D00
1D00E0
2E01E0
2D01E0
2D02D0
3C02D0
3C03D0
7807C0
780BC0
B40FC0
B42F80
B47B80
7FE740
2F4740
ENDCHAR
STARTCHAR Utilde.ss01
ENCODING -1
SWIDTH 800 0
DWIDTH 11 0
BBX 10 16 1 0
BITMAP
01E1C0
02FEC0
034B40
1D00E0
2E01E0
2D01E0
2D02D0
3C02D0
3C03D0
7807C0
780BC0
B40FC0
B42F80
B47B80
7FE740
2F4740
ENDCHAR
STARTCHAR V.ss01
ENCODING -1
SWIDTH 797 0
DWIDTH 11 0
BBX 11 13 1 0
BITMAP
2C0074
3C00B4
3C00F0
7C01F0
7801E0
7802D0
7803C0
780780
3C0B40
3C1E00
2D3C00
1FF400
0BD000
ENDCHAR
STARTCHAR W.ss01
ENCODING -1
SWIDTH 1236 0
DWIDTH 17 0
BBX 17 13 1 0
BITMAP
2C00E00740
3C01E00B40
3C02E00F40
7C03D00F00
7803D01E00
7807D02D00
780BD02C00
780FD03800
781ED0B400
3C2DD0F000
2D74E2D000
1FE0BF8000
0B803E0000
ENDCHAR
STARTCHAR Wacute.ss01
ENCODING -1
SWIDTH 1236 0
DWIDTH 17 0
BBX 17 17 1 0
BITMAP
0000010000
00000B4000
00002E0000
0000A40000
2C00E00740
3C01E00B40
3C02E00F40
7C03D00F00
7803D01E00
7807D02D00
780BD02C00
780FD03800
781ED0B400
3C2DD0F000
2D74E2D000
1FE0BF8000
0B803E0000
ENDCHAR
STARTCHAR Wcircumflex.ss01
ENCODING -1
SWIDTH 1236 0
DWIDTH 17 0
BBX 17 17 1 0
BITMAP
0000B40000
0001F80000
00039C0000
00070D0000
2C00E00740
3C01E00B40
3C02E00F40
7C03D00F00
7803D01E00
7807D02D00
780BD02C00
780FD03800
781ED0B400
3C2DD0F000
2D74E2D000
1FE0BF8000
0B803E0000
ENDCHAR
STARTCHAR Wdieresis.ss01
ENCODING -1
SWIDTH 1236 0
DWIDTH 17 0
BBX 17 15 1 0
BITMAP
00079D0000
00075D0000
2C00E00740
3C01E00B40
3C02E00F40
7C03D00F00
7803D01E00
7807D02D00
780BD02C00
780FD03800
781ED0B400
3C2DD0F000
2D74E2D000
1FE0BF8000
0B803E0000
ENDCHAR
STARTCHAR Wgrave.ss01
ENCODING -1
SWIDTH 1236 0
DWIDTH 17 0
BBX 17 17 1 0
BITMAP
0014000000
003D000000
001F800000
0001C00000
2C00E00740
3C01E00B40
3C02E00F40
7C03D00F00
7803D01E00
7807D02D00
780BD02C00
780FD03800
781ED0B400
3C2DD0F000
2D74E2D000
1FE0BF8000
0B803E0000
ENDCHAR
STARTCHAR X.ss01
ENCODING -1
SWIDTH 677 0
DWIDTH 9 0
BBX 12 13 -1 0
BITMAP
03801D
03D07C
01E0F4
00F2D0
00BF80
003E00
007D00
00FE00
02DF40
0B8780
1F03C0
7D02E0
7400E0
ENDCHAR
STARTCHAR Y.ss01
ENCODING -1
SWIDTH 776 0
DWIDTH 11 0
BBX 10 13 1 0
BITMAP
2C01D0
3D02D0
3C02D0
3C03D0
7807C0
780BC0
782FC0
3FF780
1FD780
000B40
501F00
BEBD00
2FE400
ENDCHAR
STARTCHAR Yacute.ss01
ENCODING -1
SWIDTH 776 0
DWIDTH 11 0
BBX 10 17 1 0
BITMAP
000040
0007C0
001F40
003800
2C01D0
3D02D0
3C02D0
3C03D0
7807C0
780BC0
782FC0
3FF780
1FD780
000B40
501F00
BEBD00
2FE400
ENDCHAR
STARTCHAR Ycircumflex.ss01
ENCODING -1
SWIDTH 776 0
DWIDTH 11 0
BBX 10 17 1 0
BITMAP
007800
00FD00
02DE00
028A00
2C01D0
3D02D0
3C02D0
3C03D0
7807C0
780BC0
782FC0
3FF780
1FD780
000B40
501F00
BEBD00
2FE400
ENDCHAR
STARTCHAR Ydieresis.ss01
ENCODING -1
SWIDTH 776 0
DWIDTH 11 0
BBX 10 15 1 0
BITMAP
02CB00
02CB00
2C01D0
3D02D0
3C02D0
3C03D0
7807C0
780BC0
782FC0
3FF780
1FD780
000B40
501F00
BEBD00
2FE400
ENDCHAR
STARTCHAR uni1EF4.ss01
ENCODING -1
SWIDTH 776 0
DWIDTH 11 0
BBX 10 16 1 -3
BITMAP
2C01D0
3D02D0
3C02D0
3C03D0
7807C0
780BC0
782FC0
3FF780
1FD780
000B40
501F00
BEBD00
2FE400
000000
0B8000
0B8000
ENDCHAR
STARTCHAR Ygrave.ss01
ENCODING -1
SWIDTH 776 0
DWIDTH 11 0
BBX 10 17 1 0
BITMAP
040000
1F0000
0BD000
00A000
2C01D0
3D02D0
3C02D0
3C03D0
7807C0
780BC0
782FC0
3FF780
1FD780
000B40
501F00
BEBD00
2FE400
ENDCHAR
STARTCHAR uni1EF6.ss01
ENCODING -1
SWIDTH 776 0
DWIDTH 11 0
BBX 10 17 1 0
BITMAP
00B800
006E00
002D00
007800
2C01D0
3D02D0
3C02D0
3C03D0
7807C0
780BC0
782FC0
3FF780
1FD780
000B40
501F00
BEBD00
2FE400
ENDCHAR
STARTCHAR uni0232.ss01
ENCODING -1
SWIDTH 776 0
DWIDTH 11 0
BBX 10 15 1 0
BITMAP
01A900
02FE00
2C01D0
3D02D0
3C02D0
3C03D0
7807C0
780BC0
782FC0
3FF780
1FD780
000B40
501F00
BEBD00
2FE400
ENDCHAR
STARTCHAR uni1EF8.ss01
ENCODING -1
SWIDTH 776 0
DWIDTH 11 0
BBX 10 16 1 0
BITMAP
01D280
03FB40
071E00
2C01D0
3D02D0
3C02D0
3C03D0
7807C0
780BC0
782FC0
3FF780
1FD780
000B40
501F00
BEBD00
2FE400
ENDCHAR
STARTCHAR Z.ss01
ENCODING -1
SWIDTH 665 0
DWIDTH 9 0
BBX 10 13 0 0
BITMAP
2FFFD0
1AABE0
0007C0
000F40
002E00
007D00
00F400
02E000
0BC000
1F4000
3E0000
BEAA40
BFFF80
ENDCHAR
STARTCHAR Zacute.ss01
ENCODING -1
SWIDTH 665 0
DWIDTH 9 0
BBX 10 17 0 0
BITMAP
000040
0002E0
000B80
001900
2FFFD0
1AABE0
0007C0
000F40
002E00
007D00
00F400
02E000
0BC000
1F4000
3E0000
BEAA40
BFFF80
ENDCHAR
STARTCHAR Zcaron.ss01
ENCODING -1
SWIDTH 665 0
DWIDTH 9 0
BBX 10 17 0 0
BITMAP
004140
00E380
007A00
002C00
2FFFD0
1AABE0
0007C0
000F40
002E00
007D00
00F400
02E000
0BC000
1F4000
3E0000
BEAA40
BFFF80
ENDCHAR
STARTCHAR Zdotaccent.ss01
ENCODING -1
SWIDTH 665 0
DWIDTH 9 0
BBX 10 15 0 0
BITMAP
003D00
003D00
2FFFD0
1AABE0
0007C0
000F40
002E00
007D00
00F400
02E000
0BC000
1F4000
3E0000
BEAA40
BFFF80
ENDCHAR
STARTCHAR i.loclTRK
ENCODING -1
SWIDTH 246 0
DWIDTH 3 0
BBX 6 10 0 0
BITMAP
2E00
2D00
0000
2C00
3800
3800
7400
74D0
7F80
2E00
ENDCHAR
STARTCHAR a.fina
ENCODING -1
SWIDTH 458 0
DWIDTH 6 0
BBX 6 7 0 0
BITMAP
07F0
1FF0
3CB0
74E0
75E0
7BE0
2DD0
ENDCHAR
STARTCHAR aacute.fina
ENCODING -1
SWIDTH 458 0
DWIDTH 6 0
BBX 7 13 0 0
BITMAP
0014
003C
0074
00A0
00C0
0000
07F0
1FF0
3CB0
74E0
75E0
7BE0
2DD0
ENDCHAR
STARTCHAR abreve.fina
ENCODING -1
SWIDTH 458 0
DWIDTH 6 0
BBX 8 12 0 0
BITMAP
0404
1D1D
0FBC
07E4
0000
07F0
1FF0
3CB0
74E0
75E0
7BE0
2DD0
ENDCHAR
STARTCHAR uni1EAF.fina
ENCODING -1
SWIDTH 458 0
DWIDTH 6 0
BBX 8 13 0 0
BITMAP
0028
00B4
1C09
1FBD
07E4
0000
07F0
1FF0
3CB0
74E0
75E0
7BE0
2DD0
ENDCHAR
STARTCHAR uni1EB7.fina
ENCODING -1
SWIDTH 458 0
DWIDTH 6 0
BBX 8 15 0 -3
BITMAP
0404
1D1D
0FBC
07E4
0000
07F0
1FF0
3CB0
74E0
75E0
7BE0
2DD0
0000
1E00
1E00
ENDCHAR
STARTCHAR uni1EB1.fina
ENCODING -1
SWIDTH 458 0
DWIDTH 6 0
BBX 8 13 0 0
BITMAP
0700
07C0
0844
1E6D
0BF8
0140
07F0
1FF0
3CB0
74E0
75E0
7BE0
2DD0
ENDCHAR
STARTCHAR uni1EB3.fina
ENCODING -1
SWIDTH 458 0
DWIDTH 6 0
BBX 8 14 0 0
BITMAP
02E0
01B0
00B0
05D4
1FBD
07F4
0000
07F0
1FF0
3CB0
74E0
75E0
7BE0
2DD0
ENDCHAR
STARTCHAR uni1EB5.fina
ENCODING -1
SWIDTH 458 0
DWIDTH 6 0
BBX 8 13 0 0
BITMAP
078A
0EBC
0819
1E6D
0BF8
0140
07F0
1FF0
3CB0
74E0
75E0
7BE0
2DD0
ENDCHAR
STARTCHAR acircumflex.fina
ENCODING -1
SWIDTH 458 0
DWIDTH 6 0
BBX 7 13 0 0
BITMAP
00A0
02F0
0774
0B38
0D24
0000
07F0
1FF0
3CB0
74E0
75E0
7BE0
2DD0
ENDCHAR
STARTCHAR uni1EA5.fina
ENCODING -1
SWIDTH 458 0
DWIDTH 6 0
BBX 9 13 0 0
BITMAP
000280
000A40
01E000
077400
0E2800
000000
07F000
1FF000
3CB000
74E000
75E000
7BE000
2DD000
ENDCHAR
STARTCHAR uni1EAD.fina
ENCODING -1
SWIDTH 458 0
DWIDTH 6 0
BBX 7 16 0 -3
BITMAP
00A0
02F0
0774
0B38
0D24
0000
07F0
1FF0
3CB0
74E0
75E0
7BE0
2DD0
0000
1E00
1E00
ENDCHAR
STARTCHAR uni1EA7.fina
ENCODING -1
SWIDTH 458 0
DWIDTH 6 0
BBX 7 13 0 0
BITMAP
3400
2D00
01E0
0774
0E28
0000
07F0
1FF0
3CB0
74E0
75E0
7BE0
2DD0
ENDCHAR
STARTCHAR uni1EA9.fina
ENCODING -1
SWIDTH 458 0
DWIDTH 6 0
BBX 9 13 0 0
BITMAP
000B40
000A80
009680
03FB40
0B7800
091400
07F000
1FF000
3CB000
74E000
75E000
7BE000
2DD000
ENDCHAR
STARTCHAR uni1EAB.fina
ENCODING -1
SWIDTH 458 0
DWIDTH 6 0
BBX 8 14 0 0
BITMAP
0389
0ABC
0454
02F0
0774
0E28
0000
07F0
1FF0
3CB0
74E0
75E0
7BE0
2DD0
ENDCHAR
STARTCHAR uni0201.fina
ENCODING -1
SWIDTH 458 0
DWIDTH 6 0
BBX 6 13 0 0
BITMAP
1440
39D0
2DE0
0DB0
0530
0000
07F0
1FF0
3CB0
74E0
75E0
7BE0
2DD0
ENDCHAR
STARTCHAR adieresis.fina
ENCODING -1
SWIDTH 458 0
DWIDTH 6 0
BBX 7 10 0 0
BITMAP
0F3C
0A38
0000
07F0
1FF0
3CB0
74E0
75E0
7BE0
2DD0
ENDCHAR
STARTCHAR uni1EA1.fina
ENCODING -1
SWIDTH 458 0
DWIDTH 6 0
BBX 6 10 0 -3
BITMAP
07F0
1FF0
3CB0
74E0
75E0
7BE0
2DD0
0000
1E00
1E00
ENDCHAR
STARTCHAR agrave.fina
ENCODING -1
SWIDTH 458 0
DWIDTH 6 0
BBX 6 13 0 0
BITMAP
0400
0E00
0B00
0340
0180
0000
07F0
1FF0
3CB0
74E0
75E0
7BE0
2DD0
ENDCHAR
STARTCHAR uni1EA3.fina
ENCODING -1
SWIDTH 458 0
DWIDTH 6 0
BBX 7 13 0 0
BITMAP
0190
02F4
0034
00B4
01D0
0000
07F0
1FF0
3CB0
74E0
75E0
7BE0
2DD0
ENDCHAR
STARTCHAR uni0203.fina
ENCODING -1
SWIDTH 458 0
DWIDTH 6 0
BBX 8 12 0 0
BITMAP
0190
0BF8
1E2D
1C0D
0000
07F0
1FF0
3CB0
74E0
75E0
7BE0
2DD0
ENDCHAR
STARTCHAR amacron.fina
ENCODING -1
SWIDTH 458 0
DWIDTH 6 0
BBX 7 10 0 0
BITMAP
06A4
0BF4
0000
07F0
1FF0
3CB0
74E0
75E0
7BE0
2DD0
ENDCHAR
STARTCHAR aogonek.fina
ENCODING -1
SWIDTH 458 0
DWIDTH 6 0
BBX 7 11 0 -4
BITMAP
0790
1FF0
3CB0
74E0
75E0
7BE0
2ED0
0280
0380
02F8
0050
ENDCHAR
STARTCHAR aring.fina
ENCODING -1
SWIDTH 458 0
DWIDTH 6 0
BBX 7 13 0 0
BITMAP
0190
03F4
0734
07B4
02E0
0000
07F0
1FF0
3CB0
74E0
75E0
7BE0
2DD0
ENDCHAR
STARTCHAR aringacute.fina
ENCODING -1
SWIDTH 458 0
DWIDTH 6 0
BBX 9 14 0 0
BITMAP
000040
0192C0
03F500
073400
07B400
02E000
000000
07F000
1FF000
3CB000
74E000
75E000
7BE000
2DD000
ENDCHAR
STARTCHAR atilde.fina
ENCODING -1
SWIDTH 458 0
DWIDTH 6 0
BBX 8 11 0 0
BITMAP
0505
0FDD
18B8
0000
07F0
1FF0
3CB0
74E0
75E0
7BE0
2DD0
ENDCHAR
STARTCHAR ae.fina
ENCODING -1
SWIDTH 671 0
DWIDTH 9 0
BBX 10 7 0 0
BITMAP
06EF40
1FBFC0
38B2C0
74FB40
75F960
7BFAD0
2E2F80
ENDCHAR
STARTCHAR aeacute.fina
ENCODING -1
SWIDTH 671 0
DWIDTH 9 0
BBX 10 13 0 0
BITMAP
000140
000780
000B40
000D00
001800
000000
06EF40
1FBFC0
38B2C0
74FB40
75F960
7BFAD0
2E2F80
ENDCHAR
STARTCHAR b.fina
ENCODING -1
SWIDTH 475 0
DWIDTH 7 0
BBX 7 14 0 0
BITMAP
02D0
07F0
0E70
1D70
2CA0
2CC0
3A80
3B90
7EF0
7874
7874
38B4
2EE0
0B80
ENDCHAR
STARTCHAR c.fina
ENCODING -1
SWIDTH 404 0
DWIDTH 6 0
BBX 6 7 0 0
BITMAP
0B80
2EC0
79C0
B400
7420
7EE0
1F80
ENDCHAR
STARTCHAR cacute.fina
ENCODING -1
SWIDTH 404 0
DWIDTH 6 0
BBX 7 13 0 0
BITMAP
0010
00B4
00E0
01C0
0240
0000
0B80
2EC0
79C0
B400
7420
7EE0
1F80
ENDCHAR
STARTCHAR ccaron.fina
ENCODING -1
SWIDTH 404 0
DWIDTH 6 0
BBX 7 13 0 0
BITMAP
0D28
0E74
0AA0
0BD0
0780
0000
0B80
2EC0
79C0
B400
7420
7EE0
1F80
ENDCHAR
STARTCHAR ccedilla.fina
ENCODING -1
SWIDTH 404 0
DWIDTH 6 0
BBX 6 12 0 -5
BITMAP
0B80
2EC0
79C0
7440
B410
78A0
3FD0
1F80
0280
0680
3F40
1400
ENDCHAR
STARTCHAR ccircumflex.fina
ENCODING -1
SWIDTH 404 0
DWIDTH 6 0
BBX 6 13 0 0
BITMAP
02C0
07D0
0AA0
1DB0
2860
0000
0B80
2EC0
79C0
B400
7420
7EE0
1F80
ENDCHAR
STARTCHAR cdotaccent.fina
ENCODING -1
SWIDTH 404 0
DWIDTH 6 0
BBX 6 10 0 0
BITMAP
07C0
0780
0000
0B80
2EC0
79C0
B400
7420
7EE0
1F80
ENDCHAR
STARTCHAR d.fina
ENCODING -1
SWIDTH 493 0
DWIDTH 7 0
BBX 9 14 0 0
BITMAP
000B00
002F40
003640
007640
00B340
00B700
00BA00
07ED00
1EF800
38F400
74F000
74F000
7BF000
2E7400
ENDCHAR
STARTCHAR dcaron.fina
ENCODING -1
SWIDTH 458 0
DWIDTH 6 0
BBX 10 14 0 0
BITMAP
0001D0
001DD0
002EC0
003D80
003800
003800
007400
07F400
1FF000
3CB000
74E000
75E000
7BE000
2DD000
ENDCHAR
STARTCHAR dcroat.fina
ENCODING -1
SWIDTH 458 0
DWIDTH 6 0
BBX 8 13 0 0
BITMAP
001C
002C
003C
0BFE
06B8
0074
07F4
1FF0
3CB0
74E0
75E0
7BE0
2DD0
ENDCHAR
STARTCHAR uni01C6.fina
ENCODING -1
SWIDTH 876 0
DWIDTH 12 0
BBX 13 19 0 -6
BITMAP
001C71C0
002C7280
003C7B40
00383E00
00382800
00755040
07F6FF80
1FF1AF40
3CB02C00
74E0F000
75E2E000
7BFEF800
2E783C00
0000BC00
0002AC00
00072C00
000D7400
000EE000
000B8000
ENDCHAR
STARTCHAR e.fina
ENCODING -1
SWIDTH 411 0
DWIDTH 6 0
BBX 6 7 0 0
BITMAP
0B80
3ED0
75D0
7B80
7920
3EF0
1F80
ENDCHAR
STARTCHAR eacute.fina
ENCODING -1
SWIDTH 411 0
DWIDTH 6 0
BBX 7 13 0 0
BITMAP
0010
00B4
00E0
01C0
0240
0000
0B80
3ED0
75D0
7B80
7920
3EF0
1F80
ENDCHAR
STARTCHAR ebreve.fina
ENCODING -1
SWIDTH 411 0
DWIDTH 6 0
BBX 7 12 0 0
BITMAP
1004
3828
2EB4
0BD0
0000
0B80
3ED0
75D0
7B80
7920
3EF0
1F80
ENDCHAR
STARTCHAR ecaron.fina
ENCODING -1
SWIDTH 411 0
DWIDTH 6 0
BBX 7 13 0 0
BITMAP
0928
0E74
0AA0
07D0
0380
0000
0B80
3ED0
75D0
7B80
7920
3EF0
1F80
ENDCHAR
STARTCHAR ecircumflex.fina
ENCODING -1
SWIDTH 411 0
DWIDTH 6 0
BBX 6 13 0 0
BITMAP
02C0
07D0
0AA0
1DB0
2870
0000
0B80
3ED0
75D0
7B80
7920
3EF0
1F80
ENDCHAR
STARTCHAR uni1EBF.fina
ENCODING -1
SWIDTH 411 0
DWIDTH 6 0
BBX 8 13 0 0
BITMAP
0007
001D
02D0
0EA0
1C70
0000
0B80
3ED0
75D0
7B80
7920
3EF0
1F80
ENDCHAR
STARTCHAR uni1EC7.fina
ENCODING -1
SWIDTH 411 0
DWIDTH 6 0
BBX 6 16 0 -3
BITMAP
02C0
07D0
0AA0
1DB0
2870
0000
0B80
3ED0
75D0
7B80
7920
3EF0
1F80
0000
0F00
0F00
ENDCHAR
STARTCHAR uni1EC1.fina
ENCODING -1
SWIDTH 411 0
DWIDTH 6 0
BBX 6 13 0 0
BITMAP
A000
6800
02D0
0EA0
1C70
0000
0B80
3ED0
75D0
7B80
7920
3EF0
1F80
ENDCHAR
STARTCHAR uni1EC3.fina
ENCODING -1
SWIDTH 411 0
DWIDTH 6 0
BBX 9 13 0 0
BITMAP
001E00
001B40
018B00
0BEE00
1EB000
145000
0B8000
3ED000
75D000
7B8000
792000
3EF000
1F8000
ENDCHAR
STARTCHAR uni1EC5.fina
ENCODING -1
SWIDTH 411 0
DWIDTH 6 0
BBX 7 14 0 0
BITMAP
0B58
1EF4
0450
07D0
0EA0
1C70
0000
0B80
3ED0
75D0
7B80
7920
3EF0
1F80
ENDCHAR
STARTCHAR uni0205.fina
ENCODING -1
SWIDTH 411 0
DWIDTH 6 0
BBX 6 13 0 0
BITMAP
1100
B780
76C0
28D0
0C90
0000
0B80
3ED0
75D0
7B80
7920
3EF0
1F80
ENDCHAR
STARTCHAR edieresis.fina
ENCODING -1
SWIDTH 411 0
DWIDTH 6 0
BBX 7 10 0 0
BITMAP
1DB4
1D70
0000
0B80
3ED0
75D0
7B80
7920
3EF0
1F80
ENDCHAR
STARTCHAR edotaccent.fina
ENCODING -1
SWIDTH 411 0
DWIDTH 6 0
BBX 6 10 0 0
BITMAP
07C0
0780
0000
0B80
3ED0
75D0
7B80
7920
3EF0
1F80
ENDCHAR
STARTCHAR uni1EB9.fina
ENCODING -1
SWIDTH 411 0
DWIDTH 6 0
BBX 6 10 0 -3
BITMAP
0B80
3ED0
75D0
7B80
7920
3EF0
1F80
0000
0F00
0F00
ENDCHAR
STARTCHAR egrave.fina
ENCODING -1
SWIDTH 411 0
DWIDTH 6 0
BBX 6 13 0 0
BITMAP
1400
2C00
1D00
0B00
0200
0000
0B80
3ED0
75D0
7B80
7920
3EF0
1F80
ENDCHAR
STARTCHAR uni1EBB.fina
ENCODING -1
SWIDTH 411 0
DWIDTH 6 0
BBX 6 13 0 0
BITMAP
0240
07E0
00A0
02E0
0380
0000
0B80
3ED0
75D0
7B80
7920
3EF0
1F80
ENDCHAR
STARTCHAR uni0207.fina
ENCODING -1
SWIDTH 411 0
DWIDTH 6 0
BBX 7 12 0 0
BITMAP
0690
1FF4
2C78
2428
0000
0B80
3ED0
75D0
7B80
7920
3EF0
1F80
ENDCHAR
STARTCHAR emacron.fina
ENCODING -1
SWIDTH 411 0
DWIDTH 6 0
BBX 6 10 0 0
BITMAP
0A90
1FE0
0000
0B80
3ED0
75D0
7B80
7920
3EF0
1F80
ENDCHAR
STARTCHAR eogonek.fina
ENCODING -1
SWIDTH 411 0
DWIDTH 6 0
BBX 6 11 0 -4
BITMAP
0B80
2ED0
74D0
76C0
7E10
79B0
2FD0
0700
0A00
0B90
07E0
ENDCHAR
STARTCHAR uni1EBD.fina
ENCODING -1
SWIDTH 411 0
DWIDTH 6 0
BBX 7 11 0 0
BITMAP
0504
2FA8
35B0
0000
0B80
3ED0
75D0
7B80
7920
3EF0
1F80
ENDCHAR
STARTCHAR g.fina
ENCODING -1
SWIDTH 449 0
DWIDTH 6 0
BBX 6 14 0 -7
BITMAP
0790
1FF0
3CB0
74E0
75E0
7BD0
2ED0
07C0
1FC0
3B80
A340
DB00
EE00
7800
ENDCHAR
STARTCHAR gbreve.fina
ENCODING -1
SWIDTH 449 0
DWIDTH 6 0
BBX 8 19 0 -7
BITMAP
0404
1D1D
0FBC
07E4
0000
0790
1FF0
3CB0
74E0
75E0
7BD0
2ED0
07C0
1FC0
3B80
A340
DB00
EE00
7800
ENDCHAR
STARTCHAR gcaron.fina
ENCODING -1
SWIDTH 449 0
DWIDTH 6 0
BBX 8 20 0 -7
BITMAP
070D
076C
0374
03F0
01D0
0000
0790
1FF0
3CB0
74E0
75E0
7BD0
2ED0
07C0
1FC0
3B80
A340
DB00
EE00
7800
ENDCHAR
STARTCHAR gcircumflex.fina
ENCODING -1
SWIDTH 449 0
DWIDTH 6 0
BBX 7 20 0 -7
BITMAP
00A0
02F0
0774
0B38
0D24
0000
0790
1FF0
3CB0
74E0
75E0
7BD0
2ED0
07C0
1FC0
3B80
A340
DB00
EE00
7800
ENDCHAR
STARTCHAR uni0123.fina
ENCODING -1
SWIDTH 449 0
DWIDTH 6 0
BBX 6 19 0 -7
BITMAP
00D0
00E0
00D0
00C0
0000
0790
1FF0
3CB0
74E0
75E0
7BD0
2ED0
07C0
1FC0
3B80
A340
DB00
EE00
7800
ENDCHAR
STARTCHAR gdotaccent.fina
ENCODING -1
SWIDTH 449 0
DWIDTH 6 0
BBX 6 17 0 -7
BITMAP
02E0
02D0
0000
0790
1FF0
3CB0
74E0
75E0
7BD0
2ED0
07C0
1FC0
3B80
A340
DB00
EE00
7800
ENDCHAR
STARTCHAR h.fina
ENCODING -1
SWIDTH 490 0
DWIDTH 7 0
BBX 7 14 0 0
BITMAP
02D0
07F0
0A70
1D60
1C90
2DC0
3B40
3EB4
3AF4
7BB4
7E74
7CB0
7CB0
34B0
ENDCHAR
STARTCHAR hbar.fina
ENCODING -1
SWIDTH 490 0
DWIDTH 7 0
BBX 7 13 0 0
BITMAP
0700
0B00
0F00
3FF0
2E90
2D00
2CB4
39F4
3BB4
3E74
7CB0
7CB0
34B0
ENDCHAR
STARTCHAR hcircumflex.fina
ENCODING -1
SWIDTH 490 0
DWIDTH 7 0
BBX 7 19 0 0
BITMAP
00B0
02F8
076C
0A1C
0000
02D0
07F0
0A70
1D60
1C90
2DC0
3B40
3EB4
3AF4
7BB4
7E74
7CB0
7CB0
34B0
ENDCHAR
STARTCHAR i.fina
ENCODING -1
SWIDTH 222 0
DWIDTH 3 0
BBX 4 10 0 0
BITMAP
1E
1E
00
2C
3C
38
78
74
74
70
ENDCHAR
STARTCHAR dotlessi.fina
ENCODING -1
SWIDTH 222 0
DWIDTH 3 0
BBX 3 7 0 0
BITMAP
2C
3C
38
78
74
74
70
ENDCHAR
STARTCHAR iacute.fina
ENCODING -1
SWIDTH 222 0
DWIDTH 3 0
BBX 5 13 0 0
BITMAP
0140
03C0
0780
0A00
0C00
0000
2C00
3C00
3800
7800
7400
7400
7000
ENDCHAR
STARTCHAR iacute_j.loclNLD.fina
ENCODING -1
SWIDTH 479 0
DWIDTH 7 0
BBX 9 20 0 -7
BITMAP
004100
02CB40
038E00
0B1C00
092400
000000
1C7000
38B000
38F000
75E000
7BE000
7FD000
2DD000
07C000
1FC000
378000
A34000
DB0000
EE0000
B80000
ENDCHAR
STARTCHAR ibreve.fina
ENCODING -1
SWIDTH 222 0
DWIDTH 3 0
BBX 7 12 -1 0
BITMAP
1010
7434
3EF0
1B90
0000
0B00
0F00
0E00
1E00
1D00
1D00
1C00
ENDCHAR
STARTCHAR icircumflex.fina
ENCODING -1
SWIDTH 222 0
DWIDTH 3 0
BBX 5 13 0 0
BITMAP
0A00
2F40
3740
B380
9280
0000
2C00
3C00
3800
7800
7400
7400
7000
ENDCHAR
STARTCHAR uni0209.fina
ENCODING -1
SWIDTH 222 0
DWIDTH 3 0
BBX 5 13 -1 0
BITMAP
5100
F740
B780
35C0
1880
0000
0B00
0F00
0E00
1E00
1D00
1D00
1C00
ENDCHAR
STARTCHAR idieresis.fina
ENCODING -1
SWIDTH 222 0
DWIDTH 3 0
BBX 5 10 0 0
BITMAP
B3C0
B280
0000
2C00
3C00
3800
7800
7400
7400
7000
ENDCHAR
STARTCHAR i.loclTRK.fina
ENCODING -1
SWIDTH 222 0
DWIDTH 3 0
BBX 4 10 0 0
BITMAP
1E
1D
00
2C
3C
38
78
74
74
70
ENDCHAR
STARTCHAR uni1ECB.fina
ENCODING -1
SWIDTH 222 0
DWIDTH 3 0
BBX 4 13 0 -3
BITMAP
1E
1E
00
2C
3C
38
78
74
74
70
00
F0
F0
ENDCHAR
STARTCHAR igrave.fina
ENCODING -1
SWIDTH 222 0
DWIDTH 3 0
BBX 3 13 0 0
BITMAP
40
E0
B4
38
18
00
2C
3C
38
78
74
74
70
ENDCHAR
STARTCHAR uni1EC9.fina
ENCODING -1
SWIDTH 222 0
DWIDTH 3 0
BBX 5 13 0 0
BITMAP
1900
2F40
0340
0B40
1E00
0000
2C00
3C00
3800
7800
7400
7400
7000
ENDCHAR
STARTCHAR uni020B.fina
ENCODING -1
SWIDTH 222 0
DWIDTH 3 0
BBX 6 12 0 0
BITMAP
1900
BFC0
E1D0
C0D0
0000
2C00
3C00
3800
7800
7400
7400
7000
ENDCHAR
STARTCHAR imacron.fina
ENCODING -1
SWIDTH 222 0
DWIDTH 3 0
BBX 5 10 0 0
BITMAP
6A40
BF80
0000
2C00
3C00
3800
7800
7400
7400
7000
ENDCHAR
STARTCHAR iogonek.fina
ENCODING -1
SWIDTH 222 0
DWIDTH 3 0
BBX 5 14 -1 -4
BITMAP
0780
0740
0000
0B00
0F00
0E00
1E00
1D00
1D00
2C00
3400
7400
3F40
1500
ENDCHAR
STARTCHAR itilde.fina
ENCODING -1
SWIDTH 222 0
DWIDTH 3 0
BBX 7 11 -1 0
BITMAP
0414
3F74
71E0
0000
0B00
0F00
0E00
1E00
1D00
1D00
1C00
ENDCHAR
STARTCHAR j.fina
ENCODING -1
SWIDTH 229 0
DWIDTH 3 0
BBX 7 17 -3 -7
BITMAP
00B4
00B4
0000
00B0
00F0
00E0
00E0
01D0
01D0
01C0
07C0
1F80
3780
A740
DB00
ED00
B800
ENDCHAR
STARTCHAR uni0237.fina
ENCODING -1
SWIDTH 229 0
DWIDTH 3 0
BBX 6 14 -3 -7
BITMAP
00B0
00F0
00E0
00E0
01D0
01D0
01C0
07C0
1F80
3780
A740
DB00
ED00
B800
ENDCHAR
STARTCHAR jcircumflex.fina
ENCODING -1
SWIDTH 229 0
DWIDTH 3 0
BBX 8 20 -3 -7
BITMAP
0028
00BC
00DD
02CE
034A
0000
00B0
00F0
00E0
00E0
01D0
01D0
01C0
07C0
1F80
3780
A740
DB00
ED00
B800
ENDCHAR
STARTCHAR k.fina
ENCODING -1
SWIDTH 521 0
DWIDTH 7 0
BBX 7 14 0 0
BITMAP
02D0
07F0
0A70
1D60
1C90
2DC0
3B40
3EB8
3AFC
7B2C
7EB8
7DE0
78F8
347C
ENDCHAR
STARTCHAR uni0137.fina
ENCODING -1
SWIDTH 521 0
DWIDTH 7 0
BBX 7 19 0 -5
BITMAP
02D0
07F0
0A70
1D60
1C90
2DC0
3B40
3EB8
3AFC
7B2C
7EB8
7DE0
78F8
347C
0000
0700
0B00
0A00
0900
ENDCHAR
STARTCHAR kgreenlandic.fina
ENCODING -1
SWIDTH 541 0
DWIDTH 8 0
BBX 8 7 0 0
BITMAP
2CB8
3AEC
3B5C
7F40
7F46
7BEE
35F8
ENDCHAR
STARTCHAR l.fina
ENCODING -1
SWIDTH 368 0
DWIDTH 5 0
BBX 6 14 0 0
BITMAP
02D0
07F0
0E70
1D70
2CA0
2CD0
39C0
3A80
3B40
7E00
7C00
3800
2ED0
0B80
ENDCHAR
STARTCHAR lacute.fina
ENCODING -1
SWIDTH 368 0
DWIDTH 5 0
BBX 9 19 0 0
BITMAP
000100
000F40
007E00
00A000
000000
02D000
07F000
0E7000
1D7000
2CA000
2CD000
39C000
3A8000
3B4000
7E0000
7C0000
380000
2ED000
0B8000
ENDCHAR
STARTCHAR lcaron.fina
ENCODING -1
SWIDTH 368 0
DWIDTH 5 0
BBX 8 14 0 0
BITMAP
02D0
07F7
0E7B
1D79
2CA0
2CD0
39C0
3A80
3B40
7E00
7C00
3800
2ED0
0B80
ENDCHAR
STARTCHAR uni013C.fina
ENCODING -1
SWIDTH 368 0
DWIDTH 5 0
BBX 6 19 0 -5
BITMAP
02D0
07F0
0E70
1D70
2CA0
2CD0
39C0
3A80
3B40
7E00
7C00
3800
2ED0
0B80
0000
1C00
1D00
1C00
1800
ENDCHAR
STARTCHAR ldot.fina
ENCODING -1
SWIDTH 466 0
DWIDTH 7 0
BBX 7 14 0 0
BITMAP
0740
0B40
0F00
0E00
1E00
2D00
2DD0
3EE0
3840
7800
7804
781C
3EB4
1B90
ENDCHAR
STARTCHAR uni01C9.fina
ENCODING -1
SWIDTH 555 0
DWIDTH 8 0
BBX 8 21 0 -7
BITMAP
02D0
07F0
0E70
1D70
2CBE
2CEF
39D0
3A8D
3B5D
7E1D
7C2C
383C
2EFC
1FB8
00B8
02F4
0BB0
0DB0
18E0
2EC0
1F40
ENDCHAR
STARTCHAR lslash.fina
ENCODING -1
SWIDTH 368 0
DWIDTH 5 0
BBX 8 15 0 0
BITMAP
06FE
0FA9
02D0
0BF0
0E70
1D70
2CA0
38D0
39C0
7B40
7E00
3C00
3800
2ED0
0B80
ENDCHAR
STARTCHAR m.fina
ENCODING -1
SWIDTH 732 0
DWIDTH 10 0
BBX 10 7 0 0
BITMAP
2CB1E0
3AF7F0
3BBAE0
7DBCE0
7CB9E0
78B5D0
3461D0
ENDCHAR
STARTCHAR n.fina
ENCODING -1
SWIDTH 484 0
DWIDTH 7 0
BBX 7 7 0 0
BITMAP
2CB4
3AF4
3BB4
7EB0
7CB0
78B0
34A0
ENDCHAR
STARTCHAR nacute.fina
ENCODING -1
SWIDTH 484 0
DWIDTH 7 0
BBX 7 13 0 0
BITMAP
0014
003C
0074
00A0
00C0
0000
2CB4
3AF4
3BB4
7EB0
7CB0
78B0
34A0
ENDCHAR
STARTCHAR napostrophe.fina
ENCODING -1
SWIDTH 484 0
DWIDTH 7 0
BBX 7 12 0 0
BITMAP
A000
E000
D000
C000
0000
2CB4
3AF4
3BB4
7EB0
7CB0
78B0
34A0
ENDCHAR
STARTCHAR ncaron.fina
ENCODING -1
SWIDTH 484 0
DWIDTH 7 0
BBX 8 13 0 0
BITMAP
070D
076C
0374
02F0
01D0
0000
2CB4
3AF4
3BB4
7EB0
7CB0
78B0
34A0
ENDCHAR
STARTCHAR uni0146.fina
ENCODING -1
SWIDTH 484 0
DWIDTH 7 0
BBX 7 12 0 -5
BITMAP
2CB4
3AF4
3BB4
7EB0
7CB0
78B0
34A0
0000
0700
0B00
0A00
0900
ENDCHAR
STARTCHAR eng.fina
ENCODING -1
SWIDTH 484 0
DWIDTH 7 0
BBX 7 12 0 -5
BITMAP
2CB4
3AF4
3BB4
7DB0
7CB0
78E0
34D0
01D0
02C0
5380
B740
7D00
ENDCHAR
STARTCHAR uni01CC.fina
ENCODING -1
SWIDTH 725 0
DWIDTH 10 0
BBX 11 17 0 -7
BITMAP
0000B4
0000F4
000000
2CB4A0
3AF4E0
3BB4E0
7EB1E0
7CB2D0
78BBD0
347AC0
0007C0
001F80
007780
00A740
00DB00
01ED00
00B800
ENDCHAR
STARTCHAR ntilde.fina
ENCODING -1
SWIDTH 484 0
DWIDTH 7 0
BBX 8 11 0 0
BITMAP
0105
0FDD
1C78
0000
2CB4
3AF4
3BB4
7EB0
7CB0
78B0
34A0
ENDCHAR
STARTCHAR o.fina
ENCODING -1
SWIDTH 453 0
DWIDTH 6 0
BBX 6 7 0 0
BITMAP
0B80
3EE0
74B0
74B0
74F0
7ED0
1F40
ENDCHAR
STARTCHAR oacute.fina
ENCODING -1
SWIDTH 453 0
DWIDTH 6 0
BBX 7 13 0 0
BITMAP
0010
00B4
00E0
01C0
0240
0000
0B80
3EE0
74B0
74B0
74F0
7ED0
1F40
ENDCHAR
STARTCHAR obreve.fina
ENCODING -1
SWIDTH 453 0
DWIDTH 6 0
BBX 7 12 0 0
BITMAP
1014
3838
2EB4
0BD0
0000
0B80
3EE0
74B0
74B0
74F0
7ED0
1F40
ENDCHAR
STARTCHAR ocircumflex.fina
ENCODING -1
SWIDTH 453 0
DWIDTH 6 0
BBX 6 13 0 0
BITMAP
02C0
07D0
0AA0
1DB0
2870
0000
0B80
3EE0
74B0
74B0
74F0
7ED0
1F40
ENDCHAR
STARTCHAR uni1ED1.fina
ENCODING -1
SWIDTH 453 0
DWIDTH 6 0
BBX 8 13 0 0
BITMAP
000B
0019
02D0
0EE0
2870
0000
0B80
3EE0
74B0
74B0
74F0
7ED0
1F40
ENDCHAR
STARTCHAR uni1ED9.fina
ENCODING -1
SWIDTH 453 0
DWIDTH 6 0
BBX 6 16 0 -3
BITMAP
02C0
07D0
0AA0
1DB0
2870
0000
0B80
3EE0
74B0
74B0
74F0
7ED0
1F40
0000
1F00
1E00
ENDCHAR
STARTCHAR uni1ED3.fina
ENCODING -1
SWIDTH 453 0
DWIDTH 6 0
BBX 6 13 0 0
BITMAP
A000
6800
02D0
0EE0
2870
0000
0B80
3EE0
74B0
74B0
74F0
7ED0
1F40
ENDCHAR
STARTCHAR uni1ED5.fina
ENCODING -1
SWIDTH 453 0
DWIDTH 6 0
BBX 8 13 0 0
BITMAP
001E
001B
018B
0BEE
1EB0
1450
0B80
3EE0
74B0
74B0
74F0
7ED0
1F40
ENDCHAR
STARTCHAR uni1ED7.fina
ENCODING -1
SWIDTH 453 0
DWIDTH 6 0
BBX 7 14 0 0
BITMAP
0B58
1EF4
0450
07D0
0EE0
2870
0000
0B80
3EE0
74B0
74B0
74F0
7ED0
1F40
ENDCHAR
STARTCHAR uni020D.fina
ENCODING -1
SWIDTH 453 0
DWIDTH 6 0
BBX 6 13 0 0
BITMAP
1100
B780
76C0
29D0
0890
0000
0B80
3EE0
74B0
74B0
74F0
7ED0
1F40
ENDCHAR
STARTCHAR odieresis.fina
ENCODING -1
SWIDTH 453 0
DWIDTH 6 0
BBX 7 10 0 0
BITMAP
2DB4
1DB0
0000
0B80
3EE0
74B0
74B0
74F0
7ED0
1F40
ENDCHAR
STARTCHAR uni022B.fina
ENCODING -1
SWIDTH 453 0
DWIDTH 6 0
BBX 7 13 0 0
BITMAP
0AA0
0FF4
0000
2DB4
1DB0
0000
0B80
3EE0
74B0
74B0
74F0
7ED0
1F40
ENDCHAR
STARTCHAR uni0231.fina
ENCODING -1
SWIDTH 453 0
DWIDTH 6 0
BBX 7 13 0 0
BITMAP
0AA0
0FF4
0000
07C0
0780
0000
0B80
3EE0
74B0
74B0
74F0
7ED0
1F40
ENDCHAR
STARTCHAR uni1ECD.fina
ENCODING -1
SWIDTH 453 0
DWIDTH 6 0
BBX 6 10 0 -3
BITMAP
0B80
3EE0
74B0
74B0
74F0
7ED0
1F40
0000
1F00
1E00
ENDCHAR
STARTCHAR ograve.fina
ENCODING -1
SWIDTH 453 0
DWIDTH 6 0
BBX 6 13 0 0
BITMAP
1400
2C00
1D00
0B00
0200
0000
0B80
3EE0
74B0
74B0
74F0
7ED0
1F40
ENDCHAR
STARTCHAR uni1ECF.fina
ENCODING -1
SWIDTH 453 0
DWIDTH 6 0
BBX 6 13 0 0
BITMAP
0240
07E0
00A0
02E0
0380
0000
0B80
3EE0
74B0
74B0
74F0
7ED0
1F40
ENDCHAR
STARTCHAR ohorn.fina
ENCODING -1
SWIDTH 453 0
DWIDTH 6 0
BBX 7 9 0 0
BITMAP
0018
0028
0BF4
3EE0
74B0
74B0
74F0
7ED0
1F80
ENDCHAR
STARTCHAR uni1EDB.fina
ENCODING -1
SWIDTH 453 0
DWIDTH 6 0
BBX 7 13 0 0
BITMAP
0050
00F0
01D0
0280
0318
0028
0BF4
3EE0
74B0
74B0
74F0
7ED0
1F80
ENDCHAR
STARTCHAR uni1EE3.fina
ENCODING -1
SWIDTH 453 0
DWIDTH 6 0
BBX 7 12 0 -3
BITMAP
0018
0028
0BF4
3EE0
74B0
74B0
74F0
7ED0
1F80
0000
1F00
1E00
ENDCHAR
STARTCHAR uni1EDD.fina
ENCODING -1
SWIDTH 453 0
DWIDTH 6 0
BBX 7 13 0 0
BITMAP
1000
3800
2C00
0E00
0618
0028
0BF4
3EE0
74B0
74B0
74F0
7ED0
1F80
ENDCHAR
STARTCHAR uni1EDF.fina
ENCODING -1
SWIDTH 453 0
DWIDTH 6 0
BBX 7 13 0 0
BITMAP
0640
0BD0
00D0
02D0
0798
0028
0BF4
3EE0
74B0
74B0
74F0
7ED0
1F80
ENDCHAR
STARTCHAR uni1EE1.fina
ENCODING -1
SWIDTH 453 0
DWIDTH 6 0
BBX 7 11 0 0
BITMAP
1D30
3BA0
1058
0028
0BF4
3EE0
74B0
74B0
74F0
7ED0
1F40
ENDCHAR
STARTCHAR ohungarumlaut.fina
ENCODING -1
SWIDTH 453 0
DWIDTH 6 0
BBX 7 13 0 0
BITMAP
0104
07AC
0B78
0A70
0C60
0000
0B80
3EE0
74B0
74B0
74F0
7ED0
1F40
ENDCHAR
STARTCHAR uni020F.fina
ENCODING -1
SWIDTH 453 0
DWIDTH 6 0
BBX 7 12 0 0
BITMAP
0690
1FF4
3C78
3428
0000
0B80
3EE0
74B0
74B0
74F0
7ED0
1F40
ENDCHAR
STARTCHAR omacron.fina
ENCODING -1
SWIDTH 453 0
DWIDTH 6 0
BBX 6 10 0 0
BITMAP
1A90
1FE0
0000
0B80
3EE0
74B0
74B0
74F0
7ED0
1F40
ENDCHAR
STARTCHAR uni01EB.fina
ENCODING -1
SWIDTH 453 0
DWIDTH 6 0
BBX 6 11 0 -4
BITMAP
0B80
3EE0
74B0
74B0
74E0
3FD0
1F40
0D00
1D00
0BD0
0140
ENDCHAR
STARTCHAR oslash.fina
ENCODING -1
SWIDTH 463 0
DWIDTH 6 0
BBX 7 11 0 -2
BITMAP
0180
0180
0BD0
3FF0
77B0
7774
7AB0
7FE0
1F80
0900
0C00
ENDCHAR
STARTCHAR oslashacute.fina
ENCODING -1
SWIDTH 463 0
DWIDTH 6 0
BBX 7 15 0 -2
BITMAP
0140
03C0
0780
0A00
0D80
0180
0BD0
3FF0
77B0
7774
7AB0
7FE0
1F80
0900
0C00
ENDCHAR
STARTCHAR otilde.fina
ENCODING -1
SWIDTH 453 0
DWIDTH 6 0
BBX 7 11 0 0
BITMAP
0504
2FA8
35B0
0000
0B80
3EE0
74B0
74B0
74F0
7ED0
1F40
ENDCHAR
STARTCHAR uni022D.fina
ENCODING -1
SWIDTH 453 0
DWIDTH 6 0
BBX 7 14 0 0
BITMAP
06A0
0FF4
0000
0504
2FA8
35B0
0000
0B80
3EE0
74B0
74B0
74F0
7ED0
1F40
ENDCHAR
STARTCHAR oe.fina
ENCODING -1
SWIDTH 686 0
DWIDTH 10 0
BBX 10 7 0 0
BITMAP
0B8B80
3EFED0
74B5C0
74BB80
74F920
7EFEE0
1F5F80
ENDCHAR
STARTCHAR p.fina
ENCODING -1
SWIDTH 457 0
DWIDTH 6 0
BBX 9 14 -2 -7
BITMAP
02AD00
03EF00
038B40
038B00
078E00
0FBD00
1FE400
2B4000
374000
774000
A70000
AA0000
BD0000
780000
ENDCHAR
STARTCHAR thorn.fina
ENCODING -1
SWIDTH 483 0
DWIDTH 7 0
BBX 7 17 0 -5
BITMAP
0900
1E00
1D00
2C00
2C00
39B0
3BB8
7D78
7C74
78F0
BFD0
BA00
B000
B000
B000
B000
5000
ENDCHAR
STARTCHAR q.fina
ENCODING -1
SWIDTH 449 0
DWIDTH 6 0
BBX 7 13 0 -5
BITMAP
0014
07F4
1FF4
3CB0
74E0
75E0
7BD0
2ED0
02C0
03C0
0380
0380
0340
ENDCHAR
STARTCHAR r.fina
ENCODING -1
SWIDTH 495 0
DWIDTH 7 0
BBX 7 7 0 0
BITMAP
2CB4
39F4
3BB8
7E7C
7C74
7800
3400
ENDCHAR
STARTCHAR racute.fina
ENCODING -1
SWIDTH 495 0
DWIDTH 7 0
BBX 7 13 0 0
BITMAP
0014
0078
00B4
00D0
0180
0000
2CB4
39F4
3BB8
7E7C
7C74
7800
3400
ENDCHAR
STARTCHAR rcaron.fina
ENCODING -1
SWIDTH 495 0
DWIDTH 7 0
BBX 7 13 0 0
BITMAP
061C
0B38
0774
03E0
02C0
0000
2CB4
39F4
3BB8
7E7C
7C74
7800
3400
ENDCHAR
STARTCHAR uni0157.fina
ENCODING -1
SWIDTH 495 0
DWIDTH 7 0
BBX 7 12 0 -5
BITMAP
2CB4
39F4
3BB8
7E7C
7C74
7800
3400
0000
7400
7400
7000
6000
ENDCHAR
STARTCHAR uni0211.fina
ENCODING -1
SWIDTH 495 0
DWIDTH 7 0
BBX 7 13 0 0
BITMAP
1140
7AC0
3DD0
1CA0
0960
0000
2CB4
39F4
3BB8
7E7C
7C74
7800
3400
ENDCHAR
STARTCHAR uni0213.fina
ENCODING -1
SWIDTH 495 0
DWIDTH 7 0
BBX 7 12 0 0
BITMAP
0190
0BF8
1D2C
181C
0000
2CB4
39F4
3BB8
7E7C
7C74
7800
3400
ENDCHAR
STARTCHAR s.fina
ENCODING -1
SWIDTH 394 0
DWIDTH 6 0
BBX 6 7 0 0
BITMAP
0740
0B00
1F40
3BC0
A2D0
9FD0
0B80
ENDCHAR
STARTCHAR sacute.fina
ENCODING -1
SWIDTH 394 0
DWIDTH 6 0
BBX 7 13 0 0
BITMAP
0010
00B4
00E0
01C0
0240
0000
0740
0B00
1F40
3BC0
A2D0
9FD0
0B80
ENDCHAR
STARTCHAR scaron.fina
ENCODING -1
SWIDTH 394 0
DWIDTH 6 0
BBX 7 13 0 0
BITMAP
0D28
0E74
0AA0
07D0
0380
0000
0740
0B00
1F40
3BC0
A2D0
9FD0
0B80
ENDCHAR
STARTCHAR scedilla.fina
ENCODING -1
SWIDTH 394 0
DWIDTH 6 0
BBX 6 12 0 -5
BITMAP
0740
0B00
0F00
2F80
77D0
E2D0
9FD0
1F80
0280
0680
3F40
1400
ENDCHAR
STARTCHAR scircumflex.fina
ENCODING -1
SWIDTH 394 0
DWIDTH 6 0
BBX 6 13 0 0
BITMAP
02C0
07D0
0AA0
1DB0
2870
0000
0740
0B00
1F40
3BC0
A2D0
9FD0
0B80
ENDCHAR
STARTCHAR uni0219.fina
ENCODING -1
SWIDTH 394 0
DWIDTH 6 0
BBX 6 12 0 -5
BITMAP
0740
0B00
1F40
3BC0
A2D0
9FD0
0B80
0000
0A00
0B00
0A00
0900
ENDCHAR
STARTCHAR germandbls.fina
ENCODING -1
SWIDTH 580 0
DWIDTH 8 0
BBX 8 15 0 -3
BITMAP
01F8
0BAE
0E0B
2D0E
3C7D
38F0
39E0
78F8
747E
774F
779F
75F9
7400
7400
7400
ENDCHAR
STARTCHAR uni01C9.ss01.fina
ENCODING -1
SWIDTH 466 0
DWIDTH 7 0
BBX 7 20 0 -7
BITMAP
0A00
0F00
1E00
1D78
2DB8
2C00
3C74
38B0
78B0
74B0
75E0
7BE0
2ED0
02D0
0FC0
2AC0
7380
A740
BE00
7800
ENDCHAR
STARTCHAR eng.ss01.fina
ENCODING -1
SWIDTH 484 0
DWIDTH 7 0
BBX 7 14 0 -7
BITMAP
2CB4
3AF4
3BB4
7EB0
7CB0
78B0
34E0
02E0
0BD0
2EC0
3680
6340
BF00
7D00
ENDCHAR
STARTCHAR p.ss01.fina
ENCODING -1
SWIDTH 488 0
DWIDTH 7 0
BBX 9 14 -2 -7
BITMAP
01C740
02EF40
02FB40
02D740
03CB00
038B00
0B8B00
1F8000
2B4000
374000
670000
9A0000
AD0000
780000
ENDCHAR
STARTCHAR z.ss01.fina
ENCODING -1
SWIDTH 406 0
DWIDTH 6 0
BBX 8 15 -1 -7
BITMAP
0504
1FFD
05F8
02E0
0B40
1F00
0BC0
02D0
07E0
1EE0
39D0
72C0
B740
7E00
1400
ENDCHAR
STARTCHAR zacute.ss01.fina
ENCODING -1
SWIDTH 406 0
DWIDTH 6 0
BBX 8 20 -1 -7
BITMAP
0004
002C
0038
0070
0090
0504
1FFD
05F8
02E0
0B40
1F00
0BC0
02D0
07E0
1EE0
39D0
72C0
B740
7E00
1400
ENDCHAR
STARTCHAR zcaron.ss01.fina
ENCODING -1
SWIDTH 406 0
DWIDTH 6 0
BBX 8 20 -1 -7
BITMAP
0349
039D
02A8
02F4
01D0
0504
1FFD
05F8
02E0
0B40
1F00
0BC0
02D0
07E0
1EE0
39D0
72C0
B740
7E00
1400
ENDCHAR
STARTCHAR zdotaccent.ss01.fina
ENCODING -1
SWIDTH 406 0
DWIDTH 6 0
BBX 8 17 -1 -7
BITMAP
01F0
01E0
0504
1FFD
05F8
02E0
0B40
1F00
0BC0
02D0
07E0
1EE0
39D0
72C0
B740
7E00
1400
ENDCHAR
STARTCHAR t.fina
ENCODING -1
SWIDTH 413 0
DWIDTH 6 0
BBX 7 13 0 0
BITMAP
01E0
03F0
0B70
0E70
1DD0
1E80
FFF4
BE90
2C00
2C00
2C00
1FA0
0BD0
ENDCHAR
STARTCHAR tbar.fina
ENCODING -1
SWIDTH 387 0
DWIDTH 5 0
BBX 6 12 0 0
BITMAP
0500
0B00
0E00
1E00
6E90
BFD0
2C00
FFC0
BE40
3800
2ED0
0B80
ENDCHAR
STARTCHAR tcaron.fina
ENCODING -1
SWIDTH 413 0
DWIDTH 6 0
BBX 9 13 0 0
BITMAP
01E380
03F340
0B7300
0E7000
1DD000
1E8000
FFF400
BE9000
2C0000
2C0000
2C0000
1FA000
0BD000
ENDCHAR
STARTCHAR uni0163.fina
ENCODING -1
SWIDTH 413 0
DWIDTH 6 0
BBX 7 17 0 -4
BITMAP
01E0
03F0
0B70
0E70
1DD0
1E80
FFF4
BE90
2C00
2C00
2C00
1EA0
0FD0
0B80
01C0
2B80
3E00
ENDCHAR
ENDFONT
